<svg width="40" height="40" viewBox="0 0 40 40" fill="none" xmlns="http://www.w3.org/2000/svg">
<g clip-path="url(#clip0)">
<path d="M40.0001 20.1219C40.0001 9.00686 31.0451 -0.00314331 20.0001 -0.00314331C8.95012 -0.00064331 -0.00488281 9.00686 -0.00488281 20.1244C-0.00488281 30.1669 7.31012 38.4919 16.8701 40.0019V25.9394H11.7951V20.1244H16.8751V15.6869C16.8751 10.6444 19.8626 7.85936 24.4301 7.85936C26.6201 7.85936 28.9076 8.25186 28.9076 8.25186V13.2019H26.3851C23.9026 13.2019 23.1276 14.7544 23.1276 16.3469V20.1219H28.6726L27.7876 25.9369H23.1251V39.9994C32.6851 38.4894 40.0001 30.1644 40.0001 20.1219Z" fill="#0B63DA"/>
</g>
<defs>
<clipPath id="clip0">
<rect width="40" height="40" fill="white"/>
</clipPath>
</defs>
</svg>
