<svg width="36" height="36" viewBox="0 0 36 36" fill="none" xmlns="http://www.w3.org/2000/svg">
<path d="M24.8625 30.375C24.075 28.8 24.525 26.775 25.9875 25.7625C26.775 27.3375 26.325 29.3625 24.8625 30.375Z" fill="#7DC7A2"/>
<path d="M24.8625 30.3749C25.425 31.8374 27.1125 32.3999 28.575 31.8374C28.6875 31.7249 28.8 31.7249 28.9125 31.6124C28.35 30.1499 26.6625 29.5874 25.2 30.1499C25.0875 30.2624 24.975 30.2624 24.8625 30.3749ZM28.575 27.5624C27.3375 26.3249 27.1125 24.2999 28.125 22.8374C29.3625 24.1874 29.5875 26.0999 28.575 27.5624Z" fill="#7DC7A2"/>
<path d="M28.575 27.5625C29.7 28.575 31.3875 28.575 32.5125 27.5625C32.625 27.45 32.7375 27.3375 32.85 27.225C31.725 26.2125 30.0375 26.2125 28.9125 27.225C28.6875 27.3375 28.575 27.45 28.575 27.5625ZM31.1625 23.625C29.5875 22.8375 28.8 20.925 29.3625 19.2375C31.05 20.025 31.725 21.9375 31.1625 23.625Z" fill="#7DC7A2"/>
<path d="M31.1625 23.625C32.625 24.1875 34.3125 23.4 34.875 21.9375C34.875 21.825 34.9875 21.7125 34.9875 21.6C33.525 21.0375 31.8375 21.825 31.275 23.2875C31.275 23.4 31.1625 23.5125 31.1625 23.625ZM29.475 15.4125C31.1625 15.4125 32.4 16.7625 32.4 18.3375V18.7875C30.7125 18.7875 29.3625 17.4375 29.3625 15.8625V15.4125H29.475ZM32.4 18.7875V18.45C32.4 16.7625 33.75 15.525 35.325 15.525V15.75C35.4375 17.4375 34.0875 18.7875 32.4 18.7875ZM32.175 13.725C30.7125 14.2875 29.025 13.5 28.4625 12.0375C28.4625 11.925 28.35 11.8125 28.35 11.7C29.8125 11.1375 31.5 11.925 32.0625 13.3875C32.175 13.5 32.175 13.6125 32.175 13.725Z" fill="#7DC7A2"/>
<path d="M32.175 13.725C33.75 12.9375 34.5375 11.1375 33.975 9.44995C32.4 10.125 31.6125 12.0375 32.175 13.725ZM30.4875 9.11245C29.3625 10.125 27.675 10.125 26.55 9.11245C26.4375 8.99995 26.325 8.88745 26.2125 8.77495C27.3375 7.76245 29.025 7.76245 30.15 8.77495C30.2625 8.88745 30.375 8.99995 30.4875 9.11245ZM30.4875 9.11245C31.725 7.87495 31.95 5.84995 30.825 4.38745C29.5875 5.62495 29.3625 7.64995 30.4875 9.11245Z" fill="#7DC7A2"/>
<path d="M33.075 17.1C33.075 24.8625 27.675 31.3875 20.925 32.0625C20.25 32.175 19.6875 32.4 19.2375 32.85L18.45 33.525L16.0875 36L15.3 35.2125L17.6625 32.85L18.45 32.0625C19.125 31.3875 19.9125 31.05 20.8125 30.9375C27.1125 30.375 31.95 24.3 31.95 17.1C31.95 12.825 30.15 8.775 27 5.9625L27.7875 5.0625C31.1625 8.1 33.1875 12.4875 33.075 17.1Z" fill="#B79B7B"/>
<path d="M11.1375 30.375C11.925 28.8 11.475 26.775 10.0125 25.7625H10.125C9.33749 27.3375 9.78749 29.3625 11.1375 30.375Z" fill="#7DC7A2"/>
<path d="M11.1375 30.3749C10.575 31.8374 8.88749 32.3999 7.42499 31.8374C7.31249 31.7249 7.19999 31.7249 7.08749 31.6124C7.64999 30.1499 9.33749 29.5874 10.8 30.1499C10.9125 30.2624 11.025 30.2624 11.1375 30.3749ZM7.42499 27.5624C8.66249 26.3249 8.88749 24.2999 7.87499 22.8374C6.63749 24.1874 6.41249 26.0999 7.42499 27.5624Z" fill="#7DC7A2"/>
<path d="M7.42499 27.5625C6.29999 28.575 4.61249 28.575 3.48749 27.5625C3.37499 27.45 3.26249 27.3375 3.14999 27.225C4.27499 26.2125 5.96249 26.2125 7.08749 27.225C7.31249 27.3375 7.42499 27.45 7.42499 27.5625ZM4.83749 23.625C6.52499 22.8375 7.19999 20.925 6.63749 19.2375C4.94999 20.025 4.16249 21.9375 4.83749 23.625Z" fill="#7DC7A2"/>
<path d="M4.8375 23.625C3.375 24.1875 1.6875 23.4 1.125 21.9375C1.125 21.825 1.0125 21.7125 1.0125 21.6C2.475 21.0375 4.1625 21.825 4.725 23.2875C4.725 23.4 4.8375 23.5125 4.8375 23.625ZM3.6 18.7875V18.45C3.6 16.7625 4.95 15.525 6.6375 15.525V15.75C6.525 17.4375 5.175 18.7875 3.6 18.7875ZM0.5625 15.4125C2.25 15.4125 3.4875 16.7625 3.6 18.3375V18.7875C1.9125 18.7875 0.5625 17.4375 0.5625 15.8625V15.4125ZM3.825 13.725C5.2875 14.2875 6.975 13.5 7.5375 12.0375C7.5375 11.925 7.65 11.8125 7.65 11.7C6.075 11.1375 4.5 11.925 3.9375 13.3875C3.825 13.5 3.825 13.6125 3.825 13.725Z" fill="#7DC7A2"/>
<path d="M3.82501 13.725C2.25001 12.9375 1.46251 11.1375 2.02501 9.44995C3.60001 10.125 4.38751 12.0375 3.82501 13.725ZM5.51251 9.11245C6.63751 10.125 8.32501 10.125 9.45001 9.11245C9.56251 8.99995 9.67501 8.77495 9.78751 8.66245C8.66251 7.64995 6.97501 7.64995 5.85001 8.66245C5.73751 8.88745 5.62501 8.99995 5.51251 9.11245Z" fill="#7DC7A2"/>
<path d="M5.51251 9.11245C4.27501 7.76245 4.16251 5.84995 5.17501 4.38745C6.41251 5.62495 6.63751 7.64995 5.51251 9.11245Z" fill="#7DC7A2"/>
<path d="M17.7154 32.6981L16.92 33.4937L17.7155 34.2891L18.5109 33.4936L17.7154 32.6981Z" fill="#FF7907"/>
<path d="M18.2757 32.1349L17.4802 32.9304L18.2757 33.7259L19.0712 32.9304L18.2757 32.1349Z" fill="#FF7907"/>
<path d="M19.9125 36L16.7625 32.85C16.3125 32.4 15.75 32.0625 15.075 32.0625C8.21249 31.3875 2.92499 24.8625 2.92499 17.1C2.81249 12.4875 4.83749 8.1 8.21249 5.0625L8.99999 5.85C5.84999 8.6625 3.93749 12.825 4.04999 17.1C4.04999 24.1875 8.88749 30.375 15.1875 30.9375C16.0875 31.05 16.875 31.3875 17.55 32.0625L20.7 35.2125L19.9125 36Z" fill="#B79B7B"/>
<path d="M20.25 18.3376L18 17.2126L15.75 18.3376L16.2 15.8626L14.4 14.0626L16.875 13.7251L18 11.4751L19.125 13.7251L21.6 14.1751L19.8 15.8626L20.25 18.3376Z" fill="#FEE27D"/>
<path d="M21.6 14.1751L19.125 13.7251L18 11.4751L16.875 13.6126C16.875 13.7251 16.9875 14.0626 17.2125 14.2876C17.8875 15.0751 19.575 14.4001 19.6875 14.6251C19.8 14.8501 18.1125 15.3001 17.8875 16.4251C17.775 16.7626 17.8875 17.1001 18 17.3251L20.1375 18.4501L19.6875 15.9751L21.6 14.1751Z" fill="#FDDD5A"/>
<path d="M21.9375 20.5874H14.0625V21.7124H21.9375V20.5874Z" fill="#AEADB3"/>
<path d="M20.25 22.8374H15.75V23.9624H20.25V22.8374Z" fill="#AEADB3"/>
<path d="M27.5625 5.62512C26.1 6.07512 24.525 5.28762 24.075 3.82512C24.075 3.71262 23.9625 3.48762 23.9625 3.37512C25.425 2.92512 27 3.71262 27.45 5.17512C27.5625 5.28762 27.5625 5.40012 27.5625 5.62512Z" fill="#56BC8D"/>
<path d="M27.675 5.5124C27.1125 6.9749 25.425 7.5374 23.9625 6.9749C23.85 6.9749 23.7375 6.8624 23.625 6.7499C24.1875 5.2874 25.875 4.7249 27.3375 5.2874C27.45 5.3999 27.5625 5.5124 27.675 5.5124ZM27.675 5.5124C28.4625 3.9374 28.0125 1.9124 26.55 0.899902C25.7625 2.4749 26.2125 4.4999 27.675 5.5124Z" fill="#7DC7A2"/>
<path d="M8.54999 5.51257C10.0125 5.96257 11.5875 5.17507 12.0375 3.71257C12.0375 3.60007 12.15 3.37507 12.15 3.26257C10.6875 2.81257 9.11249 3.60007 8.66249 5.06257C8.54999 5.17507 8.54999 5.40007 8.54999 5.51257Z" fill="#56BC8D"/>
<path d="M8.43751 5.5124C9.00001 6.9749 10.6875 7.5374 12.15 6.9749C12.2625 6.9749 12.375 6.8624 12.4875 6.7499C11.925 5.2874 10.2375 4.7249 8.77501 5.2874C8.66251 5.3999 8.55001 5.5124 8.43751 5.5124ZM8.43751 5.5124C7.65001 3.9374 8.10001 1.9124 9.56251 0.899902C10.35 2.4749 9.90001 4.4999 8.43751 5.5124Z" fill="#7DC7A2"/>
</svg>
