<svg width="36" height="36" viewBox="0 0 36 36" fill="none" xmlns="http://www.w3.org/2000/svg">
<path d="M21.1067 11.5748C21.0032 11.3954 20.7738 11.334 20.5945 11.4375L13.4498 15.5625C13.2704 15.666 13.2089 15.8954 13.3125 16.0748L22.5247 32.0307C22.6744 32.2901 23.0528 32.2779 23.1856 32.0094L25.1613 28.0135C25.2284 27.8778 25.3705 27.7958 25.5216 27.8055L29.97 28.0924C30.2689 28.1117 30.4687 27.7901 30.3189 27.5307L21.1067 11.5748Z" fill="#C52229"/>
<path fill-rule="evenodd" clip-rule="evenodd" d="M20.2194 10.7881L13.0747 14.9131C12.5367 15.2238 12.3523 15.9118 12.663 16.4499L21.8751 32.4058C22.3244 33.184 23.4596 33.1474 23.8578 32.3419L25.7228 28.5702L29.9217 28.841C30.8184 28.8988 31.4176 27.934 30.9684 27.1558L21.7562 11.1999C21.4456 10.6618 20.7575 10.4774 20.2194 10.7881ZM20.5944 11.4376C20.7738 11.3341 21.0031 11.3956 21.1067 11.5749L30.3189 27.5308C30.4686 27.7902 30.2688 28.1118 29.97 28.0925L25.5216 27.8056C25.3705 27.7959 25.2284 27.878 25.1613 28.0136L23.1855 32.0095C23.0528 32.278 22.6744 32.2902 22.5246 32.0308L13.3125 16.0749C13.2089 15.8956 13.2704 15.6662 13.4497 15.5626L20.5944 11.4376Z" fill="#9B0F15"/>
<path fill-rule="evenodd" clip-rule="evenodd" d="M19.2447 24.8145C19.4249 24.7123 19.6538 24.7756 19.7559 24.9557L23.1309 30.9089C23.233 31.089 23.1698 31.3179 22.9896 31.42C22.8095 31.5222 22.5806 31.4589 22.4784 31.2788L19.1034 25.3256C19.0013 25.1455 19.0646 24.9166 19.2447 24.8145Z" fill="#DF3840"/>
<path d="M26.8523 23.8214C26.6684 23.9276 26.4353 23.8682 26.3317 23.6888C26.2281 23.5094 26.2932 23.2779 26.4771 23.1718C26.661 23.0656 26.8941 23.125 26.9977 23.3044C27.1013 23.4838 27.0362 23.7153 26.8523 23.8214ZM26.1123 22.7273C25.8835 22.8594 25.5936 22.7855 25.4648 22.5623C25.3359 22.3392 25.4169 22.0512 25.6457 21.9191C25.8744 21.7871 26.1643 21.8609 26.2932 22.0841C26.422 22.3073 26.341 22.5952 26.1123 22.7273ZM25.5103 24.4229C25.2816 24.5549 24.9917 24.4811 24.8628 24.2579C24.734 24.0347 24.815 23.7467 25.0437 23.6147C25.2725 23.4826 25.5623 23.5565 25.6912 23.7796C25.82 24.0028 25.7391 24.2908 25.5103 24.4229ZM26.6081 25.0209C26.4937 25.087 26.3488 25.05 26.2844 24.9385C26.2199 24.8269 26.2604 24.6829 26.3748 24.6168C26.4892 24.5508 26.6341 24.5877 26.6985 24.6993C26.763 24.8109 26.7225 24.9549 26.6081 25.0209ZM25.017 23.0903C24.9026 23.1563 24.7577 23.1194 24.6932 23.0078C24.6288 22.8962 24.6693 22.7522 24.7837 22.6862C24.8981 22.6201 25.043 22.6571 25.1075 22.7686C25.1719 22.8802 25.1314 23.0242 25.017 23.0903ZM25.6339 21.233C25.5195 21.299 25.3746 21.2621 25.3101 21.1505C25.2457 21.0389 25.2862 20.8949 25.4006 20.8289C25.515 20.7629 25.6599 20.7998 25.7243 20.9114C25.7888 21.023 25.7483 21.167 25.6339 21.233ZM25.0458 25.6535C24.9315 25.7196 24.7865 25.6826 24.7221 25.5711C24.6576 25.4595 24.6981 25.3155 24.8125 25.2494C24.9269 25.1834 25.0719 25.2203 25.1363 25.3319C25.2007 25.4435 25.1602 25.5875 25.0458 25.6535ZM29.3155 27.5236C29.2011 27.5896 29.0562 27.5527 28.9917 27.4411C28.9273 27.3295 28.9678 27.1855 29.0822 27.1195C29.1966 27.0535 29.3415 27.0904 29.4059 27.202C29.4704 27.3136 29.4299 27.4576 29.3155 27.5236ZM27.8549 24.7422C27.7406 24.8083 27.5956 24.7714 27.5312 24.6598C27.4668 24.5482 27.5073 24.4042 27.6216 24.3382C27.736 24.2721 27.881 24.309 27.9454 24.4206C28.0098 24.5322 27.9693 24.6762 27.8549 24.7422ZM26.1531 26.3148C25.967 26.4223 25.7311 26.3622 25.6262 26.1806C25.5214 25.999 25.5873 25.7647 25.7735 25.6572C25.9596 25.5497 26.1955 25.6098 26.3003 25.7914C26.4052 25.973 26.3393 26.2073 26.1531 26.3148ZM27.7885 25.8089C27.6024 25.9164 27.3665 25.8563 27.2616 25.6747C27.1568 25.4931 27.2227 25.2587 27.4088 25.1513C27.595 25.0438 27.8309 25.1039 27.9357 25.2855C28.0406 25.4671 27.9747 25.7014 27.7885 25.8089ZM27.7167 27.1022C27.5306 27.2096 27.2947 27.1495 27.1899 26.968C27.085 26.7863 27.1509 26.552 27.3371 26.4445C27.5232 26.3371 27.7591 26.3972 27.864 26.5788C27.9688 26.7604 27.9029 26.9947 27.7167 27.1022ZM28.9404 26.3986C28.826 26.4646 28.6811 26.4277 28.6166 26.3161C28.5522 26.2045 28.5927 26.0605 28.7071 25.9945C28.8215 25.9285 28.9664 25.9654 29.0309 26.077C29.0953 26.1886 29.0548 26.3326 28.9404 26.3986Z" fill="#AA161D"/>
<path fill-rule="evenodd" clip-rule="evenodd" d="M25.5158 27.1271C25.5318 26.9206 25.7121 26.7662 25.9186 26.7821L29.5514 27.0634C29.7579 27.0794 29.9124 27.2597 29.8964 27.4662C29.8804 27.6727 29.7 27.8272 29.4935 27.8112L25.8607 27.5299C25.6542 27.5139 25.4998 27.3336 25.5158 27.1271Z" fill="#DF3840"/>
<path d="M15.1875 11.5748C15.291 11.3954 15.5204 11.334 15.6998 11.4375L22.8445 15.5625C23.0238 15.666 23.0853 15.8954 22.9817 16.0748L13.7696 32.0307C13.6198 32.2901 13.2414 32.2779 13.1087 32.0094L11.1329 28.0135C11.0658 27.8778 10.9237 27.7958 10.7726 27.8055L6.32423 28.0924C6.02536 28.1117 5.8256 27.7901 5.97537 27.5307L15.1875 11.5748Z" fill="#F1333B"/>
<path fill-rule="evenodd" clip-rule="evenodd" d="M16.0748 10.7881L23.2195 14.9131C23.7576 15.2238 23.942 15.9118 23.6313 16.4499L14.4191 32.4058C13.9699 33.184 12.8347 33.1474 12.4364 32.3419L10.5715 28.5702L6.37258 28.841C5.47592 28.8988 4.87663 27.934 5.32588 27.1558L14.5381 11.1999C14.8487 10.6618 15.5368 10.4774 16.0748 10.7881ZM15.6998 11.4376C15.5204 11.3341 15.2911 11.3956 15.1876 11.5749L5.97542 27.5308C5.82565 27.7902 6.02541 28.1118 6.32432 28.0925L10.7727 27.8056C10.9238 27.7959 11.0659 27.878 11.133 28.0136L13.1087 32.0095C13.2415 32.278 13.6199 32.2902 13.7696 32.0308L22.9818 16.0749C23.0854 15.8955 23.0239 15.6662 22.8445 15.5626L15.6998 11.4376Z" fill="#9B0F15"/>
<path fill-rule="evenodd" clip-rule="evenodd" d="M15.7504 11.8394C15.9296 11.9432 15.9908 12.1726 15.887 12.3518L7.05107 27.6096C6.94727 27.7888 6.71784 27.85 6.53863 27.7462C6.35942 27.6424 6.29826 27.413 6.40206 27.2338L15.238 11.9759C15.3418 11.7967 15.5712 11.7356 15.7504 11.8394ZM11.6261 27.7168C11.8126 27.6268 12.0368 27.7051 12.1268 27.8916L13.744 31.2431C13.834 31.4297 13.7558 31.6538 13.5692 31.7438C13.3827 31.8338 13.1585 31.7556 13.0685 31.5691L11.4513 28.2175C11.3613 28.031 11.4396 27.8068 11.6261 27.7168Z" fill="#FE666D"/>
<path d="M28.125 13.125C28.125 18.7169 23.5919 23.25 18 23.25C12.4081 23.25 7.875 18.7169 7.875 13.125C7.875 7.53311 12.4081 3 18 3C23.5919 3 28.125 7.53311 28.125 13.125Z" fill="#BCCCD2"/>
<path fill-rule="evenodd" clip-rule="evenodd" d="M28.875 13.125C28.875 19.1311 24.0061 24 18 24C11.9939 24 7.125 19.1311 7.125 13.125C7.125 7.11889 11.9939 2.25 18 2.25C24.0061 2.25 28.875 7.11889 28.875 13.125ZM18 23.25C23.5919 23.25 28.125 18.7169 28.125 13.125C28.125 7.53311 23.5919 3 18 3C12.4081 3 7.875 7.53311 7.875 13.125C7.875 18.7169 12.4081 23.25 18 23.25Z" fill="#81A5B0"/>
<path fill-rule="evenodd" clip-rule="evenodd" d="M8.625 13.5C8.41789 13.5 8.25 13.3321 8.25 13.125C8.25 7.74022 12.6152 3.375 18 3.375C18.2071 3.375 18.375 3.54289 18.375 3.75C18.375 3.95711 18.2071 4.125 18 4.125C13.0294 4.125 9 8.15445 9 13.125C9 13.3321 8.83211 13.5 8.625 13.5Z" fill="#D0DEE3"/>
<path fill-rule="evenodd" clip-rule="evenodd" d="M27.375 12.75C27.5821 12.75 27.75 12.9179 27.75 13.125C27.75 18.5098 23.3848 22.875 18 22.875C17.7929 22.875 17.625 22.7071 17.625 22.5C17.625 22.2929 17.7929 22.125 18 22.125C22.9706 22.125 27 18.0956 27 13.125C27 12.9179 27.1679 12.75 27.375 12.75Z" fill="#A2B9C1"/>
<path d="M25.5 13.125C25.5 17.2671 22.1421 20.625 18 20.625C13.8579 20.625 10.5 17.2671 10.5 13.125C10.5 8.98286 13.8579 5.625 18 5.625C22.1421 5.625 25.5 8.98286 25.5 13.125Z" fill="#D2E2E7"/>
<path fill-rule="evenodd" clip-rule="evenodd" d="M26.25 13.125C26.25 17.6814 22.5564 21.375 18 21.375C13.4436 21.375 9.75 17.6814 9.75 13.125C9.75 8.56864 13.4436 4.875 18 4.875C22.5564 4.875 26.25 8.56864 26.25 13.125ZM18 20.625C22.1421 20.625 25.5 17.2671 25.5 13.125C25.5 8.98286 22.1421 5.625 18 5.625C13.8579 5.625 10.5 8.98286 10.5 13.125C10.5 17.2671 13.8579 20.625 18 20.625Z" fill="#81A5B0"/>
<path fill-rule="evenodd" clip-rule="evenodd" d="M18 19.5C21.5208 19.5 24.375 16.6458 24.375 13.125C24.375 12.9179 24.5429 12.75 24.75 12.75C24.9571 12.75 25.125 12.9179 25.125 13.125C25.125 17.06 21.935 20.25 18 20.25C17.7929 20.25 17.625 20.0821 17.625 19.875C17.625 19.6679 17.7929 19.5 18 19.5Z" fill="#BAD0D7"/>
<path fill-rule="evenodd" clip-rule="evenodd" d="M18 6.75C14.4792 6.75 11.625 9.6042 11.625 13.125C11.625 13.3321 11.4571 13.5 11.25 13.5C11.0429 13.5 10.875 13.3321 10.875 13.125C10.875 9.18998 14.065 6 18 6C18.2071 6 18.375 6.16789 18.375 6.375C18.375 6.58211 18.2071 6.75 18 6.75Z" fill="#E1F4FA"/>
<path d="M16.408 11.808C16.4293 11.2373 16.616 10.7973 16.968 10.488C17.32 10.1787 17.7973 10.024 18.4 10.024C18.8 10.024 19.1413 10.0933 19.424 10.232C19.712 10.3707 19.928 10.56 20.072 10.8C20.2213 11.04 20.296 11.3093 20.296 11.608C20.296 11.96 20.208 12.248 20.032 12.472C19.856 12.6907 19.6507 12.84 19.416 12.92V12.952C19.72 13.0533 19.96 13.2213 20.136 13.456C20.312 13.6907 20.4 13.992 20.4 14.36C20.4 14.6907 20.3227 14.984 20.168 15.24C20.0187 15.4907 19.7973 15.688 19.504 15.832C19.216 15.976 18.872 16.048 18.472 16.048C17.832 16.048 17.32 15.8907 16.936 15.576C16.5573 15.2613 16.3573 14.7867 16.336 14.152H17.664C17.6693 14.3867 17.736 14.5733 17.864 14.712C17.992 14.8453 18.1787 14.912 18.424 14.912C18.632 14.912 18.792 14.8533 18.904 14.736C19.0213 14.6133 19.08 14.4533 19.08 14.256C19.08 14 18.9973 13.816 18.832 13.704C18.672 13.5867 18.4133 13.528 18.056 13.528H17.8V12.416H18.056C18.328 12.416 18.5467 12.3707 18.712 12.28C18.8827 12.184 18.968 12.016 18.968 11.776C18.968 11.584 18.9147 11.4347 18.808 11.328C18.7013 11.2213 18.5547 11.168 18.368 11.168C18.1653 11.168 18.0133 11.2293 17.912 11.352C17.816 11.4747 17.76 11.6267 17.744 11.808H16.408Z" fill="#FF1111"/>
</svg>
