<svg width="36" height="36" viewBox="0 0 36 36" fill="none" xmlns="http://www.w3.org/2000/svg">
<path d="M18.3583 1.85175L19.6273 3.27769C19.6967 3.3556 19.7896 3.40875 19.8919 3.42905C19.9943 3.44935 20.1004 3.43571 20.1943 3.39019L21.9128 2.55825C21.9737 2.52878 22.0401 2.51252 22.1077 2.51055C22.1754 2.50857 22.2427 2.52093 22.3052 2.5468C22.3677 2.57267 22.4241 2.61147 22.4705 2.66066C22.517 2.70984 22.5525 2.7683 22.5748 2.83219L23.2014 4.63557C23.2357 4.73418 23.3012 4.81891 23.388 4.87688C23.4748 4.93485 23.5782 4.9629 23.6824 4.95675L25.5881 4.84425C25.6557 4.84024 25.7233 4.85058 25.7865 4.87461C25.8498 4.89863 25.9072 4.93578 25.955 4.98362C26.0028 5.03145 26.04 5.08888 26.064 5.15212C26.088 5.21536 26.0984 5.28298 26.0944 5.3505L25.9819 7.25625C25.9757 7.36046 26.0038 7.46382 26.0618 7.55063C26.1197 7.63744 26.2045 7.70295 26.3031 7.73719L28.1064 8.36382C28.1704 8.38602 28.2289 8.42151 28.2781 8.46797C28.3274 8.51442 28.3662 8.57078 28.3921 8.63333C28.418 8.69588 28.4303 8.7632 28.4283 8.83086C28.4263 8.89852 28.4099 8.96499 28.3804 9.02588L27.549 10.7443C27.5033 10.8382 27.4896 10.9444 27.5099 11.0467C27.5302 11.1491 27.5834 11.242 27.6615 11.3113L29.0874 12.5803C29.138 12.6253 29.1784 12.6805 29.2061 12.7423C29.2338 12.804 29.2481 12.8709 29.2481 12.9386C29.2481 13.0063 29.2338 13.0732 29.2061 13.135C29.1784 13.1967 29.138 13.2519 29.0874 13.2969L27.6632 14.5688C27.5852 14.6382 27.5319 14.7312 27.5116 14.8336C27.4913 14.9361 27.505 15.0424 27.5507 15.1363L28.3821 16.8542C28.4116 16.9151 28.428 16.9816 28.43 17.0492C28.432 17.1169 28.4197 17.1842 28.3938 17.2467C28.3679 17.3093 28.3291 17.3657 28.2798 17.4121C28.2306 17.4586 28.1721 17.4941 28.1081 17.5163L26.3048 18.1429C26.2061 18.1771 26.1214 18.2426 26.0634 18.3294C26.0055 18.4162 25.9774 18.5196 25.9836 18.6238L26.0961 20.5296C26.0999 20.5971 26.0894 20.6646 26.0653 20.7277C26.0413 20.7909 26.0041 20.8483 25.9563 20.8961C25.9085 20.9439 25.8512 20.981 25.788 21.0051C25.7248 21.0292 25.6573 21.0396 25.5898 21.0358L23.6813 20.925C23.577 20.9189 23.4736 20.947 23.3867 21.0051C23.2999 21.0632 23.2345 21.148 23.2003 21.2468L22.5737 23.0468C22.5515 23.1107 22.516 23.1692 22.4695 23.2185C22.4231 23.2677 22.3667 23.3065 22.3042 23.3324C22.2416 23.3583 22.1743 23.3706 22.1066 23.3686C22.039 23.3666 21.9725 23.3503 21.9116 23.3207L20.1938 22.4916C20.0999 22.446 19.9937 22.4324 19.8914 22.4527C19.789 22.473 19.6961 22.5262 19.6268 22.6041L18.3583 24.03C18.3133 24.0805 18.2581 24.121 18.1964 24.1487C18.1346 24.1764 18.0677 24.1907 18 24.1907C17.9323 24.1907 17.8654 24.1764 17.8037 24.1487C17.7419 24.121 17.6867 24.0805 17.6417 24.03L16.3727 22.6041C16.3033 22.5262 16.2104 22.473 16.1081 22.4527C16.0057 22.4324 15.8996 22.446 15.8057 22.4916L14.0873 23.3229C14.0264 23.3525 13.9599 23.3688 13.8922 23.3709C13.8246 23.3729 13.7572 23.3605 13.6947 23.3347C13.6322 23.3088 13.5758 23.2699 13.5293 23.2207C13.4829 23.1715 13.4474 23.113 13.4252 23.049L12.7986 21.249C12.7649 21.1501 12.6997 21.0649 12.6131 21.0064C12.5265 20.9479 12.4231 20.9193 12.3188 20.925L10.413 21.0375C10.3455 21.0413 10.278 21.0309 10.2148 21.0068C10.1517 20.9827 10.0943 20.9455 10.0465 20.8977C9.99872 20.8499 9.96156 20.7926 9.93747 20.7294C9.91339 20.6663 9.90292 20.5987 9.90675 20.5313L10.0193 18.6255C10.0254 18.5213 9.99735 18.4179 9.93938 18.3311C9.8814 18.2443 9.79667 18.1788 9.69806 18.1446L7.89188 17.5157C7.82793 17.4935 7.76941 17.458 7.72017 17.4115C7.67094 17.3651 7.6321 17.3087 7.60622 17.2462C7.58034 17.1836 7.568 17.1163 7.57002 17.0487C7.57204 16.981 7.58837 16.9145 7.61794 16.8536L8.44931 15.1358C8.49497 15.0418 8.50869 14.9355 8.48838 14.8331C8.46807 14.7306 8.41485 14.6376 8.33681 14.5682L6.91088 13.2992C6.86033 13.2542 6.81989 13.199 6.79219 13.1372C6.76449 13.0755 6.75018 13.0086 6.75018 12.9409C6.75018 12.8732 6.76449 12.8063 6.79219 12.7445C6.81989 12.6828 6.86033 12.6276 6.91088 12.5826L8.33681 11.3136C8.41488 11.2443 8.46814 11.1514 8.48845 11.049C8.50877 10.9466 8.49502 10.8404 8.44931 10.7466L7.61794 9.02813C7.58837 8.96724 7.57204 8.90077 7.57002 8.83311C7.568 8.76545 7.58034 8.69813 7.60622 8.63558C7.6321 8.57303 7.67094 8.51667 7.72017 8.47022C7.76941 8.42376 7.82793 8.38827 7.89188 8.36607L9.69525 7.73944C9.79386 7.7052 9.87859 7.63969 9.93656 7.55288C9.99454 7.46607 10.0226 7.36271 10.0164 7.2585L9.90394 5.35275C9.89992 5.28523 9.91027 5.21761 9.93429 5.15437C9.95831 5.09113 9.99546 5.0337 10.0433 4.98587C10.0911 4.93803 10.1486 4.90088 10.2118 4.87686C10.275 4.85283 10.3427 4.84249 10.4102 4.8465L12.3159 4.959C12.4201 4.96515 12.5235 4.9371 12.6103 4.87913C12.6971 4.82116 12.7626 4.73643 12.7969 4.63782L13.4235 2.83444C13.4458 2.77055 13.4813 2.71209 13.5278 2.66291C13.5743 2.61372 13.6306 2.57492 13.6931 2.54905C13.7556 2.52318 13.8229 2.51082 13.8906 2.5128C13.9582 2.51477 14.0247 2.53103 14.0856 2.5605L15.8063 3.39075C15.9001 3.43627 16.0063 3.44992 16.1086 3.42961C16.211 3.40931 16.3039 3.35617 16.3733 3.27825L17.6423 1.85232C17.6872 1.80183 17.7424 1.76142 17.804 1.73373C17.8657 1.70604 17.9325 1.6917 18.0002 1.69165C18.0678 1.6916 18.1346 1.70583 18.1963 1.73342C18.2581 1.76102 18.3133 1.80134 18.3583 1.85175Z" fill="#FF6283"/>
<path d="M26.2778 18.1569C24.4069 18.6834 22.4296 18.7019 20.5492 18.2106C18.6689 17.7194 16.9533 16.736 15.579 15.3618C14.2048 13.9875 13.2215 12.272 12.7302 10.3916C12.2389 8.51122 12.2575 6.53392 12.7839 4.66309C12.7462 4.75431 12.681 4.83159 12.5975 4.88427C12.514 4.93696 12.4162 4.96246 12.3176 4.95727L10.4119 4.84477C10.3443 4.84076 10.2767 4.8511 10.2135 4.87513C10.1503 4.89915 10.0928 4.9363 10.045 4.98413C9.99715 5.03197 9.96 5.0894 9.93598 5.15264C9.91196 5.21588 9.90161 5.28349 9.90563 5.35102L10.0181 7.25677C10.0243 7.36098 9.99623 7.46434 9.93825 7.55115C9.88028 7.63796 9.79555 7.70346 9.69694 7.73771L7.89188 8.36602C7.82793 8.38822 7.76941 8.42372 7.72017 8.47017C7.67094 8.51663 7.6321 8.57298 7.60622 8.63553C7.58034 8.69808 7.568 8.7654 7.57002 8.83307C7.57204 8.90073 7.58837 8.96719 7.61794 9.02809L8.44931 10.7465C8.49502 10.8404 8.50877 10.9466 8.48845 11.0489C8.46814 11.1513 8.41488 11.2442 8.33681 11.3135L6.91088 12.5825C6.86033 12.6275 6.81989 12.6827 6.79219 12.7445C6.76449 12.8062 6.75018 12.8732 6.75018 12.9408C6.75018 13.0085 6.76449 13.0754 6.79219 13.1372C6.81989 13.1989 6.86033 13.2541 6.91088 13.2991L8.33681 14.5687C8.41485 14.6381 8.46807 14.7311 8.48838 14.8336C8.50869 14.9361 8.49497 15.0423 8.44931 15.1363L7.61794 16.8541C7.58837 16.915 7.57204 16.9815 7.57002 17.0492C7.568 17.1168 7.58034 17.1842 7.60622 17.2467C7.6321 17.3093 7.67094 17.3656 7.72017 17.4121C7.76941 17.4585 7.82793 17.494 7.89188 17.5162L9.69525 18.1428C9.79386 18.1771 9.87859 18.2426 9.93656 18.3294C9.99454 18.4162 10.0226 18.5196 10.0164 18.6238L9.90394 20.5295C9.90011 20.597 9.91057 20.6645 9.93466 20.7277C9.95875 20.7909 9.9959 20.8482 10.0437 20.896C10.0915 20.9438 10.1489 20.981 10.212 21.0051C10.2752 21.0291 10.3427 21.0396 10.4102 21.0358L12.3159 20.9233C12.4202 20.9172 12.5236 20.9453 12.6104 21.0034C12.6973 21.0615 12.7627 21.1463 12.7969 21.245L13.4235 23.045C13.4457 23.109 13.4812 23.1675 13.5277 23.2167C13.5741 23.266 13.6305 23.3048 13.693 23.3307C13.7556 23.3566 13.8229 23.3689 13.8905 23.3669C13.9582 23.3649 14.0247 23.3485 14.0856 23.319L15.8063 22.4915C15.9001 22.446 16.0063 22.4324 16.1086 22.4527C16.211 22.473 16.3039 22.5261 16.3733 22.604L17.6423 24.03C17.6873 24.0805 17.7425 24.1209 17.8042 24.1486C17.866 24.1763 17.9329 24.1907 18.0006 24.1907C18.0682 24.1907 18.1352 24.1763 18.1969 24.1486C18.2587 24.1209 18.3139 24.0805 18.3589 24.03L19.6279 22.604C19.6973 22.5261 19.7902 22.473 19.8925 22.4527C19.9948 22.4324 20.101 22.446 20.1949 22.4915L21.9133 23.3229C21.9742 23.3525 22.0407 23.3688 22.1083 23.3708C22.176 23.3728 22.2433 23.3605 22.3059 23.3346C22.3684 23.3087 22.4248 23.2699 22.4712 23.2207C22.5177 23.1714 22.5532 23.1129 22.5754 23.049L23.202 21.249C23.2357 21.1501 23.3007 21.065 23.3872 21.0065C23.4737 20.948 23.577 20.9194 23.6813 20.925L25.587 21.0375C25.6545 21.0413 25.722 21.0308 25.7852 21.0067C25.8483 20.9827 25.9057 20.9455 25.9535 20.8977C26.0013 20.8499 26.0384 20.7925 26.0625 20.7294C26.0866 20.6662 26.0971 20.5987 26.0933 20.5312L25.9808 18.6255C25.9753 18.5262 26.001 18.4276 26.0542 18.3436C26.1075 18.2596 26.1856 18.1944 26.2778 18.1569Z" fill="#EE1442"/>
<path d="M18 20.2534C22.0386 20.2534 25.3125 16.9795 25.3125 12.9409C25.3125 8.90234 22.0386 5.62842 18 5.62842C13.9614 5.62842 10.6875 8.90234 10.6875 12.9409C10.6875 16.9795 13.9614 20.2534 18 20.2534Z" fill="#FFEE80"/>
<path d="M21.375 16.8784C20.135 16.8804 18.915 16.5666 17.8299 15.9665C16.7448 15.3664 15.8304 14.4999 15.173 13.4485C14.5156 12.3971 14.1369 11.1956 14.0725 9.95732C14.0081 8.71902 14.2602 7.48473 14.805 6.37085C13.7565 6.87953 12.8449 7.63156 12.1462 8.56421C11.4475 9.49685 10.982 10.5831 10.7885 11.7322C10.5949 12.8814 10.679 14.0602 11.0337 15.1702C11.3884 16.2803 12.0034 17.2894 12.8274 18.1134C13.6515 18.9374 14.6606 19.5524 15.7706 19.9071C16.8807 20.2618 18.0595 20.3459 19.2086 20.1524C20.3578 19.9589 21.444 19.4933 22.3766 18.7946C23.3093 18.0959 24.0613 17.1843 24.57 16.1359C23.5755 16.6235 22.4827 16.8774 21.375 16.8784Z" fill="#FFDD00"/>
<path d="M18 18.0034C20.7959 18.0034 23.0625 15.7369 23.0625 12.9409C23.0625 10.145 20.7959 7.87842 18 7.87842C15.2041 7.87842 12.9375 10.145 12.9375 12.9409C12.9375 15.7369 15.2041 18.0034 18 18.0034Z" fill="#FFDD00"/>
<path d="M20.25 16.3158C19.3091 16.3168 18.3867 16.0552 17.5864 15.5604C16.7861 15.0657 16.1397 14.3574 15.7201 13.5153C15.3005 12.6732 15.1241 11.7307 15.211 10.7939C15.2979 9.857 15.6445 8.96299 16.2118 8.2124C15.4766 8.48869 14.8158 8.93237 14.2818 9.50829C13.7478 10.0842 13.3552 10.7766 13.1351 11.5305C12.915 12.2844 12.8735 13.0793 13.0138 13.8521C13.1541 14.6248 13.4724 15.3543 13.9435 15.9827C14.4146 16.6112 15.0256 17.1213 15.728 17.4727C16.4304 17.8241 17.205 18.0071 17.9904 18.0073C18.7758 18.0075 19.5505 17.8248 20.2531 17.4737C20.9556 17.1226 21.5668 16.6127 22.0382 15.9845C21.4672 16.2026 20.8612 16.3148 20.25 16.3158Z" fill="#FFAC0D"/>
<path d="M18 7.87842C17.2005 7.87848 16.4125 8.0683 15.7007 8.43227C14.9889 8.79624 14.3737 9.32396 13.9056 9.97205C14.8795 9.26313 16.0746 8.92523 17.2756 9.0192C18.4765 9.11317 19.6045 9.63283 20.4563 10.4846C21.3082 11.3364 21.8279 12.4643 21.922 13.6653C22.0161 14.8662 21.6783 16.0613 20.9694 17.0354C21.8359 16.4085 22.4814 15.5231 22.8132 14.5063C23.145 13.4896 23.146 12.3939 22.8161 11.3766C22.4862 10.3592 21.8424 9.47264 20.9771 8.84413C20.1117 8.21561 19.0695 7.87752 18 7.87842Z" fill="#FFAC0D"/>
<path d="M24.9075 20.996L23.6812 20.9251C23.577 20.919 23.4736 20.9472 23.3867 21.0052C23.2999 21.0633 23.2345 21.1482 23.2003 21.2469L22.5737 23.0469C22.5515 23.1108 22.516 23.1694 22.4695 23.2186C22.4231 23.2678 22.3667 23.3067 22.3042 23.3325C22.2416 23.3584 22.1743 23.3708 22.1066 23.3687C22.039 23.3667 21.9725 23.3504 21.9116 23.3208L20.1938 22.4917C20.0999 22.4462 19.9937 22.4325 19.8914 22.4528C19.789 22.4731 19.6961 22.5263 19.6267 22.6042L18.3583 24.0301C18.3133 24.0807 18.2581 24.1211 18.1964 24.1488C18.1346 24.1765 18.0677 24.1908 18 24.1908C17.9323 24.1908 17.8654 24.1765 17.8037 24.1488C17.7419 24.1211 17.6867 24.0807 17.6417 24.0301L17.6243 24.011L21.2422 33.9515C21.2771 34.0472 21.3376 34.1314 21.4172 34.195C21.4967 34.2585 21.5923 34.2989 21.6933 34.3117C21.7943 34.3244 21.8969 34.3091 21.9898 34.2674C22.0827 34.2257 22.1623 34.1592 22.2199 34.0753L24.1251 31.2999C24.1903 31.2047 24.2836 31.1322 24.3921 31.0927C24.5005 31.0532 24.6186 31.0485 24.7298 31.0794L27.9737 31.9794C28.0715 32.0066 28.175 32.0063 28.2727 31.9786C28.3704 31.951 28.4586 31.8969 28.5277 31.8225C28.5967 31.748 28.644 31.656 28.6642 31.5565C28.6845 31.457 28.677 31.3538 28.6425 31.2583L24.9075 20.996Z" fill="#FFDD00"/>
<path d="M18.3583 24.03C18.3133 24.0806 18.2581 24.121 18.1964 24.1487C18.1346 24.1764 18.0677 24.1907 18 24.1907C17.9323 24.1907 17.8654 24.1764 17.8036 24.1487C17.7419 24.121 17.6867 24.0806 17.6417 24.03L16.3727 22.6041C16.3033 22.5262 16.2104 22.473 16.1081 22.4527C16.0057 22.4324 15.8996 22.4461 15.8057 22.4916L14.0873 23.323C14.0264 23.3525 13.9599 23.3689 13.8922 23.3709C13.8246 23.3729 13.7572 23.3606 13.6947 23.3347C13.6321 23.3088 13.5758 23.27 13.5293 23.2207C13.4829 23.1715 13.4474 23.113 13.4252 23.049L12.7986 21.249C12.7649 21.1501 12.6997 21.0649 12.6131 21.0064C12.5265 20.9479 12.4231 20.9193 12.3188 20.925L11.0936 20.9965L7.3575 31.2582C7.32262 31.3538 7.31477 31.4572 7.33484 31.5569C7.3549 31.6567 7.40209 31.7491 7.47121 31.8238C7.54034 31.8985 7.62873 31.9527 7.72666 31.9804C7.8246 32.0081 7.92828 32.0083 8.02631 31.981L11.2703 31.081C11.3814 31.0501 11.4995 31.0548 11.6079 31.0943C11.7164 31.1338 11.8097 31.2063 11.8749 31.3015L13.7813 34.0752C13.8388 34.1591 13.9184 34.2256 14.0113 34.2673C14.1042 34.309 14.2068 34.3243 14.3078 34.3115C14.4088 34.2988 14.5044 34.2584 14.5839 34.1948C14.6635 34.1313 14.724 34.0471 14.7589 33.9514L18.3769 24.0109L18.3583 24.03Z" fill="#FFDD00"/>
<path d="M25.7327 23.2629L24.9075 20.996L23.6812 20.9251C23.577 20.919 23.4736 20.9472 23.3867 21.0052C23.2999 21.0633 23.2345 21.1482 23.2003 21.2469L22.5737 23.0469C22.5515 23.1108 22.516 23.1694 22.4695 23.2186C22.4231 23.2678 22.3667 23.3067 22.3042 23.3325C22.2416 23.3584 22.1743 23.3708 22.1066 23.3687C22.039 23.3667 21.9725 23.3504 21.9116 23.3208L20.1938 22.4917C20.0999 22.4462 19.9937 22.4325 19.8914 22.4528C19.789 22.4731 19.6961 22.5263 19.6267 22.6042L18.3583 24.0301C18.3133 24.0807 18.2581 24.1211 18.1964 24.1488C18.1346 24.1765 18.0677 24.1908 18 24.1908C17.9323 24.1908 17.8654 24.1765 17.8037 24.1488C17.7419 24.1211 17.6867 24.0807 17.6417 24.0301L17.6243 24.011L18.4236 26.2048L19.6273 24.8519C19.6967 24.774 19.7896 24.7209 19.8919 24.7006C19.9943 24.6803 20.1004 24.6939 20.1943 24.7394L21.9128 25.5708C21.9736 25.6004 22.0401 25.6167 22.1078 25.6187C22.1754 25.6208 22.2428 25.6084 22.3053 25.5825C22.3679 25.5567 22.4242 25.5178 22.4707 25.4686C22.5171 25.4194 22.5526 25.3608 22.5748 25.2969L23.2014 23.4969C23.2355 23.3984 23.3008 23.3137 23.3874 23.2556C23.474 23.1975 23.5772 23.1693 23.6812 23.1751L25.587 23.2876C25.6366 23.2873 25.6858 23.2789 25.7327 23.2629Z" fill="#FFAC0D"/>
<path d="M18.3583 24.03C18.3133 24.0806 18.2581 24.121 18.1963 24.1487C18.1346 24.1764 18.0677 24.1907 18 24.1907C17.9323 24.1907 17.8654 24.1764 17.8036 24.1487C17.7419 24.121 17.6867 24.0806 17.6417 24.03L16.3727 22.6041C16.3033 22.5262 16.2104 22.473 16.1081 22.4527C16.0057 22.4324 15.8996 22.4461 15.8057 22.4916L14.0872 23.323C14.0264 23.3525 13.9599 23.3689 13.8922 23.3709C13.8246 23.3729 13.7572 23.3606 13.6947 23.3347C13.6321 23.3088 13.5758 23.27 13.5293 23.2207C13.4829 23.1715 13.4474 23.113 13.4252 23.049L12.7986 21.249C12.7649 21.1501 12.6997 21.0649 12.6131 21.0064C12.5265 20.9479 12.4231 20.9193 12.3187 20.925L11.0936 20.9965L10.2684 23.2633C10.3151 23.2787 10.3639 23.2865 10.413 23.2864L12.3187 23.1739C12.423 23.1678 12.5264 23.1959 12.6133 23.254C12.7001 23.3121 12.7655 23.3969 12.7997 23.4957L13.4263 25.2957C13.4485 25.3596 13.484 25.4181 13.5305 25.4674C13.5769 25.5166 13.6333 25.5554 13.6958 25.5813C13.7584 25.6072 13.8257 25.6195 13.8934 25.6175C13.961 25.6155 14.0275 25.5992 14.0884 25.5696L15.8062 24.7416C15.9001 24.6961 16.0063 24.6824 16.1086 24.7027C16.211 24.723 16.3039 24.7762 16.3732 24.8541L17.577 26.2069L18.3763 24.0132L18.3583 24.03Z" fill="#FFAC0D"/>
<path d="M16.861 13.915C17.309 13.5277 17.6613 13.2103 17.918 12.963C18.1793 12.711 18.3963 12.4497 18.569 12.179C18.7417 11.9083 18.828 11.6377 18.828 11.367C18.828 11.087 18.7603 10.8677 18.625 10.709C18.4943 10.5503 18.2867 10.471 18.002 10.471C17.7267 10.471 17.512 10.5597 17.358 10.737C17.2087 10.9097 17.1293 11.143 17.12 11.437H16.35C16.364 10.905 16.5227 10.499 16.826 10.219C17.134 9.93433 17.5237 9.792 17.995 9.792C18.5037 9.792 18.9003 9.932 19.185 10.212C19.4743 10.492 19.619 10.8653 19.619 11.332C19.619 11.668 19.5327 11.9923 19.36 12.305C19.192 12.613 18.989 12.8907 18.751 13.138C18.5177 13.3807 18.219 13.663 17.855 13.985L17.54 14.265H19.759V14.93H16.357V14.349L16.861 13.915Z" fill="#F10E3E"/>
</svg>
