<svg width="202" height="202" viewBox="0 0 202 202" fill="none" xmlns="http://www.w3.org/2000/svg">
<path d="M76.611 148.45V86.8008C76.611 80.0152 82.1118 74.5144 88.8974 74.5144H141.304L136.827 78.5092C135.442 79.7448 134.334 81.2591 133.576 82.9529C132.817 84.6466 132.425 86.4816 132.425 88.3374V146.933C132.425 148.09 131.965 149.199 131.148 150.016C130.33 150.834 129.221 151.293 128.064 151.293H85.8529L76.611 148.45Z" fill="#FFF7E1"/>
<path d="M128.064 152.43H85.853C85.7398 152.43 85.6272 152.413 85.5189 152.379L76.2768 149.536C76.0445 149.464 75.8413 149.32 75.6969 149.125C75.5525 148.929 75.4746 148.693 75.4746 148.45V86.8006C75.4746 79.3995 81.4959 73.3782 88.8973 73.3782H141.304C141.535 73.3781 141.759 73.4481 141.949 73.5787C142.139 73.7093 142.284 73.8944 142.366 74.1095C142.448 74.3247 142.463 74.5597 142.408 74.7834C142.354 75.007 142.233 75.2089 142.061 75.3622L137.584 79.3568C136.319 80.4864 135.307 81.8702 134.614 83.4177C133.921 84.9652 133.562 86.6416 133.561 88.3373V146.933C133.56 148.39 132.98 149.787 131.949 150.818C130.919 151.848 129.522 152.428 128.064 152.43ZM86.0239 150.157H128.064C128.919 150.156 129.739 149.816 130.343 149.212C130.948 148.607 131.288 147.788 131.289 146.933V88.3373C131.29 86.3215 131.716 84.3285 132.54 82.4888C133.364 80.6491 134.567 79.0041 136.071 77.6613L138.324 75.6507H88.8973C82.7491 75.6507 77.7471 80.6526 77.7471 86.8006V147.61L86.0239 150.157Z" fill="#102770"/>
<path d="M117.133 97.689H91.5402C91.2389 97.689 90.9498 97.5693 90.7368 97.3562C90.5237 97.1431 90.404 96.8541 90.404 96.5528C90.404 96.2514 90.5237 95.9624 90.7368 95.7493C90.9498 95.5362 91.2389 95.4165 91.5402 95.4165H117.133C117.435 95.4165 117.724 95.5362 117.937 95.7493C118.15 95.9624 118.269 96.2514 118.269 96.5528C118.269 96.8541 118.15 97.1431 117.937 97.3562C117.724 97.5693 117.435 97.689 117.133 97.689ZM117.133 111.907H91.5402C91.2389 111.907 90.9498 111.788 90.7368 111.575C90.5237 111.362 90.404 111.073 90.404 110.771C90.404 110.47 90.5237 110.181 90.7368 109.968C90.9498 109.755 91.2389 109.635 91.5402 109.635H117.133C117.435 109.635 117.724 109.755 117.937 109.968C118.15 110.181 118.269 110.47 118.269 110.771C118.269 111.073 118.15 111.362 117.937 111.575C117.724 111.788 117.435 111.907 117.133 111.907ZM117.133 126.837H91.5402C91.2389 126.837 90.9498 126.717 90.7368 126.504C90.5237 126.291 90.404 126.002 90.404 125.7C90.404 125.399 90.5237 125.11 90.7368 124.897C90.9498 124.684 91.2389 124.564 91.5402 124.564H117.133C117.435 124.564 117.724 124.684 117.937 124.897C118.15 125.11 118.269 125.399 118.269 125.7C118.269 126.002 118.15 126.291 117.937 126.504C117.724 126.717 117.435 126.837 117.133 126.837Z" fill="#102770"/>
<path d="M132.418 95.9222H146.698C147.064 95.9222 147.425 95.8503 147.763 95.7105C148.1 95.5707 148.407 95.3658 148.665 95.1075C148.924 94.8492 149.128 94.5425 149.268 94.205C149.408 93.8675 149.48 93.5058 149.48 93.1405V83.1257C149.48 82.0054 149.259 80.8961 148.831 79.8611C148.402 78.826 147.774 77.8856 146.981 77.0934C146.189 76.3012 145.249 75.6728 144.214 75.2441C143.179 74.8154 142.069 74.5947 140.949 74.5947H140.949C139.829 74.5947 138.719 74.8154 137.684 75.2441C136.649 75.6728 135.709 76.3012 134.917 77.0934C134.124 77.8856 133.496 78.826 133.067 79.8611C132.639 80.8961 132.418 82.0054 132.418 83.1257V95.9222Z" fill="#FFF7E1"/>
<path d="M146.698 97.0585H132.418C132.269 97.0585 132.121 97.0291 131.983 96.972C131.845 96.9149 131.72 96.8312 131.615 96.7257C131.509 96.6202 131.425 96.4949 131.368 96.3571C131.311 96.2192 131.282 96.0715 131.282 95.9222V83.1256C131.282 77.795 135.618 73.4584 140.949 73.4584C146.28 73.4584 150.616 77.795 150.616 83.1256V93.1405C150.615 94.1793 150.202 95.1752 149.467 95.9097C148.733 96.6442 147.737 97.0573 146.698 97.0585ZM133.554 94.786H146.698C147.134 94.7855 147.553 94.6121 147.861 94.3036C148.17 93.9951 148.343 93.5768 148.344 93.1405V83.1256C148.344 79.0481 145.027 75.7309 140.949 75.7309C136.872 75.7309 133.554 79.0481 133.554 83.1256V94.786Z" fill="#102770"/>
<path d="M131.707 149.516C123.292 153.476 119.703 147.786 118.298 143.964C117.978 143.091 117.398 142.337 116.636 141.804C115.874 141.271 114.966 140.985 114.036 140.985H60.9708V140.985C60.9708 147.463 66.2226 152.715 72.701 152.715H126.27C127.379 152.715 128.468 152.419 129.424 151.856C130.38 151.294 131.168 150.486 131.707 149.516Z" fill="#FFF7E1"/>
<path d="M126.27 153.852H72.7008C65.6064 153.852 59.8347 148.08 59.8347 140.985C59.8347 140.836 59.8641 140.688 59.9212 140.55C59.9783 140.412 60.062 140.287 60.1675 140.182C60.273 140.076 60.3982 139.992 60.5361 139.935C60.674 139.878 60.8217 139.849 60.9709 139.849H114.036C115.198 139.852 116.331 140.211 117.283 140.876C118.236 141.542 118.962 142.483 119.365 143.573C120.109 145.599 121.526 148.231 124.046 149.265C126.005 150.069 128.42 149.808 131.223 148.488C131.441 148.386 131.685 148.355 131.921 148.4C132.157 148.446 132.373 148.565 132.537 148.74C132.701 148.916 132.806 149.139 132.835 149.377C132.864 149.616 132.817 149.858 132.7 150.068C132.063 151.214 131.131 152.17 130 152.835C128.87 153.5 127.582 153.851 126.27 153.852ZM62.1676 142.121C62.7362 147.431 67.243 151.579 72.7008 151.579H123.758C123.564 151.516 123.372 151.445 123.183 151.368C119.898 150.02 118.134 146.811 117.232 144.356C116.99 143.702 116.555 143.138 115.984 142.738C115.413 142.339 114.733 142.124 114.036 142.121H62.1676Z" fill="#102770"/>
<path opacity="0.3" d="M132.418 95.9222H146.698C147.064 95.9222 147.425 95.8503 147.763 95.7105C148.1 95.5707 148.407 95.3658 148.665 95.1075C148.924 94.8492 149.128 94.5425 149.268 94.205C149.408 93.8675 149.48 93.5058 149.48 93.1405V83.1257C149.48 82.0054 149.259 80.8961 148.831 79.8611C148.402 78.826 147.774 77.8856 146.981 77.0934C146.189 76.3012 145.249 75.6728 144.214 75.2441C143.179 74.8154 142.069 74.5947 140.949 74.5947H140.949C139.829 74.5947 138.719 74.8154 137.684 75.2441C136.649 75.6728 135.709 76.3012 134.917 77.0934C134.124 77.8856 133.496 78.826 133.067 79.8611C132.639 80.8961 132.418 82.0054 132.418 83.1257V95.9222Z" fill="#102770"/>
<path opacity="0.2" d="M131.707 149.516C123.292 153.476 119.703 147.786 118.298 143.964C117.978 143.091 117.398 142.337 116.636 141.804C115.874 141.271 114.966 140.985 114.036 140.985H60.9708V140.985C60.9708 147.463 66.2226 152.715 72.701 152.715H126.27C127.379 152.715 128.468 152.419 129.424 151.856C130.38 151.294 131.168 150.486 131.707 149.516Z" fill="#102770"/>
<path d="M65.7963 118.014C65.3192 118.018 64.8515 117.881 64.4515 117.621C64.0514 117.361 63.7366 116.989 63.5462 116.552L60.8898 110.575L54.4765 112.263C54.2688 112.318 54.0549 112.345 53.84 112.346C53.4251 112.344 53.0174 112.237 52.6547 112.036C52.292 111.834 51.9861 111.544 51.7652 111.193C51.5444 110.842 51.4158 110.44 51.3913 110.026C51.3669 109.612 51.4474 109.198 51.6255 108.824L59.322 92.6835C59.4441 92.4268 59.6581 92.2252 59.9216 92.1187C60.1852 92.0122 60.4791 92.0084 60.7453 92.1083L75.2364 97.5232C75.3819 97.5775 75.5146 97.6611 75.6265 97.7687C75.7384 97.8763 75.8271 98.0057 75.887 98.1489C75.9469 98.2922 75.9768 98.4462 75.9749 98.6014C75.973 98.7566 75.9393 98.9098 75.8758 99.0515L68.0444 116.557C67.8533 116.993 67.5385 117.364 67.1389 117.623C66.7394 117.882 66.2727 118.018 65.7965 118.014H65.7963Z" fill="#52CC99"/>
<path d="M60.3476 93.1724L74.8387 98.5875L67.0073 116.093C66.9026 116.327 66.7324 116.526 66.5173 116.665C66.3021 116.804 66.0512 116.878 65.795 116.878C65.5387 116.878 65.288 116.803 65.0732 116.663C64.8584 116.523 64.6887 116.324 64.5846 116.09L61.5356 109.23L54.1872 111.164C54.0738 111.194 53.9571 111.209 53.8398 111.21C52.9111 111.21 52.2197 110.22 52.6517 109.311L60.3476 93.1724ZM60.3481 90.8995C59.9187 90.8995 59.4981 91.0212 59.135 91.2503C58.7719 91.4795 58.4811 91.8068 58.2963 92.1943L50.6004 108.333C50.3396 108.881 50.2214 109.486 50.257 110.092C50.2925 110.698 50.4806 111.285 50.8038 111.799C51.127 112.312 51.5748 112.736 52.1056 113.03C52.6363 113.325 53.2329 113.48 53.8398 113.482C54.1523 113.482 54.4635 113.441 54.7657 113.361L60.2443 111.92L62.5079 117.013C62.7903 117.649 63.2508 118.189 63.8336 118.568C64.4165 118.947 65.0967 119.149 65.7921 119.15C66.4874 119.151 67.1681 118.951 67.7519 118.573C68.3357 118.195 68.7975 117.656 69.0815 117.021L76.9132 99.5155C77.04 99.2321 77.1073 98.9257 77.1111 98.6152C77.1149 98.3047 77.055 97.9968 76.9351 97.7103C76.8153 97.4239 76.638 97.1651 76.4143 96.9498C76.1905 96.7346 75.925 96.5674 75.6342 96.4587L61.143 91.0437C60.8888 90.9484 60.6195 90.8996 60.3481 90.8995Z" fill="#102770"/>
<path opacity="0.6" d="M53.6619 110.069L61.3575 93.93L74.693 98.9131L74.8387 98.5875L60.3475 93.1725L52.6519 109.311C52.249 110.158 52.8231 111.072 53.6546 111.193C53.5716 111.017 53.5292 110.825 53.5305 110.63C53.5317 110.436 53.5766 110.244 53.6619 110.069Z" fill="white"/>
<path opacity="0.3" d="M60.3475 93.1725L59.8411 94.2345C60.4567 95.5272 61.8446 98.9288 64.5681 101.376C67.5716 104.075 65.8557 109.126 61.8186 109.207C61.7085 109.209 61.5968 109.209 61.4838 109.206L61.4805 109.245L61.5355 109.23L64.5845 116.09C65.0506 117.139 66.5385 117.141 67.0072 116.093L74.8387 98.5875L60.3475 93.1725Z" fill="#102770"/>
<path d="M88.1882 118.014C87.712 118.018 87.2452 117.882 86.8456 117.623C86.446 117.364 86.1312 116.993 85.9401 116.557L78.1086 99.0516C77.9862 98.7782 77.9768 98.4674 78.0825 98.1871C78.1881 97.9067 78.4002 97.6794 78.6726 97.5546L92.6994 91.1297C92.9707 91.0051 93.2802 90.9924 93.5608 91.0944C93.8414 91.1963 94.0705 91.4047 94.1986 91.6744L102.359 108.823C102.537 109.198 102.617 109.612 102.593 110.026C102.569 110.44 102.44 110.842 102.219 111.193C101.999 111.544 101.693 111.834 101.33 112.036C100.967 112.237 100.56 112.344 100.145 112.346C99.9299 112.346 99.7161 112.318 99.5085 112.263L93.0949 110.575L90.4385 116.552C90.248 116.989 89.9332 117.361 89.5331 117.621C89.133 117.881 88.6653 118.018 88.1882 118.014Z" fill="#52CC99"/>
<path d="M93.1726 92.1625L101.333 109.312C101.765 110.22 101.073 111.21 100.145 111.21C100.028 111.209 99.9109 111.194 99.7975 111.164L92.4491 109.23L89.4001 116.09C89.296 116.325 89.1263 116.524 88.9115 116.663C88.6967 116.803 88.446 116.878 88.1897 116.878C87.9335 116.878 87.6826 116.804 87.4674 116.665C87.2523 116.526 87.0821 116.327 86.9775 116.093L79.1458 98.5876L93.1726 92.1625ZM93.1711 89.8895C92.8449 89.8896 92.5226 89.9602 92.2262 90.0964L78.1994 96.5215C77.6546 96.771 77.2305 97.2257 77.0192 97.7864C76.808 98.3472 76.8268 98.9686 77.0715 99.5156L84.9032 117.021C85.1871 117.656 85.6489 118.195 86.2326 118.573C86.8163 118.951 87.4971 119.151 88.1924 119.151C88.8878 119.15 89.568 118.947 90.1508 118.568C90.7337 118.189 91.1942 117.649 91.4766 117.014L93.7405 111.92L99.2193 113.362C99.5214 113.441 99.8325 113.482 100.145 113.482C100.752 113.48 101.348 113.325 101.879 113.031C102.409 112.737 102.857 112.313 103.18 111.8C103.503 111.286 103.692 110.699 103.727 110.094C103.763 109.488 103.645 108.883 103.385 108.335L95.2246 91.1861C95.04 90.7979 94.749 90.4701 94.3855 90.2406C94.0221 90.0111 93.601 89.8894 93.1711 89.8895Z" fill="#102770"/>
<path opacity="0.6" d="M87.7349 115.588L79.962 98.2136L79.1459 98.5875L86.9774 116.093C87.4058 117.051 88.6837 117.129 89.2564 116.334C88.9556 116.409 88.6381 116.375 88.3598 116.238C88.0815 116.102 87.8602 115.872 87.7349 115.588Z" fill="white"/>
<path opacity="0.3" d="M101.459 109.958C101.461 109.93 101.464 109.902 101.464 109.874C101.464 109.902 101.461 109.93 101.459 109.958ZM101.434 110.145C101.441 110.115 101.448 110.086 101.452 110.055C101.448 110.086 101.441 110.116 101.434 110.145ZM101.357 110.395C101.343 110.429 101.326 110.462 101.308 110.495C101.326 110.462 101.343 110.429 101.357 110.395ZM101.383 110.325C101.395 110.294 101.407 110.262 101.416 110.23C101.407 110.262 101.395 110.294 101.383 110.325ZM101.449 109.688C101.453 109.714 101.453 109.739 101.456 109.764C101.453 109.739 101.453 109.714 101.449 109.688ZM99.9268 111.188C100.17 111.005 100.343 110.743 100.415 110.447C100.487 110.151 100.455 109.839 100.323 109.564L92.2446 92.5875L79.1459 98.5875L80.8047 102.295C81.7826 102.337 84.0718 102.335 86.7921 101.653C89.1104 101.071 91.4939 102.418 92.1098 104.727C92.4949 106.171 92.6696 107.873 92.2628 109.649L92.449 109.23L99.7974 111.164C100.021 111.223 100.256 111.223 100.48 111.162C100.299 111.21 100.111 111.219 99.9268 111.188ZM101.406 109.5C101.412 109.521 101.415 109.542 101.421 109.562C101.415 109.542 101.412 109.521 101.406 109.5ZM100.941 110.932C100.899 110.964 100.856 110.994 100.811 111.021C100.856 110.994 100.899 110.964 100.941 110.932ZM101.211 110.652C101.235 110.619 101.258 110.585 101.279 110.55C101.258 110.585 101.235 110.619 101.211 110.652ZM100.96 110.917C100.998 110.886 101.034 110.854 101.069 110.819C101.034 110.854 100.998 110.886 100.96 110.917ZM101.094 110.794C101.125 110.761 101.155 110.727 101.182 110.691C101.154 110.727 101.125 110.761 101.094 110.794ZM100.799 111.028C100.751 111.056 100.702 111.081 100.651 111.103C100.702 111.081 100.751 111.056 100.799 111.028ZM100.645 111.105C100.592 111.128 100.537 111.146 100.481 111.162C100.537 111.147 100.592 111.128 100.645 111.105Z" fill="#102770"/>
<path d="M90.8553 95.9866C98.5116 88.3303 98.5116 75.917 90.8553 68.2607C83.199 60.6044 70.7857 60.6044 63.1294 68.2607C55.4731 75.917 55.4731 88.3303 63.1294 95.9866C70.7857 103.643 83.199 103.643 90.8553 95.9866Z" fill="#52CC99"/>
<path d="M76.9924 63.6547C87.1922 63.6547 95.4611 71.9235 95.4611 82.1236C95.4611 92.3237 87.1922 100.592 76.9924 100.592C66.7923 100.592 58.5234 92.3237 58.5234 82.1236C58.5234 71.9235 66.7923 63.6547 76.9924 63.6547ZM76.9924 61.3822C65.5554 61.3822 56.2509 70.6867 56.2509 82.1236C56.2509 93.5604 65.5554 102.865 76.9924 102.865C88.4291 102.865 97.7336 93.5604 97.7336 82.1236C97.7336 70.6867 88.4291 61.3822 76.9924 61.3822Z" fill="#102770"/>
<path opacity="0.3" d="M85.7898 65.8809C90.8501 69.1751 94.1986 74.8779 94.1986 81.3661C94.1986 91.5662 85.9298 99.835 75.7298 99.835C72.6573 99.8396 69.6327 99.0743 66.9322 97.6089C69.9243 99.56 73.4202 100.597 76.9923 100.592C87.1923 100.592 95.4611 92.3237 95.4611 82.1236C95.4611 75.1087 91.5501 69.0074 85.7898 65.8809Z" fill="#102770"/>
<path opacity="0.6" d="M59.2809 82.8811C59.2809 72.6811 67.5497 64.4123 77.7498 64.4123C82.4633 64.4071 86.999 66.211 90.4214 69.452C87.0541 65.8847 82.285 63.6548 76.9923 63.6548C66.7922 63.6548 58.5234 71.9236 58.5234 82.1236C58.5234 87.4164 60.7533 92.1855 64.3206 95.5528C61.0797 92.1303 59.2758 87.5946 59.2809 82.8811Z" fill="white"/>
<path d="M76.9923 97.5662C85.521 97.5662 92.4349 90.6523 92.4349 82.1236C92.4349 73.5949 85.521 66.681 76.9923 66.681C68.4636 66.681 61.5497 73.5949 61.5497 82.1236C61.5497 90.6523 68.4636 97.5662 76.9923 97.5662Z" fill="#52CC99"/>
<path d="M76.9924 98.1974C68.1292 98.1974 60.9184 90.9869 60.9184 82.1237C60.9184 73.2606 68.1292 66.0498 76.9924 66.0498C85.8555 66.0498 93.0661 73.2606 93.0661 82.1237C93.0661 90.9869 85.8555 98.1974 76.9924 98.1974ZM76.9924 67.3123C68.8253 67.3123 62.1809 73.9567 62.1809 82.1237C62.1809 90.2908 68.8253 96.9349 76.9924 96.9349C85.1594 96.9349 91.8036 90.2908 91.8036 82.1237C91.8036 73.9567 85.1594 67.3123 76.9924 67.3123Z" fill="#102770"/>
<path opacity="0.5" d="M94.559 59.4704L87.2667 53.7831L53.0673 97.6336L60.3595 103.321L94.559 59.4704Z" fill="url(#paint0_linear)"/>
<path opacity="0.5" d="M102.531 67.6161L98.5346 64.4994L64.3352 108.35L68.3315 111.467L102.531 67.6161Z" fill="url(#paint1_linear)"/>
<path opacity="0.1" d="M62.8122 83.891C62.8122 75.3623 69.7261 68.4484 78.2548 68.4484C80.5304 68.4462 82.7782 68.9479 84.8368 69.9176C86.8955 70.8873 88.7138 72.3009 90.1613 74.0568C87.4454 69.6326 82.5641 66.6809 76.9923 66.6809C68.4636 66.6809 61.5497 73.5948 61.5497 82.1235C61.5443 85.7139 62.7953 89.1929 65.0858 91.9577C63.5952 89.5314 62.808 86.7386 62.8122 83.891Z" fill="#102770"/>
<path d="M71.7328 92.0254C71.4106 92.0239 71.0934 91.9463 70.8068 91.7991C70.5203 91.6519 70.2725 91.4392 70.0836 91.1782C69.8965 90.9213 69.7737 90.6233 69.7252 90.3092C69.6768 89.9952 69.7042 89.674 69.8052 89.3727L71.2877 84.8105C71.3093 84.7442 71.3094 84.6729 71.2878 84.6066C71.2663 84.5404 71.2243 84.4827 71.1678 84.4418L67.2871 81.6224C66.9416 81.3713 66.6845 81.0173 66.5525 80.6111C66.4206 80.2049 66.4206 79.7674 66.5526 79.3612C66.6845 78.955 66.9417 78.601 67.2872 78.35C67.6327 78.0989 68.0488 77.9637 68.4759 77.9636H73.2729C73.3425 77.9638 73.4104 77.9418 73.4667 77.9009C73.523 77.86 73.5649 77.8023 73.5863 77.736L75.0688 73.1735C75.2008 72.7673 75.458 72.4134 75.8036 72.1623C76.1491 71.9113 76.5653 71.7761 76.9924 71.7761C77.4195 71.7761 77.8356 71.9113 78.1811 72.1623C78.5267 72.4134 78.7839 72.7673 78.9159 73.1735L80.3981 77.7358C80.4195 77.8021 80.4613 77.8599 80.5177 77.9008C80.574 77.9418 80.6419 77.9638 80.7116 77.9636H85.5086C85.9357 77.9636 86.3518 78.0988 86.6974 78.3499C87.0429 78.6009 87.3001 78.9549 87.4321 79.3611C87.5641 79.7673 87.5641 80.2049 87.4322 80.6111C87.3002 81.0173 87.0431 81.3713 86.6976 81.6224L82.8166 84.4418C82.7602 84.4826 82.7182 84.5403 82.6967 84.6065C82.6752 84.6727 82.6752 84.744 82.6968 84.8102L84.1792 89.3727C84.2802 89.674 84.3076 89.9952 84.2592 90.3092C84.2108 90.6233 84.0879 90.9213 83.9008 91.1782C83.712 91.4392 83.4642 91.652 83.1777 91.7992C82.8911 91.9464 82.5739 92.0239 82.2517 92.0254C81.8252 92.0241 81.4102 91.887 81.0669 91.6339L77.1859 88.8142C77.1296 88.7733 77.0617 88.7513 76.9921 88.7513C76.9224 88.7514 76.8546 88.7735 76.7983 88.8145L72.9178 91.6339C72.5745 91.887 72.1595 92.0242 71.733 92.0254H71.7328Z" fill="#F9B32F"/>
<path d="M76.9924 72.6226C77.2415 72.6192 77.4851 72.6965 77.6867 72.843C77.8883 72.9895 78.0371 73.1972 78.1109 73.4352L79.5931 77.9975C79.6698 78.2337 79.8194 78.4395 80.0203 78.5854C80.2212 78.7314 80.4632 78.8101 80.7116 78.8101H85.5086C86.648 78.8101 87.1217 80.268 86.2 80.9377L82.319 83.7573C82.1181 83.9033 81.9686 84.1091 81.8919 84.3453C81.8152 84.5815 81.8152 84.836 81.8919 85.0722L83.3741 89.6343C83.6424 90.4597 82.9868 91.1791 82.2517 91.1791C82.004 91.1778 81.7631 91.0973 81.5645 90.9492L77.6835 88.1297C77.4826 87.9837 77.2406 87.905 76.9922 87.905C76.7439 87.905 76.5019 87.9837 76.3009 88.1297L72.4202 90.9492C72.2216 91.0973 71.9808 91.1779 71.733 91.1791C70.9977 91.1791 70.342 90.4597 70.6103 89.6343L72.0928 85.0722C72.1695 84.8359 72.1695 84.5815 72.0927 84.3453C72.0159 84.1091 71.8664 83.9032 71.6654 83.7573L67.7847 80.9377C66.863 80.268 67.3367 78.8101 68.4759 78.8101H73.2729C73.5213 78.8101 73.7633 78.7315 73.9642 78.5855C74.1651 78.4395 74.3147 78.2337 74.3914 77.9975L75.8739 73.4352C75.9476 73.1972 76.0964 72.9895 76.298 72.843C76.4996 72.6965 76.7432 72.6192 76.9924 72.6226ZM76.9924 70.9298C76.3862 70.9287 75.7953 71.12 75.3049 71.4764C74.8145 71.8327 74.4499 72.3355 74.2637 72.9123L72.8974 77.1173H68.4759C67.87 77.1173 67.2797 77.3091 66.7896 77.6652C66.2995 78.0214 65.9346 78.5235 65.7474 79.0997C65.5602 79.6759 65.5603 80.2966 65.7475 80.8728C65.9348 81.449 66.2996 81.9511 66.7898 82.3072L70.3667 84.9062L69.0004 89.1112C68.8573 89.5394 68.8188 89.9957 68.8882 90.4418C68.9575 90.8879 69.1326 91.311 69.3989 91.6756C69.6664 92.0446 70.0172 92.3452 70.4228 92.5531C70.8284 92.761 71.2773 92.8703 71.733 92.872C72.3383 92.8711 72.9275 92.6773 73.4152 92.3187L76.9924 89.7199L80.5695 92.3187C81.0572 92.6773 81.6464 92.8711 82.2517 92.872C82.7074 92.8702 83.1562 92.761 83.5618 92.5531C83.9673 92.3453 84.3181 92.0447 84.5856 91.6757C84.8519 91.3111 85.027 90.888 85.0963 90.4419C85.1656 89.9957 85.1272 89.5394 84.9841 89.1112L83.618 84.9061L87.1949 82.3072C87.6851 81.9511 88.05 81.449 88.2372 80.8728C88.4245 80.2965 88.4245 79.6758 88.2372 79.0996C88.05 78.5234 87.6852 78.0212 87.195 77.6651C86.7048 77.309 86.1144 77.1172 85.5086 77.1173H81.0871L79.7208 72.9121C79.5345 72.3353 79.1699 71.8326 78.6796 71.4763C78.1892 71.1201 77.5985 70.9287 76.9924 70.9298Z" fill="#102770"/>
<path opacity="0.6" d="M79.942 78.6022C80.0187 78.8384 80.1683 79.0443 80.3692 79.1902C80.5701 79.3362 80.8121 79.4148 81.0605 79.4148H85.8575C86.1519 79.4113 86.4363 79.5213 86.6517 79.722C86.536 79.23 86.1195 78.8101 85.5086 78.8101H80.7117C80.4111 78.8096 80.1222 78.6939 79.9045 78.4867L79.942 78.6022ZM70.9592 90.2391L72.4416 85.6769C72.5107 85.463 72.5169 85.2338 72.4596 85.0165C72.4023 84.7992 72.2838 84.6029 72.1182 84.451C72.1659 84.6565 72.1571 84.8711 72.0927 85.0721L70.6104 89.6343C70.5379 89.8463 70.5292 90.0749 70.5853 90.2919C70.6414 90.5089 70.7598 90.7046 70.9259 90.855C70.8816 90.6504 70.8931 90.4377 70.9592 90.2391ZM68.8248 79.4148H73.6217C73.8701 79.4148 74.1121 79.3362 74.313 79.1902C74.514 79.0443 74.6635 78.8384 74.7403 78.6022L76.2226 74.04C76.5073 73.1637 77.564 72.9968 78.1442 73.538L78.1108 73.4352C77.7587 72.3517 76.2258 72.3517 75.8737 73.4352L74.3914 77.9974C74.3147 78.2336 74.1651 78.4395 73.9642 78.5854C73.7632 78.7314 73.5213 78.8101 73.2729 78.8101H68.4759C67.3865 78.8101 66.909 80.1414 67.675 80.8436C67.5326 80.1704 68.0044 79.4148 68.8248 79.4148Z" fill="white"/>
<path opacity="0.2" d="M77.0747 73.1879V82.5413L79.8513 78.5354L77.921 72.9941L77.0747 73.1879Z" fill="#102770"/>
<path opacity="0.2" d="M77.0747 82.5414L71.2417 91.0502L71.9025 91.6247L77.1353 88.1362L77.0747 82.5414Z" fill="#102770"/>
<path opacity="0.2" d="M67.3579 80.614L77.0747 82.5413L72.2561 84.4268L67.3579 80.614Z" fill="#102770"/>
<path opacity="0.2" d="M77.0747 82.5414L83.5789 91.2349L83.3857 88.9177L81.6597 84.5588L77.0747 82.5414Z" fill="#102770"/>
<path opacity="0.1" d="M77.0747 82.5413L86.2446 80.5239L81.6596 84.5587L77.0747 82.5413Z" fill="#102770"/>
<path d="M44.7091 92.6696C44.6009 92.6695 44.4954 92.6366 44.4063 92.5753C44.3173 92.5139 44.249 92.4269 44.2105 92.3259C43.4984 90.4587 42.5601 89.2608 41.5183 88.835C41.4239 89.2075 41.2937 89.57 41.1297 89.9175C40.8089 90.6008 40.2284 91.0991 39.5375 91.285C38.7731 91.4907 38.1056 91.2628 37.6588 90.6432C37.3895 90.2694 37.4014 89.7572 37.6914 89.2382C38.1574 88.404 39.289 87.6083 40.6124 87.5957C40.6799 85.2965 39.0767 83.4206 38.8205 83.1362C38.7968 83.1202 38.7729 83.1039 38.7492 83.0882C38.5172 83.8231 38.0687 84.4708 37.4625 84.9466C36.0277 86.076 34.5829 86.2844 33.2827 85.5486C32.8385 85.2943 32.4981 84.8917 32.3212 84.4114C32.1444 83.9311 32.1425 83.4038 32.3159 82.9222C32.706 81.8178 33.3971 81.0753 34.3149 80.7757C35.28 80.4603 36.4644 80.6463 37.8497 81.3273C37.7646 79.4937 37.1775 78.1161 36.1004 77.2264C33.9243 75.4291 30.4009 76.135 30.3659 76.1427C30.2275 76.1715 30.0833 76.1442 29.9649 76.0668C29.8466 75.9894 29.7639 75.8682 29.7349 75.7298C29.7058 75.5914 29.7329 75.4471 29.8102 75.3287C29.8875 75.2103 30.0086 75.1274 30.1469 75.0982C30.3112 75.0641 34.199 74.277 36.7753 76.3996C38.2294 77.5978 38.9534 79.459 38.9272 81.9317C39.1063 82.0436 39.2881 82.1628 39.4727 82.2892C39.5028 82.31 39.5308 82.3337 39.5563 82.36C39.6702 82.4786 41.8495 84.7928 41.6828 87.7597C42.8185 88.1251 44.1609 89.2009 45.2077 91.9456C45.2384 92.0264 45.249 92.1135 45.2387 92.1993C45.2283 92.2852 45.1973 92.3672 45.1483 92.4384C45.0992 92.5096 45.0337 92.5678 44.9572 92.6081C44.8807 92.6484 44.7955 92.6695 44.7091 92.6696ZM40.4553 88.6693C40.2868 88.6844 40.1204 88.7171 39.9587 88.7669C38.9835 89.0643 38.4868 89.8356 38.5332 90.0361C38.654 90.1988 38.8427 90.3665 39.2604 90.2543C39.6472 90.1503 39.9767 89.862 40.1636 89.4638C40.2842 89.2081 40.3818 88.9422 40.4553 88.6693ZM35.2951 81.6937C35.0751 81.6914 34.8561 81.7239 34.6463 81.7901C34.0471 81.9859 33.6018 82.4862 33.3224 83.2778C33.2327 83.523 33.2324 83.792 33.3213 84.0374C33.4103 84.2829 33.583 84.4891 33.8089 84.6199C34.7131 85.1318 35.7207 84.9597 36.8022 84.1083C37.3127 83.7076 37.6658 83.14 37.7996 82.505C36.8291 81.9677 35.9833 81.6937 35.2951 81.6937ZM156.324 115.679C156.237 115.679 156.151 115.657 156.074 115.616C155.998 115.576 155.932 115.517 155.883 115.445C155.834 115.373 155.804 115.29 155.794 115.204C155.784 115.117 155.796 115.03 155.828 114.949C156.991 112.003 158.451 110.877 159.672 110.511C159.514 107.323 161.889 104.861 162.012 104.735C162.038 104.709 162.066 104.686 162.097 104.665C162.303 104.528 162.505 104.398 162.705 104.277V104.227C162.713 101.588 163.515 99.6138 165.086 98.358C167.866 96.1365 172.001 97.0237 172.176 97.0632C172.314 97.094 172.434 97.1784 172.51 97.2978C172.586 97.4172 172.611 97.5618 172.58 97.6999C172.55 97.8379 172.465 97.9582 172.346 98.0341C172.227 98.1101 172.082 98.1356 171.944 98.105C171.885 98.0919 168.119 97.297 165.749 99.1949C164.55 100.155 163.892 101.663 163.787 103.684C165.3 102.95 166.585 102.757 167.622 103.109C168.592 103.438 169.317 104.236 169.718 105.415C169.895 105.926 169.887 106.483 169.694 106.988C169.501 107.493 169.137 107.915 168.664 108.177C167.283 108.939 165.756 108.705 164.25 107.502C163.587 106.972 163.106 106.249 162.872 105.433C162.828 105.461 162.784 105.49 162.739 105.52C162.469 105.814 160.688 107.851 160.746 110.358C162.169 110.373 163.377 111.24 163.866 112.139C164.163 112.687 164.17 113.221 163.886 113.607C163.409 114.252 162.705 114.484 161.902 114.258C161.173 114.053 160.565 113.518 160.234 112.791C160.057 112.404 159.919 112.001 159.823 111.587C158.88 111.932 157.776 112.921 156.821 115.341C156.781 115.44 156.713 115.526 156.624 115.586C156.536 115.646 156.431 115.679 156.324 115.679ZM160.888 111.434C160.965 111.748 161.071 112.054 161.205 112.348C161.406 112.789 161.766 113.111 162.191 113.231C162.662 113.364 162.878 113.175 163.027 112.973C163.092 112.792 162.62 111.974 161.623 111.596C161.387 111.507 161.139 111.452 160.888 111.434ZM163.831 104.861C163.966 105.573 164.351 106.214 164.917 106.668C166.075 107.593 167.162 107.787 168.149 107.243C168.402 107.1 168.596 106.874 168.698 106.602C168.801 106.331 168.804 106.033 168.708 105.759C168.413 104.893 167.933 104.341 167.279 104.119C166.436 103.833 165.259 104.089 163.831 104.861ZM147.473 50.2691C147.411 50.2689 147.35 50.2599 147.291 50.2422C147.131 50.194 146.996 50.084 146.917 49.9366C146.837 49.7891 146.82 49.6162 146.868 49.4558L147.88 46.0912C147.904 46.0118 147.943 45.9378 147.995 45.8735C148.048 45.8092 148.112 45.7558 148.185 45.7165C148.258 45.6772 148.338 45.6527 148.421 45.6443C148.503 45.6359 148.587 45.6439 148.666 45.6678C148.746 45.6917 148.82 45.731 148.884 45.7835C148.948 45.8359 149.001 45.9006 149.041 45.9736C149.08 46.0467 149.104 46.1268 149.113 46.2094C149.121 46.2919 149.113 46.3753 149.089 46.4547L148.077 49.8193C148.038 49.9492 147.958 50.0631 147.849 50.1441C147.741 50.2251 147.609 50.2689 147.473 50.2691ZM144.483 60.2105C144.422 60.2104 144.36 60.2013 144.301 60.1836C144.141 60.1354 144.006 60.0255 143.927 59.878C143.848 59.7306 143.83 59.5576 143.878 59.3973L144.89 56.0327C144.914 55.9532 144.953 55.8792 145.006 55.8149C145.058 55.7506 145.123 55.6973 145.196 55.658C145.269 55.6186 145.349 55.5941 145.431 55.5857C145.514 55.5774 145.597 55.5854 145.677 55.6093C145.756 55.6331 145.83 55.6724 145.894 55.7249C145.959 55.7774 146.012 55.842 146.051 55.9151C146.09 55.9882 146.115 56.0683 146.123 56.1508C146.131 56.2334 146.123 56.3167 146.099 56.3961L145.088 59.7608C145.049 59.8907 144.969 60.0045 144.86 60.0855C144.751 60.1665 144.619 60.2103 144.483 60.2105ZM149.509 51.9313C149.368 51.9314 149.231 51.8845 149.12 51.7981C149.009 51.7117 148.93 51.5907 148.896 51.4544C148.862 51.318 148.874 51.174 148.931 51.0453C148.987 50.9166 149.085 50.8106 149.209 50.744L152.304 49.0801C152.377 49.0408 152.457 49.0163 152.539 49.0079C152.622 48.9996 152.705 49.0076 152.785 49.0315C152.864 49.0554 152.938 49.0946 153.002 49.1471C153.066 49.1995 153.12 49.2641 153.159 49.3372C153.198 49.4102 153.223 49.4902 153.231 49.5727C153.239 49.6552 153.231 49.7386 153.207 49.818C153.184 49.8973 153.144 49.9713 153.092 50.0355C153.039 50.0997 152.975 50.1529 152.902 50.1921L149.807 51.8561C149.715 51.9055 149.613 51.9313 149.509 51.9313ZM140.365 56.8469C140.224 56.847 140.088 56.8001 139.977 56.7137C139.866 56.6273 139.787 56.5063 139.752 56.37C139.718 56.2336 139.73 56.0896 139.787 55.9609C139.844 55.8322 139.942 55.7262 140.066 55.6596L143.16 53.9959C143.308 53.9167 143.481 53.8993 143.641 53.9475C143.801 53.9957 143.936 54.1057 144.015 54.2531C144.094 54.4006 144.112 54.5735 144.063 54.7338C144.015 54.8941 143.905 55.0287 143.758 55.108L140.663 56.7717C140.572 56.8211 140.469 56.8469 140.365 56.8469ZM153.137 55.558C153.075 55.5579 153.014 55.5488 152.955 55.5311L149.59 54.5194C149.43 54.4711 149.296 54.3611 149.216 54.2137C149.137 54.0663 149.12 53.8935 149.168 53.7332C149.216 53.573 149.326 53.4384 149.473 53.359C149.621 53.2797 149.793 53.2621 149.954 53.3102L153.318 54.3219C153.463 54.3655 153.588 54.4599 153.669 54.5877C153.751 54.7156 153.783 54.8684 153.761 55.0183C153.739 55.1682 153.664 55.3052 153.549 55.4043C153.435 55.5034 153.288 55.5579 153.137 55.558ZM143.195 52.5684C143.134 52.5683 143.072 52.5593 143.013 52.5416L139.649 51.5298C139.489 51.4815 139.354 51.3716 139.275 51.2242C139.196 51.0767 139.178 50.9039 139.226 50.7437C139.275 50.5834 139.384 50.4488 139.532 50.3695C139.679 50.2902 139.852 50.2726 140.012 50.3206L143.377 51.3323C143.522 51.376 143.647 51.4703 143.728 51.5982C143.809 51.726 143.842 51.8788 143.82 52.0287C143.798 52.1786 143.723 52.3156 143.608 52.4147C143.493 52.5138 143.347 52.5684 143.195 52.5684ZM149.774 59.6764C149.66 59.6766 149.548 59.6457 149.45 59.5872C149.351 59.5286 149.271 59.4446 149.217 59.344L147.554 56.2492C147.514 56.1762 147.49 56.0961 147.481 56.0136C147.473 55.931 147.481 55.8477 147.505 55.7683C147.529 55.6888 147.568 55.6149 147.62 55.5506C147.673 55.4864 147.737 55.4331 147.81 55.3938C147.884 55.3546 147.964 55.3301 148.046 55.3218C148.129 55.3135 148.212 55.3215 148.291 55.3454C148.371 55.3694 148.445 55.4087 148.509 55.4612C148.573 55.5137 148.626 55.5784 148.666 55.6515L150.329 58.7463C150.381 58.8424 150.407 58.9503 150.404 59.0595C150.402 59.1686 150.371 59.2752 150.315 59.3689C150.259 59.4626 150.18 59.5402 150.085 59.5941C149.99 59.648 149.883 59.6763 149.774 59.6764ZM144.858 50.5327C144.744 50.5328 144.632 50.502 144.534 50.4434C144.436 50.3849 144.356 50.3009 144.302 50.2003L142.638 47.1057C142.559 46.9582 142.541 46.7853 142.589 46.625C142.638 46.4646 142.748 46.33 142.895 46.2508C143.043 46.1715 143.215 46.1541 143.376 46.2023C143.536 46.2505 143.671 46.3605 143.75 46.508L145.414 49.6026C145.465 49.6987 145.491 49.8066 145.489 49.9157C145.486 50.0248 145.456 50.1314 145.4 50.2251C145.344 50.3188 145.264 50.3964 145.169 50.4503C145.075 50.5042 144.967 50.5326 144.858 50.5327ZM74.6572 37.3146C74.5956 37.3145 74.5343 37.3054 74.4752 37.2878C74.3149 37.2395 74.1803 37.1296 74.101 36.9821C74.0217 36.8347 74.0042 36.6618 74.0523 36.5014L75.1694 32.7864C75.2176 32.6261 75.3275 32.4914 75.475 32.4121C75.6224 32.3328 75.7954 32.3153 75.9557 32.3635C76.1161 32.4117 76.2507 32.5216 76.33 32.6691C76.4093 32.8166 76.4268 32.9895 76.3786 33.1499L75.2616 36.8649C75.2224 36.9948 75.1426 37.1086 75.0337 37.1896C74.9249 37.2706 74.7929 37.3144 74.6572 37.3146ZM71.3565 48.291C71.2948 48.2909 71.2335 48.2818 71.1745 48.2641C71.0142 48.2159 70.8795 48.1059 70.8002 47.9585C70.7209 47.811 70.7034 47.6381 70.7516 47.4778L71.8686 43.763C71.8925 43.6836 71.9317 43.6097 71.9842 43.5455C72.0366 43.4812 72.1012 43.428 72.1742 43.3887C72.2472 43.3494 72.3273 43.3249 72.4097 43.3166C72.4922 43.3083 72.5756 43.3162 72.655 43.3401C72.7344 43.364 72.8083 43.4033 72.8725 43.4557C72.9367 43.5081 72.99 43.5727 73.0293 43.6457C73.0685 43.7187 73.093 43.7988 73.1014 43.8813C73.1097 43.9637 73.1017 44.0471 73.0779 44.1265L71.9608 47.8412C71.9217 47.9711 71.8418 48.085 71.733 48.166C71.6241 48.247 71.4921 48.2908 71.3565 48.291ZM76.9051 39.1499C76.7644 39.1501 76.6277 39.1032 76.5168 39.0168C76.4058 38.9304 76.3268 38.8094 76.2924 38.673C76.2581 38.5366 76.2702 38.3927 76.327 38.264C76.3837 38.1353 76.4818 38.0292 76.6057 37.9627L80.0223 36.1256C80.0954 36.0864 80.1754 36.0619 80.2579 36.0535C80.3404 36.0452 80.4237 36.0532 80.5031 36.0771C80.5825 36.101 80.6564 36.1403 80.7206 36.1927C80.7848 36.2452 80.8381 36.3097 80.8773 36.3828C80.9166 36.4558 80.941 36.5358 80.9494 36.6183C80.9577 36.7008 80.9496 36.7841 80.9258 36.8635C80.9019 36.9429 80.8626 37.0168 80.8101 37.081C80.7577 37.1452 80.6931 37.1985 80.6201 37.2377L77.2034 39.0747C77.1117 39.1241 77.0092 39.15 76.9051 39.1499ZM66.8095 44.5775C66.6688 44.5776 66.5322 44.5307 66.4212 44.4443C66.3102 44.3579 66.2313 44.2369 66.1969 44.1005C66.1625 43.9642 66.1746 43.8202 66.2314 43.6915C66.2881 43.5628 66.3862 43.4568 66.5101 43.3902L69.9268 41.5531C69.9998 41.5139 70.0798 41.4894 70.1623 41.4811C70.2448 41.4727 70.3281 41.4807 70.4075 41.5046C70.4869 41.5285 70.5608 41.5678 70.625 41.6202C70.6892 41.6727 70.7425 41.7373 70.7817 41.8103C70.821 41.8833 70.8455 41.9634 70.8538 42.0458C70.8621 42.1283 70.8541 42.2116 70.8302 42.291C70.8063 42.3704 70.767 42.4443 70.7146 42.5085C70.6621 42.5727 70.5975 42.626 70.5245 42.6652L67.1079 44.5023C67.0162 44.5516 66.9136 44.5775 66.8095 44.5775ZM80.911 43.1544C80.8494 43.1543 80.7881 43.1452 80.729 43.1276L77.014 42.0103C76.9346 41.9864 76.8607 41.9472 76.7965 41.8947C76.7323 41.8423 76.679 41.7777 76.6397 41.7047C76.6005 41.6317 76.576 41.5516 76.5676 41.4692C76.5593 41.3867 76.5673 41.3033 76.5912 41.2239C76.615 41.1445 76.6543 41.0706 76.7067 41.0064C76.7592 40.9422 76.8237 40.8889 76.8967 40.8496C76.9698 40.8104 77.0498 40.7859 77.1323 40.7775C77.2148 40.7692 77.2981 40.7772 77.3775 40.8011L81.0925 41.9183C81.2376 41.962 81.3622 42.0563 81.4435 42.1842C81.5248 42.312 81.5574 42.4648 81.5354 42.6147C81.5134 42.7646 81.4382 42.9016 81.3236 43.0007C81.209 43.0998 81.0625 43.1544 80.911 43.1544ZM69.9347 39.8534C69.873 39.8533 69.8117 39.8443 69.7527 39.8266L66.0377 38.7095C65.9583 38.6857 65.8844 38.6464 65.8201 38.594C65.7559 38.5415 65.7027 38.477 65.6634 38.404C65.6241 38.3309 65.5996 38.2509 65.5913 38.1684C65.5829 38.0859 65.5909 38.0026 65.6148 37.9232C65.6387 37.8438 65.6779 37.7699 65.7304 37.7057C65.7828 37.6414 65.8474 37.5882 65.9204 37.5489C65.9934 37.5096 66.0734 37.4851 66.1559 37.4768C66.2384 37.4685 66.3218 37.4764 66.4011 37.5003L70.1162 38.6173C70.2612 38.661 70.3858 38.7553 70.4671 38.8832C70.5484 39.011 70.5811 39.1638 70.559 39.3137C70.537 39.4636 70.4619 39.6006 70.3472 39.6997C70.2326 39.7988 70.0862 39.8534 69.9347 39.8534ZM77.1977 47.7014C77.0836 47.7015 76.9715 47.6707 76.8735 47.6122C76.7755 47.5536 76.6952 47.4696 76.6412 47.369L74.8044 43.9521C74.7252 43.8047 74.7078 43.6318 74.756 43.4714C74.8042 43.3111 74.9142 43.1766 75.0616 43.0973C75.2091 43.018 75.382 43.0006 75.5423 43.0488C75.7026 43.097 75.8372 43.207 75.9165 43.3544L77.7533 46.7713C77.805 46.8674 77.8308 46.9753 77.8284 47.0844C77.8259 47.1936 77.7952 47.3002 77.7392 47.3939C77.6833 47.4876 77.604 47.5652 77.509 47.6191C77.4141 47.673 77.3069 47.7013 77.1977 47.7014ZM71.7702 37.6058C71.6561 37.606 71.544 37.5751 71.446 37.5166C71.348 37.4581 71.2677 37.374 71.2137 37.2735L69.3769 33.8566C69.2976 33.7091 69.2802 33.5362 69.3284 33.3759C69.3767 33.2155 69.4866 33.0809 69.6341 33.0017C69.7816 32.9224 69.9545 32.905 70.1148 32.9532C70.2751 33.0014 70.4097 33.1114 70.489 33.2589L72.3258 36.6757C72.3775 36.7719 72.4033 36.8798 72.4009 36.9889C72.3984 37.098 72.3677 37.2046 72.3117 37.2983C72.2557 37.392 72.1764 37.4696 72.0815 37.5235C71.9866 37.5774 71.8794 37.6058 71.7702 37.6058ZM53.0911 158.435C53.0911 158.435 55.3935 161.151 52.7225 163.693C52.7225 163.693 55.7276 162.182 57.8363 165.289C57.8363 165.289 56.3396 161.203 58.0728 159.75C58.0728 159.75 54.9803 160.746 53.0911 158.435Z" fill="#102770"/>
<path d="M132.814 168.357C133.377 167.793 133.377 166.88 132.814 166.316C132.25 165.753 131.337 165.753 130.773 166.316C130.21 166.88 130.21 167.793 130.773 168.357C131.337 168.92 132.25 168.92 132.814 168.357Z" fill="#102770"/>
<path d="M146.081 154.443C146.081 154.443 145.791 157.838 142.262 157.74C142.262 157.74 145.316 158.761 144.63 162.289C144.63 162.289 146.394 158.516 148.55 158.712C148.55 158.712 145.787 157.285 146.081 154.443Z" fill="#102770"/>
<path d="M160.373 70.9785C161.109 70.6735 161.459 69.8296 161.154 69.0934C160.849 68.3573 160.005 68.0077 159.269 68.3126C158.533 68.6176 158.183 69.4615 158.488 70.1977C158.793 70.9338 159.637 71.2834 160.373 70.9785Z" fill="#102770"/>
<path d="M94.863 57.754L96.7476 58.8465C96.7476 58.8465 98.0075 55.5362 101.554 54.9496L101.018 52.7747C101.018 52.7747 96.5473 53.3584 94.863 57.754Z" fill="#8BC34A"/>
<path d="M32.4551 115.585L34.4847 114.794C34.4847 114.794 35.2229 118.258 38.6382 119.381L37.775 121.448C37.775 121.448 33.4465 120.186 32.4551 115.585Z" fill="#19B5FE"/>
<path d="M154.49 138.171L154.839 136.22C154.839 136.22 151.617 136.172 150.013 133.321L148.32 134.456C148.32 134.456 150.209 138.097 154.49 138.171Z" fill="#52CC99"/>
<path d="M52.2475 64.7614C53.0443 64.7614 53.6903 64.1155 53.6903 63.3187C53.6903 62.5219 53.0443 61.876 52.2475 61.876C51.4507 61.876 50.8048 62.5219 50.8048 63.3187C50.8048 64.1155 51.4507 64.7614 52.2475 64.7614Z" fill="#102770"/>
<path d="M169.099 81.3348L167.215 80.7231C167.215 80.7231 166.726 83.908 163.684 85.1073L164.576 86.9392C164.576 86.9392 168.441 85.5661 169.099 81.3348ZM49.7225 133.615L50.6908 135.344C50.6908 135.344 47.6628 136.445 47.0814 139.664L45.1103 139.146C45.1103 139.146 45.7016 135.088 49.7225 133.615Z" fill="#52CC99"/>
<path d="M122.624 49.73L120.643 49.7947C120.643 49.7947 121.265 52.9561 118.81 55.1173L120.272 56.5373C120.272 56.5373 123.441 53.9334 122.624 49.73Z" fill="#19B5FE"/>
<path d="M114.988 38.4531L115.417 36.5183C115.417 36.5183 112.2 36.3369 110.715 33.4229L108.977 34.4866C108.977 34.4866 110.713 38.2023 114.988 38.4531Z" fill="#52CC99"/>
<defs>
<linearGradient id="paint0_linear" x1="69.8846" y1="56.9411" x2="77.7391" y2="100.161" gradientUnits="userSpaceOnUse">
<stop stop-color="white"/>
<stop offset="0.994" stop-color="white"/>
</linearGradient>
<linearGradient id="paint1_linear" x1="21326" y1="69142.4" x2="29361.3" y2="113358" gradientUnits="userSpaceOnUse">
<stop stop-color="white"/>
<stop offset="0.994" stop-color="white"/>
</linearGradient>
</defs>
</svg>
