<svg width="102" height="102" viewBox="0 0 102 102" fill="none" xmlns="http://www.w3.org/2000/svg">
<path d="M96.3231 5.96932V26.506C96.3231 27.7101 95.347 28.6862 94.1429 28.6862H52.1753L44.2505 38.6714V28.6862H39.04C37.836 28.6862 36.8599 27.7101 36.8599 26.506V5.96932C36.8599 4.76526 37.836 3.78918 39.04 3.78918H94.1429C95.347 3.78918 96.3231 4.76526 96.3231 5.96932Z" fill="#52CC99"/>
<path d="M61.4485 69.133V84.7622C61.4485 86.4386 62.8075 87.7975 64.4838 87.7975H73.9605L84.9937 96.5463V87.7975H92.2478C93.9241 87.7975 95.283 86.4386 95.283 84.7622V69.133C95.283 67.4567 93.9241 66.0978 92.2478 66.0978H64.4838C62.8075 66.0978 61.4485 67.4567 61.4485 69.133Z" fill="#8BE1FC"/>
<path d="M50.2383 62.181L46.3099 53.7825C41.269 58.2822 35.8934 61.6791 29.4741 61.6791C28.1746 61.6791 26.8256 61.5412 25.4375 61.2455L23.0155 63.2838L20.495 63.3132C18.3094 60.2215 16.9605 56.303 17.246 52.0798C22.799 53.9402 28.076 47.531 32.7035 44.6461C38.9159 40.7964 44.1735 42.7953 48.279 49.953C47.9935 48.3185 47.708 46.6744 47.4225 45.0398C50.4746 46.5465 51.4788 50.3467 51.1146 54.2748C51.794 53.2609 52.4634 52.2668 53.1428 51.2524C54.0114 57.1708 51.3816 62.9175 50.2383 62.181Z" fill="#FF704A"/>
<path d="M87.0988 94.5662C87.2384 94.6771 87.4082 94.7337 87.5791 94.7337C87.6934 94.7337 87.8085 94.7081 87.9153 94.6568C88.1824 94.5277 88.3518 94.2576 88.3518 93.961V85.9847H94.8332C96.933 85.9847 98.6414 84.2763 98.6414 82.1769V66.5473C98.6414 64.448 96.933 62.7395 94.8332 62.7395H67.0694C64.9696 62.7395 63.2612 64.448 63.2612 66.5473V82.1769C63.2612 84.2763 64.9697 85.9847 67.0694 85.9847H76.2772L87.0988 94.5662ZM64.8067 82.1769V66.5473C64.8067 65.2999 65.8216 64.285 67.0694 64.285H94.8332C96.081 64.285 97.0959 65.2999 97.0959 66.5473V82.1769C97.0959 83.4243 96.081 84.4392 94.8332 84.4392H87.5791C87.1524 84.4392 86.8064 84.7849 86.8064 85.212V92.362L77.0265 84.6068C76.8896 84.4981 76.7205 84.4392 76.5462 84.4392H67.0694C65.8216 84.4393 64.8067 83.4243 64.8067 82.1769Z" fill="#241C70"/>
<path d="M94.8337 68.5394H67.0696V70.0848H94.8337V68.5394Z" fill="#241C70"/>
<path d="M94.8337 73.5891H67.0696V75.1346H94.8337V73.5891Z" fill="#241C70"/>
<path d="M94.8337 78.6389H67.0696V80.1844H94.8337V78.6389Z" fill="#241C70"/>
<path d="M86.0811 7.28601H43.3886V8.83146H86.0811V7.28601Z" fill="#241C70"/>
<path d="M86.0811 13.6077H43.3886V15.1532H86.0811V13.6077Z" fill="#241C70"/>
<path d="M68.8052 19.9302H43.3886V21.4756H68.8052V19.9302Z" fill="#241C70"/>
<path d="M14.6948 92.073C20.9725 97.7273 29.0899 100.841 37.5518 100.841C46.019 100.841 54.139 97.7273 60.4144 92.0745C61.7701 90.8611 63.0292 89.5352 64.143 88.1505C64.2362 88.0403 64.329 87.9309 64.4135 87.8207L63.1895 86.8774C63.1193 86.968 63.0424 87.0593 62.9518 87.1657C61.9951 88.3552 60.9339 89.4831 59.7991 90.5355C59.6313 90.4428 59.4561 90.3536 59.27 90.271C59.2372 90.2566 59.2033 90.2445 59.1682 90.234L41.2321 85.1116V81.9619C45.8267 80.414 49.3015 76.6539 50.5205 72.0241C52.1221 71.9989 53.5919 71.1409 54.2967 69.7975C55.134 68.2022 55.1163 66.4628 54.2473 65.026C53.5293 63.8379 52.3503 63.0629 51.0096 62.8557V62.4905C51.8284 61.6114 52.4962 60.7473 52.9969 59.9188C53.0158 59.8871 53.032 59.8554 53.0463 59.8222C53.8021 58.5258 54.1854 57.2331 54.1854 55.9804C54.1854 55.5397 54.1356 55.0945 54.0368 54.6561C54.0341 54.6387 54.0307 54.6214 54.027 54.604C53.8425 53.7845 53.4965 52.9929 52.9701 52.1885C52.9562 52.1606 52.9399 52.1334 52.9222 52.107C52.5638 51.5689 52.1359 51.0498 51.6839 50.5985L51.945 47.4563C51.9729 47.122 51.7823 46.8081 51.4733 46.6783C51.1639 46.55 50.807 46.6337 50.5886 46.888L49.9667 47.6132C49.9166 46.9846 49.8064 46.3975 49.637 45.861C49.0453 43.9722 47.7323 42.6207 45.7352 41.8434C45.4692 41.7408 45.1681 41.7914 44.9512 41.977C44.7346 42.1634 44.6384 42.4539 44.7006 42.7324L44.8689 43.484C38.2713 36.7769 31.9427 40.5146 26.2974 43.8484C22.4972 46.0934 18.9784 48.2124 15.4751 47.285C15.2555 47.2261 15.0204 47.2676 14.8337 47.3989C14.6473 47.5295 14.5277 47.7362 14.5073 47.9626C14.4779 48.2924 14.4673 48.632 14.4673 48.961C14.4673 51.332 15.2046 53.589 16.6591 55.671C16.6734 55.6967 16.6889 55.7216 16.7059 55.7465C17.4764 56.846 18.4528 57.916 19.6096 58.9279L21.863 62.9225C20.6671 63.2017 19.6268 63.9411 18.9712 65.026C18.1027 66.4635 18.085 68.2022 18.9222 69.7974C19.62 71.1263 21.0663 71.9779 22.6955 72.0207C23.3354 74.4642 24.5996 76.6831 26.428 78.5034C27.515 79.6007 28.7582 80.5032 30.1222 81.1854C31.3462 81.7973 32.6177 82.229 33.9111 82.4712V85.1109L15.9384 90.2249C15.9037 90.2347 15.8694 90.2475 15.8362 90.2619C15.654 90.343 15.4791 90.4324 15.3098 90.5266C8.6945 84.3642 4.90406 75.6934 4.90406 66.6318C4.90406 48.6297 19.5497 33.9841 37.5518 33.9841C38.9246 33.9841 40.286 34.0852 41.6207 34.2516V36.8139C41.6207 37.1429 41.8286 37.4357 42.1391 37.5436C42.2225 37.5723 42.3081 37.5866 42.3934 37.5866C42.6247 37.5866 42.8492 37.4825 42.9986 37.2946L44.9516 34.8338C45.7014 35.0066 46.4509 35.2007 47.1848 35.4262C58.8025 39 67.4101 48.6319 69.6486 60.5624L71.1677 60.2772C68.8227 47.7808 59.8073 37.6923 47.6388 33.9487C47.1013 33.7838 46.5567 33.6357 46.012 33.4978L50.6912 27.6016H92.286C93.9141 27.6016 95.2388 26.2772 95.2388 24.6488V4.11187C95.2388 2.48341 93.9141 1.15906 92.286 1.15906H37.1828C35.5547 1.15906 34.23 2.48341 34.23 4.11187V24.6488C34.23 26.2772 35.5547 27.6016 37.1828 27.6016H41.6207V32.6818C40.285 32.5232 38.9214 32.4387 37.5518 32.4387C18.6977 32.4387 3.35861 47.7778 3.35861 66.6318C3.35862 76.3241 7.49089 85.5969 14.6948 92.073ZM51.0628 64.4359C51.8329 64.6329 52.4996 65.1219 52.9248 65.8252C53.507 66.7888 53.5082 67.9743 52.9286 69.0791C52.5551 69.7907 51.8265 70.2872 50.9825 70.4366C51.0353 69.8503 51.0621 69.264 51.0621 68.6837L51.0628 64.4359ZM20.7223 57.8474C19.6406 56.9124 18.7309 55.9299 18.0174 54.9247C18.0031 54.8983 17.9872 54.8727 17.9695 54.8478C16.6731 53.0155 16.015 51.0385 16.0128 48.9708C19.7655 49.5187 23.4861 47.3031 27.0834 45.1796C33.3022 41.5054 39.1769 38.0364 45.6877 46.839C45.9054 47.1326 46.2974 47.2344 46.6302 47.082C46.9622 46.9303 47.143 46.5673 47.0634 46.2104L46.5793 44.0492C47.3445 44.6272 47.8667 45.3796 48.1628 46.3244C48.3549 46.9341 48.4522 47.6366 48.4522 48.4131C48.4522 48.8025 48.4251 49.2327 48.3741 49.6583C48.3334 49.9956 48.5179 50.3193 48.8288 50.4574C49.1401 50.5955 49.5038 50.5132 49.7257 50.2559L50.2063 49.6998L50.1165 50.8234C50.0992 51.049 50.1814 51.2709 50.3422 51.4309C50.4033 51.492 50.4569 51.5456 50.5448 51.6429C50.9436 52.0421 51.2956 52.4639 51.5922 52.8986C51.6058 52.9242 51.6205 52.9499 51.6367 52.974C52.0733 53.6283 52.3589 54.2592 52.5094 54.9006C52.5125 54.9202 52.5162 54.9391 52.5208 54.9587C52.6 55.2975 52.64 55.6416 52.64 55.9804C52.64 56.9728 52.317 58.0217 51.6797 59.097C51.6646 59.1227 51.6511 59.1491 51.639 59.177C51.3192 59.6984 50.9146 60.2408 50.4442 60.7955L47.0056 53.454C46.9019 53.2329 46.7 53.0737 46.4608 53.0246C46.2208 52.9756 45.9733 53.042 45.7911 53.205C40.6016 57.8353 34.1447 62.3222 25.5976 60.4855C25.3648 60.4357 25.1199 60.4961 24.9373 60.65L23.1872 62.1245L20.8903 58.0526C20.8465 57.9749 20.7895 57.9055 20.7223 57.8474ZM20.2903 69.0791C19.7108 67.9743 19.7119 66.7888 20.2941 65.8252C20.7193 65.1219 21.3864 64.6329 22.1569 64.4367V68.6836C22.1569 69.2639 22.1837 69.851 22.2365 70.4366C21.3936 70.288 20.6642 69.7907 20.2903 69.0791ZM34.8955 86.4375C35.2276 86.3432 35.4566 86.0398 35.4566 85.6942V81.8132C35.4566 81.4269 35.171 81.0994 34.788 81.0473C33.4331 80.8632 32.0959 80.4444 30.8138 79.8029C29.6004 79.1962 28.4941 78.3933 27.5222 77.4116C25.5032 75.4013 24.2404 72.859 23.8698 70.0525C23.7887 69.4737 23.7476 68.8912 23.7476 68.3214V64.0547L23.9627 64.0458C24.3845 64.0284 24.7143 63.676 24.7033 63.2534C24.7005 63.1391 24.6688 63.0337 24.6214 62.9369L25.647 62.0732C34.2888 63.7666 41.0268 59.3785 46.0431 55.0417L49.4642 62.3468V68.3214C49.4642 68.8912 49.423 69.4737 49.3419 70.0525C49.34 70.0653 49.3385 70.0804 49.3374 70.0955C48.6616 75.0918 45.0942 79.2339 40.2424 80.6534C39.913 80.75 39.6866 81.0518 39.6866 81.3952V85.6942C39.6866 86.0391 39.9153 86.3424 40.2473 86.4375L58.5281 91.6585C52.6613 96.5877 45.2593 99.2954 37.5518 99.2954C29.8457 99.2954 22.4431 96.585 16.5742 91.6508L34.8955 86.4375ZM37.1828 26.0561C36.4067 26.0561 35.7754 25.4245 35.7754 24.6488V4.11187C35.7754 3.33612 36.4067 2.70451 37.1828 2.70451H92.286C93.0621 2.70451 93.6934 3.33612 93.6934 4.11187V24.6488C93.6934 25.4245 93.0621 26.0561 92.286 26.0561H50.318C50.0822 26.0561 49.8592 26.164 49.7128 26.3482L43.1661 34.5976V26.8288C43.1661 26.4017 42.8202 26.0561 42.3934 26.0561H37.1828Z" fill="#241C70"/>
</svg>
