<svg width="200" height="200" viewBox="0 0 200 200" fill="none" xmlns="http://www.w3.org/2000/svg">
<circle cx="5" cy="5" r="5" fill="#D2D6DB"/>
<circle cx="21" cy="5" r="5" fill="#D2D6DB"/>
<circle cx="37" cy="5" r="5" fill="#D2D6DB"/>
<circle cx="53" cy="5" r="5" fill="#D2D6DB"/>
<circle cx="69" cy="5" r="5" fill="#D2D6DB"/>
<circle cx="85" cy="5" r="5" fill="#D2D6DB"/>
<circle cx="101" cy="5" r="5" fill="#D2D6DB"/>
<circle cx="117" cy="5" r="5" fill="#D2D6DB"/>
<circle cx="133" cy="5" r="5" fill="#D2D6DB"/>
<circle cx="149" cy="5" r="5" fill="#D2D6DB"/>
<circle cx="165" cy="5" r="5" fill="#D2D6DB"/>
<circle cx="181" cy="5" r="5" fill="#D2D6DB"/>
<circle cx="5" cy="21" r="5" fill="#D2D6DB"/>
<circle cx="21" cy="21" r="5" fill="#D2D6DB"/>
<circle cx="37" cy="21" r="5" fill="#D2D6DB"/>
<circle cx="53" cy="21" r="5" fill="#D2D6DB"/>
<circle cx="69" cy="21" r="5" fill="#D2D6DB"/>
<circle cx="85" cy="21" r="5" fill="#D2D6DB"/>
<circle cx="101" cy="21" r="5" fill="#D2D6DB"/>
<circle cx="117" cy="21" r="5" fill="#D2D6DB"/>
<circle cx="133" cy="21" r="5" fill="#D2D6DB"/>
<circle cx="149" cy="21" r="5" fill="#D2D6DB"/>
<circle cx="165" cy="21" r="5" fill="#D2D6DB"/>
<circle cx="181" cy="21" r="5" fill="#D2D6DB"/>
<circle cx="5" cy="37" r="5" fill="#D2D6DB"/>
<circle cx="21" cy="37" r="5" fill="#D2D6DB"/>
<circle cx="37" cy="37" r="5" fill="#D2D6DB"/>
<circle cx="53" cy="37" r="5" fill="#D2D6DB"/>
<circle cx="69" cy="37" r="5" fill="#D2D6DB"/>
<circle cx="85" cy="37" r="5" fill="#D2D6DB"/>
<circle cx="101" cy="37" r="5" fill="#D2D6DB"/>
<circle cx="117" cy="37" r="5" fill="#D2D6DB"/>
<circle cx="133" cy="37" r="5" fill="#D2D6DB"/>
<circle cx="149" cy="37" r="5" fill="#D2D6DB"/>
<circle cx="165" cy="37" r="5" fill="#D2D6DB"/>
<circle cx="181" cy="37" r="5" fill="#D2D6DB"/>
<circle cx="5" cy="53" r="5" fill="#D2D6DB"/>
<circle cx="21" cy="53" r="5" fill="#D2D6DB"/>
<circle cx="37" cy="53" r="5" fill="#D2D6DB"/>
<circle cx="53" cy="53" r="5" fill="#D2D6DB"/>
<circle cx="69" cy="53" r="5" fill="#D2D6DB"/>
<circle cx="85" cy="53" r="5" fill="#D2D6DB"/>
<circle cx="101" cy="53" r="5" fill="#D2D6DB"/>
<circle cx="117" cy="53" r="5" fill="#D2D6DB"/>
<circle cx="133" cy="53" r="5" fill="#D2D6DB"/>
<circle cx="149" cy="53" r="5" fill="#D2D6DB"/>
<circle cx="165" cy="53" r="5" fill="#D2D6DB"/>
<circle cx="181" cy="53" r="5" fill="#D2D6DB"/>
<circle cx="5" cy="69" r="5" fill="#D2D6DB"/>
<circle cx="21" cy="69" r="5" fill="#D2D6DB"/>
<circle cx="37" cy="69" r="5" fill="#D2D6DB"/>
<circle cx="53" cy="69" r="5" fill="#D2D6DB"/>
<circle cx="69" cy="69" r="5" fill="#D2D6DB"/>
<circle cx="85" cy="69" r="5" fill="#D2D6DB"/>
<circle cx="101" cy="69" r="5" fill="#D2D6DB"/>
<circle cx="117" cy="69" r="5" fill="#D2D6DB"/>
<circle cx="133" cy="69" r="5" fill="#D2D6DB"/>
<circle cx="149" cy="69" r="5" fill="#D2D6DB"/>
<circle cx="165" cy="69" r="5" fill="#D2D6DB"/>
<circle cx="181" cy="69" r="5" fill="#D2D6DB"/>
<circle cx="5" cy="85" r="5" fill="#D2D6DB"/>
<circle cx="21" cy="85" r="5" fill="#D2D6DB"/>
<circle cx="37" cy="85" r="5" fill="#D2D6DB"/>
<circle cx="53" cy="85" r="5" fill="#D2D6DB"/>
<circle cx="69" cy="85" r="5" fill="#D2D6DB"/>
<circle cx="85" cy="85" r="5" fill="#D2D6DB"/>
<circle cx="101" cy="85" r="5" fill="#D2D6DB"/>
<circle cx="117" cy="85" r="5" fill="#D2D6DB"/>
<circle cx="133" cy="85" r="5" fill="#D2D6DB"/>
<circle cx="149" cy="85" r="5" fill="#D2D6DB"/>
<circle cx="165" cy="85" r="5" fill="#D2D6DB"/>
<circle cx="181" cy="85" r="5" fill="#D2D6DB"/>
<circle cx="5" cy="101" r="5" fill="#D2D6DB"/>
<circle cx="21" cy="101" r="5" fill="#D2D6DB"/>
<circle cx="37" cy="101" r="5" fill="#D2D6DB"/>
<circle cx="53" cy="101" r="5" fill="#D2D6DB"/>
<circle cx="69" cy="101" r="5" fill="#D2D6DB"/>
<circle cx="85" cy="101" r="5" fill="#D2D6DB"/>
<circle cx="101" cy="101" r="5" fill="#D2D6DB"/>
<circle cx="117" cy="101" r="5" fill="#D2D6DB"/>
<circle cx="133" cy="101" r="5" fill="#D2D6DB"/>
<circle cx="149" cy="101" r="5" fill="#D2D6DB"/>
<circle cx="165" cy="101" r="5" fill="#D2D6DB"/>
<circle cx="181" cy="101" r="5" fill="#D2D6DB"/>
<circle cx="5" cy="117" r="5" fill="#D2D6DB"/>
<circle cx="21" cy="117" r="5" fill="#D2D6DB"/>
<circle cx="37" cy="117" r="5" fill="#D2D6DB"/>
<circle cx="53" cy="117" r="5" fill="#D2D6DB"/>
<circle cx="69" cy="117" r="5" fill="#D2D6DB"/>
<circle cx="85" cy="117" r="5" fill="#D2D6DB"/>
<circle cx="101" cy="117" r="5" fill="#D2D6DB"/>
<circle cx="117" cy="117" r="5" fill="#D2D6DB"/>
<circle cx="133" cy="117" r="5" fill="#D2D6DB"/>
<circle cx="149" cy="117" r="5" fill="#D2D6DB"/>
<circle cx="165" cy="117" r="5" fill="#D2D6DB"/>
<circle cx="181" cy="117" r="5" fill="#D2D6DB"/>
<circle cx="5" cy="133" r="5" fill="#D2D6DB"/>
<circle cx="21" cy="133" r="5" fill="#D2D6DB"/>
<circle cx="37" cy="133" r="5" fill="#D2D6DB"/>
<circle cx="53" cy="133" r="5" fill="#D2D6DB"/>
<circle cx="69" cy="133" r="5" fill="#D2D6DB"/>
<circle cx="85" cy="133" r="5" fill="#D2D6DB"/>
<circle cx="101" cy="133" r="5" fill="#D2D6DB"/>
<circle cx="117" cy="133" r="5" fill="#D2D6DB"/>
<circle cx="133" cy="133" r="5" fill="#D2D6DB"/>
<circle cx="149" cy="133" r="5" fill="#D2D6DB"/>
<circle cx="165" cy="133" r="5" fill="#D2D6DB"/>
<circle cx="181" cy="133" r="5" fill="#D2D6DB"/>
<circle cx="5" cy="149" r="5" fill="#D2D6DB"/>
<circle cx="21" cy="149" r="5" fill="#D2D6DB"/>
<circle cx="37" cy="149" r="5" fill="#D2D6DB"/>
<circle cx="53" cy="149" r="5" fill="#D2D6DB"/>
<circle cx="69" cy="149" r="5" fill="#D2D6DB"/>
<circle cx="85" cy="149" r="5" fill="#D2D6DB"/>
<circle cx="101" cy="149" r="5" fill="#D2D6DB"/>
<circle cx="117" cy="149" r="5" fill="#D2D6DB"/>
<circle cx="133" cy="149" r="5" fill="#D2D6DB"/>
<circle cx="149" cy="149" r="5" fill="#D2D6DB"/>
<circle cx="165" cy="149" r="5" fill="#D2D6DB"/>
<circle cx="181" cy="149" r="5" fill="#D2D6DB"/>
<circle cx="5" cy="165" r="5" fill="#D2D6DB"/>
<circle cx="21" cy="165" r="5" fill="#D2D6DB"/>
<circle cx="37" cy="165" r="5" fill="#D2D6DB"/>
<circle cx="53" cy="165" r="5" fill="#D2D6DB"/>
<circle cx="69" cy="165" r="5" fill="#D2D6DB"/>
<circle cx="85" cy="165" r="5" fill="#D2D6DB"/>
<circle cx="101" cy="165" r="5" fill="#D2D6DB"/>
<circle cx="117" cy="165" r="5" fill="#D2D6DB"/>
<circle cx="133" cy="165" r="5" fill="#D2D6DB"/>
<circle cx="149" cy="165" r="5" fill="#D2D6DB"/>
<circle cx="165" cy="165" r="5" fill="#D2D6DB"/>
<circle cx="181" cy="165" r="5" fill="#D2D6DB"/>
<circle cx="5" cy="181" r="5" fill="#D2D6DB"/>
<circle cx="21" cy="181" r="5" fill="#D2D6DB"/>
<circle cx="37" cy="181" r="5" fill="#D2D6DB"/>
<circle cx="53" cy="181" r="5" fill="#D2D6DB"/>
<circle cx="69" cy="181" r="5" fill="#D2D6DB"/>
<circle cx="85" cy="181" r="5" fill="#D2D6DB"/>
<circle cx="101" cy="181" r="5" fill="#D2D6DB"/>
<circle cx="117" cy="181" r="5" fill="#D2D6DB"/>
<circle cx="133" cy="181" r="5" fill="#D2D6DB"/>
<circle cx="149" cy="181" r="5" fill="#D2D6DB"/>
<circle cx="165" cy="181" r="5" fill="#D2D6DB"/>
<circle cx="181" cy="181" r="5" fill="#D2D6DB"/>
</svg>
