<svg width="96" height="94" viewBox="0 0 96 94" fill="none" xmlns="http://www.w3.org/2000/svg">
<path d="M82.8631 33.3563C82.3017 33.8972 76.984 39.367 76.2807 40.066C76.0271 40.3239 75.6935 40.4881 75.3344 40.5315C74.9753 40.5749 74.6122 40.4951 74.3044 40.3051C70.7127 37.9914 67.3927 35.281 64.4072 32.2248C61.5003 29.2253 58.9298 25.9173 56.7414 22.3595C56.5565 22.057 56.4781 21.7013 56.5185 21.349C56.5589 20.9967 56.7159 20.668 56.9645 20.4152L63.1005 14.1677C63.2285 13.9366 63.4072 13.7375 63.6231 13.5853C63.839 13.4331 64.0866 13.3317 64.3472 13.2888C64.6079 13.2458 64.8749 13.2625 65.1282 13.3374C65.3815 13.4123 65.6146 13.5436 65.81 13.7214L82.863 31.1252C83.1541 31.4235 83.3171 31.8239 83.3171 32.2407C83.3171 32.6576 83.1542 33.058 82.8631 33.3563Z" fill="#52CC99"/>
<path d="M91.8578 39.0264L67.9635 29.4845C67.7433 29.3965 67.5436 29.264 67.3771 29.0951C67.2106 28.9263 67.0808 28.7248 66.9959 28.5034L57.9655 4.95192C57.8458 4.63981 57.8197 4.29958 57.8904 3.97286C57.961 3.64614 58.1254 3.34712 58.3634 3.11238C58.6014 2.87765 58.9027 2.71739 59.2303 2.65121C59.558 2.58504 59.8978 2.61582 60.2082 2.73979L84.1025 12.2818C84.3228 12.3697 84.5224 12.5023 84.689 12.6711C84.8555 12.84 84.9853 13.0414 85.0702 13.2628L94.1006 36.8144C94.2202 37.1265 94.2463 37.4667 94.1756 37.7934C94.1049 38.1201 93.9405 38.4191 93.7025 38.6538C93.4646 38.8885 93.1633 39.0488 92.8357 39.1149C92.508 39.1811 92.1682 39.1503 91.8578 39.0264ZM12.9114 33.3564C13.4728 33.8972 18.7904 39.3671 19.4938 40.066C19.7473 40.324 20.081 40.4881 20.4401 40.5315C20.7991 40.575 21.1623 40.4951 21.47 40.3051C25.0618 37.9915 28.3817 35.281 31.3672 32.2248C34.2741 29.2254 36.8447 25.9173 39.0331 22.3596C39.2179 22.057 39.2964 21.7013 39.256 21.349C39.2155 20.9967 39.0586 20.668 38.8099 20.4152L32.674 14.1677C32.546 13.9366 32.3673 13.7375 32.1514 13.5853C31.9355 13.4331 31.6879 13.3317 31.4272 13.2888C31.1666 13.2459 30.8996 13.2625 30.6462 13.3374C30.3929 13.4123 30.1598 13.5436 29.9645 13.7214L12.9114 31.1252C12.6203 31.4236 12.4574 31.8239 12.4573 32.2408C12.4573 32.6576 12.6203 33.058 12.9114 33.3564Z" fill="#52CC99"/>
<path d="M3.91671 39.0264L27.811 29.4845C28.0312 29.3965 28.2309 29.264 28.3974 29.0951C28.5639 28.9263 28.6937 28.7248 28.7786 28.5034L37.809 4.95192C37.9287 4.63981 37.9548 4.29958 37.8842 3.97286C37.8135 3.64614 37.6491 3.34712 37.4111 3.11238C37.1731 2.87765 36.8719 2.71739 36.5442 2.65121C36.2165 2.58504 35.8767 2.61582 35.5663 2.73979L11.672 12.2818C11.4517 12.3697 11.2521 12.5023 11.0856 12.6711C10.919 12.84 10.7892 13.0414 10.7043 13.2628L1.67392 36.8144C1.55427 37.1265 1.52819 37.4667 1.59889 37.7934C1.66958 38.1201 1.83398 38.4191 2.07196 38.6538C2.30994 38.8885 2.61119 39.0488 2.93883 39.1149C3.26647 39.1811 3.60629 39.1503 3.91671 39.0264ZM58.8172 72.0644C53.7369 73.9102 42.1538 73.8791 37.1809 72.0639C33.9072 69.5935 30.6335 67.1228 27.3597 64.6517H68.6384L58.8172 72.0644Z" fill="#52CC99"/>
<path d="M59.2097 60.6337L58.1778 52.6284L63.51 46.7538C63.879 46.3432 64.1324 45.842 64.2442 45.3013C64.356 44.7607 64.3224 44.2001 64.1466 43.6768C63.9885 43.1739 63.6978 42.7229 63.305 42.3712C62.9123 42.0196 62.432 41.7802 61.9148 41.6784L54.3319 40.1967L50.5779 33.0388C50.3372 32.5612 49.9687 32.1599 49.5133 31.8794C49.058 31.599 48.5337 31.4505 47.9989 31.4505C47.4642 31.4505 46.9399 31.599 46.4845 31.8794C46.0292 32.1599 45.6607 32.5612 45.42 33.0388L41.666 40.1967L34.0833 41.6784C33.5661 41.7803 33.0858 42.0196 32.6931 42.3713C32.3003 42.7229 32.0096 43.1739 31.8514 43.6768C31.6757 44.2002 31.642 44.7608 31.7539 45.3014C31.8657 45.842 32.1191 46.3432 32.488 46.7539L37.7907 52.5678L36.7883 60.6345C36.7153 61.1857 36.7931 61.7463 37.0135 62.2568C37.2338 62.7672 37.5885 63.2084 38.0396 63.5333C38.4583 63.837 38.9523 64.0198 39.4678 64.0616C39.9833 64.1035 40.5004 64.0028 40.9626 63.7706L47.999 60.2983L55.0354 63.7706C55.5217 63.9912 56.0584 64.0769 56.5893 64.0186C57.1201 63.9604 57.6255 63.7603 58.0524 63.4395C58.4793 63.1187 58.812 62.6889 59.0157 62.1953C59.2193 61.7016 59.2863 61.1622 59.2097 60.6337ZM55.8183 50.4868C55.5187 50.8192 55.2944 51.2124 55.1609 51.6395C55.0274 52.0666 54.9878 52.5176 55.0448 52.9615L56.0969 60.7395C55.1974 60.4143 48.8749 56.8604 47.9991 57.0695C47.1463 56.8518 40.8562 60.3861 39.9929 60.6944L40.9532 52.9591C41.0101 52.5156 40.9704 52.0651 40.8369 51.6383C40.7033 51.2116 40.4792 50.8188 40.1797 50.4868L34.9455 44.7577L42.4053 43.2994C42.8388 43.214 43.2473 43.0314 43.6002 42.7655C43.953 42.4996 44.2411 42.1572 44.4427 41.764L47.999 34.9844L51.5554 41.7632C51.7567 42.1564 52.0444 42.4989 52.397 42.7649C52.7496 43.031 53.1579 43.2137 53.5912 43.2994L61.023 44.7515L55.8183 50.4868Z" fill="#241C70"/>
<path d="M95.7057 37.9663L85.7805 12.0804C85.7019 11.8751 85.5817 11.6884 85.4274 11.5318C85.2731 11.3752 85.0881 11.2523 84.8841 11.1707L58.7008 0.714781C58.413 0.599831 58.098 0.57127 57.7942 0.632591C57.4905 0.693913 57.2112 0.842458 56.9905 1.06005C56.7699 1.27764 56.6175 1.55483 56.5519 1.8577C56.4864 2.16057 56.5105 2.47598 56.6215 2.76533L60.8482 13.7877C60.7101 14.0345 53.9832 20.4992 54.4402 20.6688C50.2035 19.6758 45.7946 19.6758 41.5579 20.6688C41.8102 20.2446 35.3848 14.162 35.1498 13.7877L39.3766 2.76533C39.4875 2.47598 39.5117 2.16057 39.4461 1.8577C39.3806 1.55483 39.2281 1.27764 39.0075 1.06005C38.7869 0.842458 38.5076 0.693913 38.2038 0.632591C37.9001 0.57127 37.585 0.599831 37.2972 0.714781L11.1152 11.1702C10.9109 11.2518 10.7257 11.3747 10.5712 11.5314C10.4167 11.688 10.2963 11.8749 10.2175 12.0804L0.292358 37.9664C0.186774 38.2555 0.166527 38.5688 0.234031 38.8691C0.301535 39.1693 0.453943 39.4439 0.673095 39.66C0.892246 39.8761 1.1689 40.0246 1.4701 40.0878C1.77129 40.1511 2.08433 40.1265 2.3719 40.0168L8.15527 37.7075V46.4347C8.16732 46.8493 8.34046 47.2429 8.63795 47.5319C8.93544 47.8209 9.33385 47.9827 9.74862 47.9828C10.1634 47.9829 10.5619 47.8213 10.8595 47.5325C11.1572 47.2436 11.3305 46.8501 11.3428 46.4355V36.4345L13.4826 35.5801L19.6088 41.8333C19.8943 42.1209 20.2794 42.2879 20.6845 42.2995C19.6969 47.1235 20.0333 52.1249 21.658 56.7731C13.1944 62.1608 6.09525 69.4373 0.918017 78.0311C0.775003 78.2732 0.698575 78.5487 0.696493 78.8298C0.69441 79.111 0.766747 79.3876 0.90616 79.6318C1.04557 79.8759 1.2471 80.0788 1.49028 80.2199C1.73346 80.3609 2.00963 80.4352 2.29076 80.435C6.62591 80.3911 10.9749 80.3197 15.3131 80.235C16.8573 84.7215 19.0791 88.9451 21.9014 92.7593C22.0776 92.9921 22.3139 93.1724 22.5851 93.2808C22.8562 93.3891 23.1517 93.4214 23.4398 93.3741C23.728 93.3269 23.9977 93.2019 24.22 93.0126C24.4423 92.8233 24.6087 92.577 24.7013 92.3001C27.1652 85.0119 31.5347 78.516 37.3562 73.4864C40.7264 74.8994 44.3443 75.6272 47.9988 75.6272C51.6533 75.6273 55.2712 74.8996 58.6415 73.4867C64.4635 78.5159 68.8331 85.0119 71.2967 92.3002C71.3893 92.577 71.5558 92.8234 71.7781 93.0127C72.0004 93.2019 72.2701 93.3269 72.5583 93.3741C72.8464 93.4214 73.1419 93.3891 73.413 93.2807C73.6841 93.1723 73.9205 92.992 74.0967 92.7592C76.919 88.9451 79.1408 84.7214 80.6849 80.2349C85.0179 80.3198 89.3618 80.3906 93.6917 80.4349C93.9732 80.4335 94.2496 80.3594 94.4942 80.22C94.7387 80.0805 94.9432 79.8804 95.0878 79.6388C95.2288 79.3941 95.3024 79.1164 95.3011 78.8339C95.2997 78.5515 95.2234 78.2744 95.08 78.0311C89.9028 69.4372 82.8036 62.1607 74.3401 56.7731C75.9648 52.1248 76.3012 47.1235 75.3134 42.2996C75.7186 42.288 76.1037 42.121 76.3892 41.8332L82.5153 35.58L84.6552 36.4345V45.8447C84.6705 46.2571 84.8451 46.6475 85.1423 46.9338C85.4394 47.2202 85.836 47.3802 86.2486 47.3803C86.6613 47.3804 87.0579 47.2205 87.3552 46.9343C87.6524 46.648 87.8272 46.2577 87.8427 45.8454V37.7074L93.6263 40.0169C93.9139 40.1265 94.2269 40.1512 94.5281 40.0879C94.8293 40.0246 95.1059 39.876 95.3251 39.6599C95.5442 39.4438 95.6966 39.1693 95.7641 38.869C95.8316 38.5687 95.8113 38.2554 95.7057 37.9663ZM4.57244 35.7057L12.9443 13.8726L35.0965 5.026L26.7231 26.8599C21.0603 29.1213 10.1041 33.4966 4.57244 35.7057ZM20.9893 38.6886L16.689 34.2997L28.5534 29.5619C28.7575 29.4803 28.9426 29.3574 29.0969 29.2009C29.2512 29.0443 29.3714 28.8575 29.4499 28.6522L33.8942 17.0625L38.0303 21.2864C33.7247 28.29 27.901 34.237 20.9893 38.6886ZM22.7465 88.3602C14.2165 74.5456 23.2148 77.1699 5.18721 77.2141C9.84462 70.273 15.8518 64.3407 22.8508 59.7707C25.3212 64.9023 29.2898 69.164 34.2327 71.9932C29.2714 76.5592 25.3535 82.1419 22.7465 88.3602V88.3602ZM37.6895 70.1916C32.2104 67.642 27.8508 63.1795 25.4295 57.6425C23.0083 52.1054 22.6921 45.8749 24.5403 40.1211C30.56 35.9426 35.719 30.6442 39.7354 24.515C45.0828 22.6269 50.9157 22.6269 56.2631 24.5153C60.2794 30.6446 65.4383 35.9433 71.458 40.122C78.2089 60.3395 57.0002 79.1989 37.6894 70.1915L37.6895 70.1916ZM90.8108 77.2141C72.8771 77.1311 81.7057 74.638 73.2516 88.3602C70.6382 82.1393 66.7128 76.5558 61.7434 71.9913C66.6833 69.165 70.6488 64.9056 73.1154 59.7767C80.1252 64.3416 86.1434 70.272 90.8108 77.214L90.8108 77.2141ZM75.0087 38.6886C68.097 34.2371 62.2733 28.29 57.9677 21.2864L62.1039 17.0624L66.5482 28.6521C66.6267 28.8574 66.7469 29.0442 66.9012 29.2008C67.0554 29.3573 67.2405 29.4803 67.4446 29.5618L79.3091 34.2996L75.0087 38.6886ZM69.275 26.8599L60.9015 5.026L83.0537 13.8726L91.4256 35.7057C85.9428 33.5161 74.8827 29.0993 69.275 26.8599Z" fill="#241C70"/>
</svg>
