<svg width="278" height="362" viewBox="0 0 278 362" fill="none" xmlns="http://www.w3.org/2000/svg">
<path d="M110.572 291.126C109.732 291.126 108.976 290.982 108.304 290.694C107.632 290.394 107.104 289.974 106.72 289.434C106.336 288.894 106.144 288.264 106.144 287.544H108.34C108.388 288.084 108.598 288.528 108.97 288.876C109.354 289.224 109.888 289.398 110.572 289.398C111.28 289.398 111.832 289.23 112.228 288.894C112.624 288.546 112.822 288.102 112.822 287.562C112.822 287.142 112.696 286.8 112.444 286.536C112.204 286.272 111.898 286.068 111.526 285.924C111.166 285.78 110.662 285.624 110.014 285.456C109.198 285.24 108.532 285.024 108.016 284.808C107.512 284.58 107.08 284.232 106.72 283.764C106.36 283.296 106.18 282.672 106.18 281.892C106.18 281.172 106.36 280.542 106.72 280.002C107.08 279.462 107.584 279.048 108.232 278.76C108.88 278.472 109.63 278.328 110.482 278.328C111.694 278.328 112.684 278.634 113.452 279.246C114.232 279.846 114.664 280.674 114.748 281.73H112.48C112.444 281.274 112.228 280.884 111.832 280.56C111.436 280.236 110.914 280.074 110.266 280.074C109.678 280.074 109.198 280.224 108.826 280.524C108.454 280.824 108.268 281.256 108.268 281.82C108.268 282.204 108.382 282.522 108.61 282.774C108.85 283.014 109.15 283.206 109.51 283.35C109.87 283.494 110.362 283.65 110.986 283.818C111.814 284.046 112.486 284.274 113.002 284.502C113.53 284.73 113.974 285.084 114.334 285.564C114.706 286.032 114.892 286.662 114.892 287.454C114.892 288.09 114.718 288.69 114.37 289.254C114.034 289.818 113.536 290.274 112.876 290.622C112.228 290.958 111.46 291.126 110.572 291.126ZM118.357 279.768C117.985 279.768 117.673 279.642 117.421 279.39C117.169 279.138 117.043 278.826 117.043 278.454C117.043 278.082 117.169 277.77 117.421 277.518C117.673 277.266 117.985 277.14 118.357 277.14C118.717 277.14 119.023 277.266 119.275 277.518C119.527 277.77 119.653 278.082 119.653 278.454C119.653 278.826 119.527 279.138 119.275 279.39C119.023 279.642 118.717 279.768 118.357 279.768ZM119.365 281.082V291H117.313V281.082H119.365ZM126.055 280.92C126.823 280.92 127.501 281.076 128.089 281.388C128.689 281.688 129.157 282.066 129.493 282.522V281.082H131.563V291.162C131.563 292.074 131.371 292.884 130.987 293.592C130.603 294.312 130.045 294.876 129.313 295.284C128.593 295.692 127.729 295.896 126.721 295.896C125.377 295.896 124.261 295.578 123.373 294.942C122.485 294.318 121.981 293.466 121.861 292.386H123.895C124.051 292.902 124.381 293.316 124.885 293.628C125.401 293.952 126.013 294.114 126.721 294.114C127.549 294.114 128.215 293.862 128.719 293.358C129.235 292.854 129.493 292.122 129.493 291.162V289.506C129.145 289.974 128.671 290.37 128.071 290.694C127.483 291.006 126.811 291.162 126.055 291.162C125.191 291.162 124.399 290.946 123.679 290.514C122.971 290.07 122.407 289.458 121.987 288.678C121.579 287.886 121.375 286.992 121.375 285.996C121.375 285 121.579 284.118 121.987 283.35C122.407 282.582 122.971 281.988 123.679 281.568C124.399 281.136 125.191 280.92 126.055 280.92ZM129.493 286.032C129.493 285.348 129.349 284.754 129.061 284.25C128.785 283.746 128.419 283.362 127.963 283.098C127.507 282.834 127.015 282.702 126.487 282.702C125.959 282.702 125.467 282.834 125.011 283.098C124.555 283.35 124.183 283.728 123.895 284.232C123.619 284.724 123.481 285.312 123.481 285.996C123.481 286.68 123.619 287.28 123.895 287.796C124.183 288.312 124.555 288.708 125.011 288.984C125.479 289.248 125.971 289.38 126.487 289.38C127.015 289.38 127.507 289.248 127.963 288.984C128.419 288.72 128.785 288.336 129.061 287.832C129.349 287.316 129.493 286.716 129.493 286.032ZM139.262 280.92C140.042 280.92 140.738 281.082 141.35 281.406C141.974 281.73 142.46 282.21 142.808 282.846C143.156 283.482 143.33 284.25 143.33 285.15V291H141.296V285.456C141.296 284.568 141.074 283.89 140.63 283.422C140.186 282.942 139.58 282.702 138.812 282.702C138.044 282.702 137.432 282.942 136.976 283.422C136.532 283.89 136.31 284.568 136.31 285.456V291H134.258V281.082H136.31V282.216C136.646 281.808 137.072 281.49 137.588 281.262C138.116 281.034 138.674 280.92 139.262 280.92ZM152.657 278.49V286.464C152.657 287.412 152.903 288.126 153.395 288.606C153.899 289.086 154.595 289.326 155.483 289.326C156.383 289.326 157.079 289.086 157.571 288.606C158.075 288.126 158.327 287.412 158.327 286.464V278.49H160.379V286.428C160.379 287.448 160.157 288.312 159.713 289.02C159.269 289.728 158.675 290.256 157.931 290.604C157.187 290.952 156.365 291.126 155.465 291.126C154.565 291.126 153.743 290.952 152.999 290.604C152.267 290.256 151.685 289.728 151.253 289.02C150.821 288.312 150.605 287.448 150.605 286.428V278.49H152.657ZM165.103 282.54C165.451 282.084 165.925 281.7 166.525 281.388C167.125 281.076 167.803 280.92 168.559 280.92C169.423 280.92 170.209 281.136 170.917 281.568C171.637 281.988 172.201 282.582 172.609 283.35C173.017 284.118 173.221 285 173.221 285.996C173.221 286.992 173.017 287.886 172.609 288.678C172.201 289.458 171.637 290.07 170.917 290.514C170.209 290.946 169.423 291.162 168.559 291.162C167.803 291.162 167.131 291.012 166.543 290.712C165.955 290.4 165.475 290.016 165.103 289.56V295.716H163.051V281.082H165.103V282.54ZM171.133 285.996C171.133 285.312 170.989 284.724 170.701 284.232C170.425 283.728 170.053 283.35 169.585 283.098C169.129 282.834 168.637 282.702 168.109 282.702C167.593 282.702 167.101 282.834 166.633 283.098C166.177 283.362 165.805 283.746 165.517 284.25C165.241 284.754 165.103 285.348 165.103 286.032C165.103 286.716 165.241 287.316 165.517 287.832C165.805 288.336 166.177 288.72 166.633 288.984C167.101 289.248 167.593 289.38 168.109 289.38C168.637 289.38 169.129 289.248 169.585 288.984C170.053 288.708 170.425 288.312 170.701 287.796C170.989 287.28 171.133 286.68 171.133 285.996Z" fill="#222222"/>
<path d="M4.81856 320.816C6.0559 320.816 7.11723 321.04 8.00256 321.488C8.8879 321.936 9.56523 322.581 10.0346 323.424C10.5039 324.267 10.7386 325.269 10.7386 326.432C10.7386 327.584 10.5039 328.581 10.0346 329.424C9.56523 330.256 8.8879 330.896 8.00256 331.344C7.11723 331.781 6.0559 332 4.81856 332H1.50656V320.816H4.81856ZM4.81856 331.072C6.3759 331.072 7.5599 330.667 8.37056 329.856C9.1919 329.035 9.60256 327.893 9.60256 326.432C9.60256 324.96 9.1919 323.813 8.37056 322.992C7.5599 322.16 6.3759 321.744 4.81856 321.744H2.62656V331.072H4.81856ZM12.2914 327.616C12.2914 326.72 12.4674 325.936 12.8194 325.264C13.1821 324.581 13.6781 324.059 14.3074 323.696C14.9474 323.323 15.6674 323.136 16.4674 323.136C17.2994 323.136 18.0141 323.328 18.6114 323.712C19.2194 324.096 19.6568 324.587 19.9234 325.184V323.264H21.0434V332H19.9234V330.064C19.6461 330.661 19.2034 331.157 18.5954 331.552C17.9981 331.936 17.2834 332.128 16.4514 332.128C15.6621 332.128 14.9474 331.941 14.3074 331.568C13.6781 331.195 13.1821 330.667 12.8194 329.984C12.4674 329.301 12.2914 328.512 12.2914 327.616ZM19.9234 327.632C19.9234 326.928 19.7794 326.309 19.4914 325.776C19.2034 325.243 18.8088 324.832 18.3074 324.544C17.8168 324.256 17.2728 324.112 16.6754 324.112C16.0568 324.112 15.5021 324.251 15.0114 324.528C14.5208 324.805 14.1314 325.211 13.8434 325.744C13.5661 326.267 13.4274 326.891 13.4274 327.616C13.4274 328.331 13.5661 328.96 13.8434 329.504C14.1314 330.037 14.5208 330.448 15.0114 330.736C15.5021 331.013 16.0568 331.152 16.6754 331.152C17.2728 331.152 17.8168 331.008 18.3074 330.72C18.8088 330.432 19.2034 330.021 19.4914 329.488C19.7794 328.955 19.9234 328.336 19.9234 327.632ZM27.0403 324.208H25.0083V332H23.8883V324.208H22.6723V323.264H23.8883V322.656C23.8883 321.707 24.1283 321.008 24.6083 320.56C25.099 320.112 25.8883 319.888 26.9763 319.888V320.848C26.251 320.848 25.739 320.987 25.4403 321.264C25.1523 321.541 25.0083 322.005 25.0083 322.656V323.264H27.0403V324.208ZM30.2594 324.208V329.632C30.2594 330.165 30.3608 330.533 30.5634 330.736C30.7661 330.939 31.1234 331.04 31.6354 331.04H32.6594V332H31.4594C30.6701 332 30.0834 331.819 29.6994 331.456C29.3154 331.083 29.1234 330.475 29.1234 329.632V324.208H27.9074V323.264H29.1234V321.072H30.2594V323.264H32.6594V324.208H30.2594ZM33.9946 327.616C33.9946 326.72 34.1706 325.936 34.5226 325.264C34.8852 324.581 35.3812 324.059 36.0106 323.696C36.6506 323.323 37.3706 323.136 38.1706 323.136C39.0026 323.136 39.7172 323.328 40.3146 323.712C40.9226 324.096 41.3599 324.587 41.6266 325.184V323.264H42.7466V332H41.6266V330.064C41.3492 330.661 40.9066 331.157 40.2986 331.552C39.7012 331.936 38.9866 332.128 38.1546 332.128C37.3652 332.128 36.6506 331.941 36.0106 331.568C35.3812 331.195 34.8852 330.667 34.5226 329.984C34.1706 329.301 33.9946 328.512 33.9946 327.616ZM41.6266 327.632C41.6266 326.928 41.4826 326.309 41.1946 325.776C40.9066 325.243 40.5119 324.832 40.0106 324.544C39.5199 324.256 38.9759 324.112 38.3786 324.112C37.7599 324.112 37.2052 324.251 36.7146 324.528C36.2239 324.805 35.8346 325.211 35.5466 325.744C35.2692 326.267 35.1306 326.891 35.1306 327.616C35.1306 328.331 35.2692 328.96 35.5466 329.504C35.8346 330.037 36.2239 330.448 36.7146 330.736C37.2052 331.013 37.7599 331.152 38.3786 331.152C38.9759 331.152 39.5199 331.008 40.0106 330.72C40.5119 330.432 40.9066 330.021 41.1946 329.488C41.4826 328.955 41.6266 328.336 41.6266 327.632ZM46.4234 324.816C46.6688 324.272 47.0421 323.851 47.5434 323.552C48.0554 323.253 48.6794 323.104 49.4154 323.104V324.272H49.1114C48.3008 324.272 47.6501 324.491 47.1594 324.928C46.6688 325.365 46.4234 326.096 46.4234 327.12V332H45.3034V323.264H46.4234V324.816ZM55.8203 332L52.2203 328.08V332H51.1003V320.16H52.2203V327.168L55.7403 323.264H57.3083L53.1643 327.616L57.3403 332H55.8203ZM58.2758 327.616C58.2758 326.72 58.4518 325.936 58.8038 325.264C59.1665 324.581 59.6625 324.059 60.2918 323.696C60.9318 323.323 61.6518 323.136 62.4518 323.136C63.2838 323.136 63.9985 323.328 64.5958 323.712C65.2038 324.096 65.6411 324.587 65.9078 325.184V323.264H67.0278V332H65.9078V330.064C65.6305 330.661 65.1878 331.157 64.5798 331.552C63.9825 331.936 63.2678 332.128 62.4358 332.128C61.6465 332.128 60.9318 331.941 60.2918 331.568C59.6625 331.195 59.1665 330.667 58.8038 329.984C58.4518 329.301 58.2758 328.512 58.2758 327.616ZM65.9078 327.632C65.9078 326.928 65.7638 326.309 65.4758 325.776C65.1878 325.243 64.7931 324.832 64.2918 324.544C63.8011 324.256 63.2571 324.112 62.6598 324.112C62.0411 324.112 61.4865 324.251 60.9958 324.528C60.5051 324.805 60.1158 325.211 59.8278 325.744C59.5505 326.267 59.4118 326.891 59.4118 327.616C59.4118 328.331 59.5505 328.96 59.8278 329.504C60.1158 330.037 60.5051 330.448 60.9958 330.736C61.4865 331.013 62.0411 331.152 62.6598 331.152C63.2571 331.152 63.8011 331.008 64.2918 330.72C64.7931 330.432 65.1878 330.021 65.4758 329.488C65.7638 328.955 65.9078 328.336 65.9078 327.632ZM73.6807 323.104C74.726 323.104 75.5794 323.429 76.2407 324.08C76.902 324.72 77.2327 325.653 77.2327 326.88V332H76.1287V327.008C76.1287 326.059 75.8887 325.333 75.4087 324.832C74.9394 324.331 74.294 324.08 73.4727 324.08C72.63 324.08 71.958 324.347 71.4567 324.88C70.9554 325.413 70.7047 326.197 70.7047 327.232V332H69.5847V323.264H70.7047V324.752C70.982 324.219 71.382 323.813 71.9047 323.536C72.4274 323.248 73.0194 323.104 73.6807 323.104ZM83.5883 327.616C83.5883 326.72 83.7643 325.936 84.1163 325.264C84.479 324.581 84.975 324.059 85.6043 323.696C86.2443 323.323 86.9643 323.136 87.7643 323.136C88.5963 323.136 89.311 323.328 89.9083 323.712C90.5163 324.096 90.9536 324.587 91.2203 325.184V323.264H92.3403V332H91.2203V330.064C90.943 330.661 90.5003 331.157 89.8923 331.552C89.295 331.936 88.5803 332.128 87.7483 332.128C86.959 332.128 86.2443 331.941 85.6043 331.568C84.975 331.195 84.479 330.667 84.1163 329.984C83.7643 329.301 83.5883 328.512 83.5883 327.616ZM91.2203 327.632C91.2203 326.928 91.0763 326.309 90.7883 325.776C90.5003 325.243 90.1056 324.832 89.6043 324.544C89.1136 324.256 88.5696 324.112 87.9723 324.112C87.3536 324.112 86.799 324.251 86.3083 324.528C85.8176 324.805 85.4283 325.211 85.1403 325.744C84.863 326.267 84.7243 326.891 84.7243 327.616C84.7243 328.331 84.863 328.96 85.1403 329.504C85.4283 330.037 85.8176 330.448 86.3083 330.736C86.799 331.013 87.3536 331.152 87.9723 331.152C88.5696 331.152 89.1136 331.008 89.6043 330.72C90.1056 330.432 90.5003 330.021 90.7883 329.488C91.0763 328.955 91.2203 328.336 91.2203 327.632ZM99.6172 332L96.0172 328.08V332H94.8972V320.16H96.0172V327.168L99.5372 323.264H101.105L96.9612 327.616L101.137 332H99.6172ZM110.153 323.264V332H109.033V330.464C108.777 331.008 108.382 331.424 107.849 331.712C107.315 332 106.718 332.144 106.057 332.144C105.011 332.144 104.158 331.824 103.497 331.184C102.835 330.533 102.505 329.595 102.505 328.368V323.264H103.609V328.24C103.609 329.189 103.843 329.915 104.313 330.416C104.793 330.917 105.443 331.168 106.265 331.168C107.107 331.168 107.779 330.901 108.281 330.368C108.782 329.835 109.033 329.051 109.033 328.016V323.264H110.153ZM116.806 323.104C117.851 323.104 118.704 323.429 119.366 324.08C120.027 324.72 120.358 325.653 120.358 326.88V332H119.254V327.008C119.254 326.059 119.014 325.333 118.534 324.832C118.064 324.331 117.419 324.08 116.598 324.08C115.755 324.08 115.083 324.347 114.582 324.88C114.08 325.413 113.83 326.197 113.83 327.232V332H112.71V323.264H113.83V324.752C114.107 324.219 114.507 323.813 115.03 323.536C115.552 323.248 116.144 323.104 116.806 323.104ZM133.705 329.344H128.617L127.641 332H126.457L130.537 320.96H131.801L135.865 332H134.681L133.705 329.344ZM133.369 328.416L131.161 322.368L128.953 328.416H133.369ZM141.759 323.104C142.804 323.104 143.657 323.429 144.319 324.08C144.98 324.72 145.311 325.653 145.311 326.88V332H144.207V327.008C144.207 326.059 143.967 325.333 143.487 324.832C143.017 324.331 142.372 324.08 141.551 324.08C140.708 324.08 140.036 324.347 139.535 324.88C139.033 325.413 138.783 326.197 138.783 327.232V332H137.663V323.264H138.783V324.752C139.06 324.219 139.46 323.813 139.983 323.536C140.505 323.248 141.097 323.104 141.759 323.104ZM147.276 327.616C147.276 326.72 147.457 325.936 147.82 325.264C148.182 324.581 148.678 324.059 149.308 323.696C149.948 323.323 150.668 323.136 151.468 323.136C152.236 323.136 152.929 323.323 153.548 323.696C154.166 324.069 154.62 324.555 154.908 325.152V320.16H156.028V332H154.908V330.048C154.641 330.656 154.204 331.157 153.596 331.552C152.988 331.936 152.273 332.128 151.452 332.128C150.652 332.128 149.932 331.941 149.292 331.568C148.662 331.195 148.166 330.667 147.804 329.984C147.452 329.301 147.276 328.512 147.276 327.616ZM154.908 327.632C154.908 326.928 154.764 326.309 154.476 325.776C154.188 325.243 153.793 324.832 153.292 324.544C152.801 324.256 152.257 324.112 151.66 324.112C151.041 324.112 150.486 324.251 149.996 324.528C149.505 324.805 149.116 325.211 148.828 325.744C148.55 326.267 148.412 326.891 148.412 327.616C148.412 328.331 148.55 328.96 148.828 329.504C149.116 330.037 149.505 330.448 149.996 330.736C150.486 331.013 151.041 331.152 151.66 331.152C152.257 331.152 152.801 331.008 153.292 330.72C153.793 330.432 154.188 330.021 154.476 329.488C154.764 328.955 154.908 328.336 154.908 327.632ZM158.073 327.616C158.073 326.72 158.249 325.936 158.601 325.264C158.963 324.581 159.459 324.059 160.089 323.696C160.729 323.323 161.449 323.136 162.249 323.136C163.081 323.136 163.795 323.328 164.393 323.712C165.001 324.096 165.438 324.587 165.705 325.184V323.264H166.825V332H165.705V330.064C165.427 330.661 164.985 331.157 164.377 331.552C163.779 331.936 163.065 332.128 162.233 332.128C161.443 332.128 160.729 331.941 160.089 331.568C159.459 331.195 158.963 330.667 158.601 329.984C158.249 329.301 158.073 328.512 158.073 327.616ZM165.705 327.632C165.705 326.928 165.561 326.309 165.273 325.776C164.985 325.243 164.59 324.832 164.089 324.544C163.598 324.256 163.054 324.112 162.457 324.112C161.838 324.112 161.283 324.251 160.793 324.528C160.302 324.805 159.913 325.211 159.625 325.744C159.347 326.267 159.209 326.891 159.209 327.616C159.209 328.331 159.347 328.96 159.625 329.504C159.913 330.037 160.302 330.448 160.793 330.736C161.283 331.013 161.838 331.152 162.457 331.152C163.054 331.152 163.598 331.008 164.089 330.72C164.59 330.432 164.985 330.021 165.273 329.488C165.561 328.955 165.705 328.336 165.705 327.632ZM173.26 327.616C173.26 326.72 173.442 325.936 173.804 325.264C174.167 324.581 174.663 324.059 175.292 323.696C175.932 323.323 176.652 323.136 177.452 323.136C178.22 323.136 178.914 323.323 179.532 323.696C180.151 324.069 180.604 324.555 180.892 325.152V320.16H182.012V332H180.892V330.048C180.626 330.656 180.188 331.157 179.58 331.552C178.972 331.936 178.258 332.128 177.436 332.128C176.636 332.128 175.916 331.941 175.276 331.568C174.647 331.195 174.151 330.667 173.788 329.984C173.436 329.301 173.26 328.512 173.26 327.616ZM180.892 327.632C180.892 326.928 180.748 326.309 180.46 325.776C180.172 325.243 179.778 324.832 179.276 324.544C178.786 324.256 178.242 324.112 177.644 324.112C177.026 324.112 176.471 324.251 175.98 324.528C175.49 324.805 175.1 325.211 174.812 325.744C174.535 326.267 174.396 326.891 174.396 327.616C174.396 328.331 174.535 328.96 174.812 329.504C175.1 330.037 175.49 330.448 175.98 330.736C176.471 331.013 177.026 331.152 177.644 331.152C178.242 331.152 178.786 331.008 179.276 330.72C179.778 330.432 180.172 330.021 180.46 329.488C180.748 328.955 180.892 328.336 180.892 327.632ZM184.057 327.616C184.057 326.72 184.233 325.936 184.585 325.264C184.948 324.581 185.444 324.059 186.073 323.696C186.713 323.323 187.433 323.136 188.233 323.136C189.065 323.136 189.78 323.328 190.377 323.712C190.985 324.096 191.422 324.587 191.689 325.184V323.264H192.809V332H191.689V330.064C191.412 330.661 190.969 331.157 190.361 331.552C189.764 331.936 189.049 332.128 188.217 332.128C187.428 332.128 186.713 331.941 186.073 331.568C185.444 331.195 184.948 330.667 184.585 329.984C184.233 329.301 184.057 328.512 184.057 327.616ZM191.689 327.632C191.689 326.928 191.545 326.309 191.257 325.776C190.969 325.243 190.574 324.832 190.073 324.544C189.582 324.256 189.038 324.112 188.441 324.112C187.822 324.112 187.268 324.251 186.777 324.528C186.286 324.805 185.897 325.211 185.609 325.744C185.332 326.267 185.193 326.891 185.193 327.616C185.193 328.331 185.332 328.96 185.609 329.504C185.897 330.037 186.286 330.448 186.777 330.736C187.268 331.013 187.822 331.152 188.441 331.152C189.038 331.152 189.582 331.008 190.073 330.72C190.574 330.432 190.969 330.021 191.257 329.488C191.545 328.955 191.689 328.336 191.689 327.632ZM199.462 323.104C200.507 323.104 201.361 323.429 202.022 324.08C202.683 324.72 203.014 325.653 203.014 326.88V332H201.91V327.008C201.91 326.059 201.67 325.333 201.19 324.832C200.721 324.331 200.075 324.08 199.254 324.08C198.411 324.08 197.739 324.347 197.238 324.88C196.737 325.413 196.486 326.197 196.486 327.232V332H195.366V323.264H196.486V324.752C196.763 324.219 197.163 323.813 197.686 323.536C198.209 323.248 198.801 323.104 199.462 323.104ZM220.282 323.104C221.306 323.104 222.138 323.429 222.778 324.08C223.428 324.72 223.754 325.653 223.754 326.88V332H222.65V327.008C222.65 326.059 222.42 325.333 221.962 324.832C221.503 324.331 220.879 324.08 220.09 324.08C219.268 324.08 218.612 324.352 218.122 324.896C217.631 325.44 217.386 326.229 217.386 327.264V332H216.282V327.008C216.282 326.059 216.052 325.333 215.594 324.832C215.135 324.331 214.506 324.08 213.706 324.08C212.884 324.08 212.228 324.352 211.738 324.896C211.247 325.44 211.002 326.229 211.002 327.264V332H209.882V323.264H211.002V324.768C211.279 324.224 211.674 323.813 212.186 323.536C212.698 323.248 213.268 323.104 213.898 323.104C214.655 323.104 215.316 323.285 215.882 323.648C216.458 324.011 216.874 324.544 217.13 325.248C217.364 324.555 217.764 324.027 218.33 323.664C218.906 323.291 219.556 323.104 220.282 323.104ZM233.809 323.264V332H232.689V330.464C232.433 331.008 232.038 331.424 231.505 331.712C230.972 332 230.374 332.144 229.713 332.144C228.668 332.144 227.814 331.824 227.153 331.184C226.492 330.533 226.161 329.595 226.161 328.368V323.264H227.265V328.24C227.265 329.189 227.5 329.915 227.969 330.416C228.449 330.917 229.1 331.168 229.921 331.168C230.764 331.168 231.436 330.901 231.937 330.368C232.438 329.835 232.689 329.051 232.689 328.016V323.264H233.809ZM237.486 320.16V332H236.366V320.16H237.486ZM239.51 327.616C239.51 326.72 239.686 325.936 240.038 325.264C240.401 324.581 240.897 324.059 241.526 323.696C242.166 323.323 242.886 323.136 243.686 323.136C244.518 323.136 245.233 323.328 245.83 323.712C246.438 324.096 246.876 324.587 247.142 325.184V323.264H248.262V332H247.142V330.064C246.865 330.661 246.422 331.157 245.814 331.552C245.217 331.936 244.502 332.128 243.67 332.128C242.881 332.128 242.166 331.941 241.526 331.568C240.897 331.195 240.401 330.667 240.038 329.984C239.686 329.301 239.51 328.512 239.51 327.616ZM247.142 327.632C247.142 326.928 246.998 326.309 246.71 325.776C246.422 325.243 246.028 324.832 245.526 324.544C245.036 324.256 244.492 324.112 243.894 324.112C243.276 324.112 242.721 324.251 242.23 324.528C241.74 324.805 241.35 325.211 241.062 325.744C240.785 326.267 240.646 326.891 240.646 327.616C240.646 328.331 240.785 328.96 241.062 329.504C241.35 330.037 241.74 330.448 242.23 330.736C242.721 331.013 243.276 331.152 243.894 331.152C244.492 331.152 245.036 331.008 245.526 330.72C246.028 330.432 246.422 330.021 246.71 329.488C246.998 328.955 247.142 328.336 247.142 327.632ZM251.379 321.616C251.155 321.616 250.963 321.536 250.803 321.376C250.643 321.216 250.563 321.019 250.563 320.784C250.563 320.549 250.643 320.357 250.803 320.208C250.963 320.048 251.155 319.968 251.379 319.968C251.603 319.968 251.795 320.048 251.955 320.208C252.115 320.357 252.195 320.549 252.195 320.784C252.195 321.019 252.115 321.216 251.955 321.376C251.795 321.536 251.603 321.616 251.379 321.616ZM251.939 323.264V332H250.819V323.264H251.939ZM255.595 320.16V332H254.475V320.16H255.595ZM257.62 327.616C257.62 326.72 257.796 325.936 258.148 325.264C258.51 324.581 259.006 324.059 259.636 323.696C260.276 323.323 260.996 323.136 261.796 323.136C262.628 323.136 263.342 323.328 263.94 323.712C264.548 324.096 264.985 324.587 265.252 325.184V323.264H266.372V332H265.252V330.064C264.974 330.661 264.532 331.157 263.924 331.552C263.326 331.936 262.612 332.128 261.78 332.128C260.99 332.128 260.276 331.941 259.636 331.568C259.006 331.195 258.51 330.667 258.148 329.984C257.796 329.301 257.62 328.512 257.62 327.616ZM265.252 327.632C265.252 326.928 265.108 326.309 264.82 325.776C264.532 325.243 264.137 324.832 263.636 324.544C263.145 324.256 262.601 324.112 262.004 324.112C261.385 324.112 260.83 324.251 260.34 324.528C259.849 324.805 259.46 325.211 259.172 325.744C258.894 326.267 258.756 326.891 258.756 327.616C258.756 328.331 258.894 328.96 259.172 329.504C259.46 330.037 259.849 330.448 260.34 330.736C260.83 331.013 261.385 331.152 262.004 331.152C262.601 331.152 263.145 331.008 263.636 330.72C264.137 330.432 264.532 330.021 264.82 329.488C265.108 328.955 265.252 328.336 265.252 327.632ZM273.088 323.104C273.75 323.104 274.342 323.243 274.864 323.52C275.398 323.797 275.814 324.224 276.112 324.8C276.422 325.365 276.576 326.059 276.576 326.88V332H275.472V327.008C275.472 326.059 275.232 325.333 274.752 324.832C274.283 324.331 273.638 324.08 272.816 324.08C271.974 324.08 271.302 324.347 270.8 324.88C270.299 325.413 270.048 326.197 270.048 327.232V332H268.928V320.16H270.048V324.752C270.326 324.229 270.731 323.824 271.264 323.536C271.808 323.248 272.416 323.104 273.088 323.104ZM79.1409 347.104C80.1649 347.104 80.9969 347.429 81.6369 348.08C82.2876 348.72 82.6129 349.653 82.6129 350.88V356H81.5089V351.008C81.5089 350.059 81.2796 349.333 80.8209 348.832C80.3623 348.331 79.7383 348.08 78.9489 348.08C78.1276 348.08 77.4716 348.352 76.9809 348.896C76.4903 349.44 76.2449 350.229 76.2449 351.264V356H75.1409V351.008C75.1409 350.059 74.9116 349.333 74.4529 348.832C73.9943 348.331 73.3649 348.08 72.5649 348.08C71.7436 348.08 71.0876 348.352 70.5969 348.896C70.1063 349.44 69.8609 350.229 69.8609 351.264V356H68.7409V347.264H69.8609V348.768C70.1383 348.224 70.5329 347.813 71.0449 347.536C71.5569 347.248 72.1276 347.104 72.7569 347.104C73.5143 347.104 74.1756 347.285 74.7409 347.648C75.3169 348.011 75.7329 348.544 75.9889 349.248C76.2236 348.555 76.6236 348.027 77.1889 347.664C77.7649 347.291 78.4156 347.104 79.1409 347.104ZM93.0043 351.184C93.0043 351.568 92.9936 351.861 92.9723 352.064H85.7243C85.7563 352.725 85.9163 353.291 86.2043 353.76C86.4923 354.229 86.871 354.587 87.3403 354.832C87.8096 355.067 88.3216 355.184 88.8763 355.184C89.6016 355.184 90.2096 355.008 90.7003 354.656C91.2016 354.304 91.5323 353.829 91.6923 353.232H92.8763C92.663 354.085 92.2043 354.784 91.5003 355.328C90.807 355.861 89.9323 356.128 88.8763 356.128C88.055 356.128 87.319 355.947 86.6683 355.584C86.0176 355.211 85.5056 354.688 85.1323 354.016C84.7696 353.333 84.5883 352.539 84.5883 351.632C84.5883 350.725 84.7696 349.931 85.1323 349.248C85.495 348.565 86.0016 348.043 86.6523 347.68C87.303 347.317 88.0443 347.136 88.8763 347.136C89.7083 347.136 90.4336 347.317 91.0523 347.68C91.6816 348.043 92.1616 348.533 92.4923 349.152C92.8336 349.76 93.0043 350.437 93.0043 351.184ZM91.8683 351.152C91.879 350.501 91.7456 349.947 91.4683 349.488C91.2016 349.029 90.8336 348.683 90.3643 348.448C89.895 348.213 89.383 348.096 88.8283 348.096C87.9963 348.096 87.287 348.363 86.7003 348.896C86.1136 349.429 85.7883 350.181 85.7243 351.152H91.8683ZM99.1494 347.104C100.195 347.104 101.048 347.429 101.709 348.08C102.371 348.72 102.701 349.653 102.701 350.88V356H101.597V351.008C101.597 350.059 101.357 349.333 100.877 348.832C100.408 348.331 99.7628 348.08 98.9414 348.08C98.0988 348.08 97.4268 348.347 96.9254 348.88C96.4241 349.413 96.1734 350.197 96.1734 351.232V356H95.0534V347.264H96.1734V348.752C96.4508 348.219 96.8508 347.813 97.3734 347.536C97.8961 347.248 98.4881 347.104 99.1494 347.104ZM104.666 351.616C104.666 350.72 104.848 349.936 105.21 349.264C105.573 348.581 106.069 348.059 106.698 347.696C107.338 347.323 108.058 347.136 108.858 347.136C109.626 347.136 110.32 347.323 110.938 347.696C111.557 348.069 112.01 348.555 112.298 349.152V344.16H113.418V356H112.298V354.048C112.032 354.656 111.594 355.157 110.986 355.552C110.378 355.936 109.664 356.128 108.842 356.128C108.042 356.128 107.322 355.941 106.682 355.568C106.053 355.195 105.557 354.667 105.194 353.984C104.842 353.301 104.666 352.512 104.666 351.616ZM112.298 351.632C112.298 350.928 112.154 350.309 111.866 349.776C111.578 349.243 111.184 348.832 110.682 348.544C110.192 348.256 109.648 348.112 109.05 348.112C108.432 348.112 107.877 348.251 107.386 348.528C106.896 348.805 106.506 349.211 106.218 349.744C105.941 350.267 105.802 350.891 105.802 351.616C105.802 352.331 105.941 352.96 106.218 353.504C106.506 354.037 106.896 354.448 107.386 354.736C107.877 355.013 108.432 355.152 109.05 355.152C109.648 355.152 110.192 355.008 110.682 354.72C111.184 354.432 111.578 354.021 111.866 353.488C112.154 352.955 112.298 352.336 112.298 351.632ZM115.463 351.616C115.463 350.72 115.639 349.936 115.991 349.264C116.354 348.581 116.85 348.059 117.479 347.696C118.119 347.323 118.839 347.136 119.639 347.136C120.471 347.136 121.186 347.328 121.783 347.712C122.391 348.096 122.829 348.587 123.095 349.184V347.264H124.215V356H123.095V354.064C122.818 354.661 122.375 355.157 121.767 355.552C121.17 355.936 120.455 356.128 119.623 356.128C118.834 356.128 118.119 355.941 117.479 355.568C116.85 355.195 116.354 354.667 115.991 353.984C115.639 353.301 115.463 352.512 115.463 351.616ZM123.095 351.632C123.095 350.928 122.951 350.309 122.663 349.776C122.375 349.243 121.981 348.832 121.479 348.544C120.989 348.256 120.445 348.112 119.847 348.112C119.229 348.112 118.674 348.251 118.183 348.528C117.693 348.805 117.303 349.211 117.015 349.744C116.738 350.267 116.599 350.891 116.599 351.616C116.599 352.331 116.738 352.96 117.015 353.504C117.303 354.037 117.693 354.448 118.183 354.736C118.674 355.013 119.229 355.152 119.847 355.152C120.445 355.152 120.989 355.008 121.479 354.72C121.981 354.432 122.375 354.021 122.663 353.488C122.951 352.955 123.095 352.336 123.095 351.632ZM130.868 347.104C131.914 347.104 132.767 347.429 133.428 348.08C134.09 348.72 134.42 349.653 134.42 350.88V356H133.316V351.008C133.316 350.059 133.076 349.333 132.596 348.832C132.127 348.331 131.482 348.08 130.66 348.08C129.818 348.08 129.146 348.347 128.644 348.88C128.143 349.413 127.892 350.197 127.892 351.232V356H126.772V347.264H127.892V348.752C128.17 348.219 128.57 347.813 129.092 347.536C129.615 347.248 130.207 347.104 130.868 347.104ZM136.385 351.616C136.385 350.72 136.561 349.936 136.913 349.264C137.276 348.581 137.772 348.059 138.401 347.696C139.041 347.323 139.761 347.136 140.561 347.136C141.393 347.136 142.108 347.328 142.705 347.712C143.313 348.096 143.751 348.587 144.017 349.184V347.264H145.137V356H144.017V354.064C143.74 354.661 143.297 355.157 142.689 355.552C142.092 355.936 141.377 356.128 140.545 356.128C139.756 356.128 139.041 355.941 138.401 355.568C137.772 355.195 137.276 354.667 136.913 353.984C136.561 353.301 136.385 352.512 136.385 351.616ZM144.017 351.632C144.017 350.928 143.873 350.309 143.585 349.776C143.297 349.243 142.903 348.832 142.401 348.544C141.911 348.256 141.367 348.112 140.769 348.112C140.151 348.112 139.596 348.251 139.105 348.528C138.615 348.805 138.225 349.211 137.937 349.744C137.66 350.267 137.521 350.891 137.521 351.616C137.521 352.331 137.66 352.96 137.937 353.504C138.225 354.037 138.615 354.448 139.105 354.736C139.596 355.013 140.151 355.152 140.769 355.152C141.367 355.152 141.911 355.008 142.401 354.72C142.903 354.432 143.297 354.021 143.585 353.488C143.873 352.955 144.017 352.336 144.017 351.632ZM148.254 345.616C148.03 345.616 147.838 345.536 147.678 345.376C147.518 345.216 147.438 345.019 147.438 344.784C147.438 344.549 147.518 344.357 147.678 344.208C147.838 344.048 148.03 343.968 148.254 343.968C148.478 343.968 148.67 344.048 148.83 344.208C148.99 344.357 149.07 344.549 149.07 344.784C149.07 345.019 148.99 345.216 148.83 345.376C148.67 345.536 148.478 345.616 148.254 345.616ZM148.814 347.264V356H147.694V347.264H148.814ZM156.845 349.184C157.122 348.597 157.56 348.112 158.157 347.728C158.765 347.333 159.485 347.136 160.317 347.136C161.106 347.136 161.816 347.323 162.445 347.696C163.085 348.059 163.581 348.581 163.933 349.264C164.296 349.936 164.477 350.72 164.477 351.616C164.477 352.512 164.296 353.301 163.933 353.984C163.581 354.667 163.085 355.195 162.445 355.568C161.816 355.941 161.106 356.128 160.317 356.128C159.496 356.128 158.781 355.936 158.173 355.552C157.565 355.157 157.122 354.667 156.845 354.08V360.128H155.741V347.264H156.845V349.184ZM163.341 351.616C163.341 350.891 163.197 350.267 162.909 349.744C162.632 349.211 162.248 348.805 161.757 348.528C161.266 348.251 160.712 348.112 160.093 348.112C159.496 348.112 158.946 348.256 158.445 348.544C157.954 348.832 157.565 349.243 157.277 349.776C156.989 350.309 156.845 350.928 156.845 351.632C156.845 352.336 156.989 352.955 157.277 353.488C157.565 354.021 157.954 354.432 158.445 354.72C158.946 355.008 159.496 355.152 160.093 355.152C160.712 355.152 161.266 355.013 161.757 354.736C162.248 354.448 162.632 354.037 162.909 353.504C163.197 352.96 163.341 352.331 163.341 351.616ZM167.658 348.816C167.903 348.272 168.276 347.851 168.778 347.552C169.29 347.253 169.914 347.104 170.65 347.104V348.272H170.346C169.535 348.272 168.884 348.491 168.394 348.928C167.903 349.365 167.658 350.096 167.658 351.12V356H166.538V347.264H167.658V348.816ZM176.159 356.128C175.337 356.128 174.596 355.947 173.935 355.584C173.284 355.211 172.767 354.688 172.383 354.016C172.009 353.333 171.823 352.539 171.823 351.632C171.823 350.725 172.015 349.936 172.399 349.264C172.783 348.581 173.305 348.059 173.967 347.696C174.628 347.323 175.369 347.136 176.191 347.136C177.012 347.136 177.753 347.323 178.415 347.696C179.087 348.059 179.609 348.581 179.983 349.264C180.367 349.936 180.559 350.725 180.559 351.632C180.559 352.528 180.367 353.317 179.983 354C179.599 354.683 179.071 355.211 178.399 355.584C177.727 355.947 176.98 356.128 176.159 356.128ZM176.159 355.152C176.735 355.152 177.268 355.024 177.759 354.768C178.249 354.501 178.644 354.107 178.943 353.584C179.252 353.051 179.407 352.4 179.407 351.632C179.407 350.864 179.257 350.219 178.959 349.696C178.66 349.163 178.265 348.768 177.775 348.512C177.284 348.245 176.751 348.112 176.175 348.112C175.599 348.112 175.065 348.245 174.575 348.512C174.084 348.768 173.689 349.163 173.391 349.696C173.103 350.219 172.959 350.864 172.959 351.632C172.959 352.4 173.103 353.051 173.391 353.584C173.689 354.107 174.079 354.501 174.559 354.768C175.049 355.024 175.583 355.152 176.159 355.152ZM183.24 345.616C183.016 345.616 182.824 345.536 182.664 345.376C182.504 345.216 182.424 345.019 182.424 344.784C182.424 344.549 182.504 344.357 182.664 344.208C182.824 344.048 183.016 343.968 183.24 343.968C183.464 343.968 183.651 344.048 183.8 344.208C183.96 344.357 184.04 344.549 184.04 344.784C184.04 345.019 183.96 345.216 183.8 345.376C183.651 345.536 183.464 345.616 183.24 345.616ZM183.784 358.064C183.784 358.768 183.608 359.285 183.256 359.616C182.904 359.957 182.376 360.128 181.672 360.128H180.888V359.168H181.496C181.912 359.168 182.211 359.077 182.392 358.896C182.574 358.725 182.664 358.432 182.664 358.016V347.264H183.784V358.064ZM194.254 351.184C194.254 351.568 194.244 351.861 194.222 352.064H186.974C187.006 352.725 187.166 353.291 187.454 353.76C187.742 354.229 188.121 354.587 188.59 354.832C189.06 355.067 189.572 355.184 190.126 355.184C190.852 355.184 191.46 355.008 191.95 354.656C192.452 354.304 192.782 353.829 192.942 353.232H194.126C193.913 354.085 193.454 354.784 192.75 355.328C192.057 355.861 191.182 356.128 190.126 356.128C189.305 356.128 188.569 355.947 187.918 355.584C187.268 355.211 186.756 354.688 186.382 354.016C186.02 353.333 185.838 352.539 185.838 351.632C185.838 350.725 186.02 349.931 186.382 349.248C186.745 348.565 187.252 348.043 187.902 347.68C188.553 347.317 189.294 347.136 190.126 347.136C190.958 347.136 191.684 347.317 192.302 347.68C192.932 348.043 193.412 348.533 193.742 349.152C194.084 349.76 194.254 350.437 194.254 351.184ZM193.118 351.152C193.129 350.501 192.996 349.947 192.718 349.488C192.452 349.029 192.084 348.683 191.614 348.448C191.145 348.213 190.633 348.096 190.078 348.096C189.246 348.096 188.537 348.363 187.95 348.896C187.364 349.429 187.038 350.181 186.974 351.152H193.118ZM195.791 351.632C195.791 350.725 195.973 349.936 196.335 349.264C196.698 348.581 197.199 348.059 197.839 347.696C198.479 347.323 199.21 347.136 200.031 347.136C201.109 347.136 201.994 347.403 202.687 347.936C203.391 348.469 203.845 349.195 204.047 350.112H202.847C202.698 349.483 202.373 348.992 201.871 348.64C201.381 348.277 200.767 348.096 200.031 348.096C199.445 348.096 198.917 348.229 198.447 348.496C197.978 348.763 197.605 349.163 197.327 349.696C197.061 350.219 196.927 350.864 196.927 351.632C196.927 352.4 197.061 353.051 197.327 353.584C197.605 354.117 197.978 354.517 198.447 354.784C198.917 355.051 199.445 355.184 200.031 355.184C200.767 355.184 201.381 355.008 201.871 354.656C202.373 354.293 202.698 353.792 202.847 353.152H204.047C203.845 354.048 203.391 354.768 202.687 355.312C201.983 355.856 201.098 356.128 200.031 356.128C199.21 356.128 198.479 355.947 197.839 355.584C197.199 355.211 196.698 354.688 196.335 354.016C195.973 353.333 195.791 352.539 195.791 351.632ZM207.572 348.208V353.632C207.572 354.165 207.673 354.533 207.876 354.736C208.079 354.939 208.436 355.04 208.948 355.04H209.972V356H208.772C207.983 356 207.396 355.819 207.012 355.456C206.628 355.083 206.436 354.475 206.436 353.632V348.208H205.22V347.264H206.436V345.072H207.572V347.264H209.972V348.208H207.572Z" fill="#222222"/>
<path d="M109.2 104.49C119.917 104.49 128.597 113.172 128.597 123.889C128.597 134.606 119.91 143.286 109.2 143.286C98.49 143.286 89.8013 134.606 89.8013 123.889C89.8013 113.172 98.4781 104.49 109.2 104.49ZM109.2 103.902C98.1644 103.902 89.2122 112.853 89.2122 123.889C89.2122 134.924 98.1602 143.875 109.2 143.875C120.24 143.875 129.186 134.924 129.186 123.889C129.186 112.854 120.23 103.902 109.2 103.902ZM207.533 97.1173C209.73 97.154 211.894 97.6551 213.883 98.5878C222.128 102.419 229.105 113.978 229.105 135.464C229.105 173.352 197.982 221.715 142.821 237.136C115.264 244.84 87.0677 238.995 68.6643 226.276C59.4588 219.918 52.7098 211.845 49.6906 202.91C46.6714 193.975 47.3633 184.164 53.0847 174.256C64.0046 155.341 76.6739 151.248 91.4452 150.53C106.216 149.813 123.072 152.548 142.081 147.343C179.941 136.976 190.46 108.299 190.54 108.084C194.665 100.944 201.096 97.0196 207.529 97.119L207.533 97.1173ZM207.555 96.5368C200.891 96.4399 194.239 100.504 190.027 107.798C190.019 107.813 190.012 107.829 190.006 107.845C190.006 107.845 179.692 136.435 141.93 146.775C123.06 151.942 106.286 149.219 91.4214 149.941C76.5566 150.664 63.5805 154.908 52.5764 173.962C46.7819 183.998 46.0628 194.01 49.133 203.098C52.2032 212.186 59.044 220.347 68.3269 226.762C86.8917 239.592 115.247 245.458 142.975 237.705C198.388 222.212 229.687 173.67 229.687 135.464C229.687 113.85 222.664 102.023 214.132 98.0549C212.072 97.0898 209.83 96.5724 207.554 96.5368H207.555ZM179.968 92.7407C180.648 92.7407 181.313 92.9422 181.878 93.3198C182.443 93.6974 182.883 94.2341 183.143 94.8621C183.403 95.49 183.472 96.181 183.339 96.8476C183.206 97.5143 182.879 98.1266 182.398 98.6072C181.918 99.0878 181.305 99.4151 180.639 99.5477C179.972 99.6803 179.281 99.6123 178.653 99.3522C178.025 99.0921 177.489 98.6516 177.111 98.0865C176.733 97.5213 176.532 96.8569 176.532 96.1772C176.531 95.7258 176.62 95.2786 176.792 94.8614C176.965 94.4442 177.218 94.0652 177.537 93.746C177.856 93.4267 178.235 93.1736 178.653 93.0011C179.07 92.8286 179.517 92.7401 179.968 92.7407ZM179.968 92.1516C179.172 92.1514 178.394 92.3874 177.732 92.8296C177.07 93.2719 176.553 93.9005 176.249 94.6361C175.944 95.3717 175.864 96.1811 176.019 96.962C176.174 97.743 176.558 98.4604 177.121 99.0234C177.684 99.5865 178.401 99.97 179.182 100.125C179.963 100.281 180.772 100.201 181.508 99.8965C182.244 99.5918 182.872 99.0758 183.315 98.4138C183.757 97.7518 183.993 96.9734 183.993 96.1772C183.991 95.11 183.566 94.0872 182.81 93.3332C182.055 92.5791 181.031 92.1555 179.964 92.155L179.968 92.1516Z" fill="#F4CCC7"/>
<path d="M58.3615 93.5533H126.119C126.988 93.5514 127.849 93.7211 128.652 94.0528C129.456 94.3845 130.186 94.8716 130.8 95.4862C131.415 96.1007 131.902 96.8306 132.234 97.6339C132.565 98.4371 132.735 99.298 132.733 100.167V210.752C132.735 211.621 132.565 212.482 132.234 213.285C131.902 214.089 131.415 214.819 130.8 215.433C130.186 216.048 129.456 216.535 128.652 216.866C127.849 217.198 126.988 217.368 126.119 217.366H58.3615C57.4924 217.368 56.6315 217.198 55.8282 216.866C55.0249 216.535 54.2951 216.048 53.6805 215.433C53.066 214.819 52.5789 214.089 52.2472 213.285C51.9155 212.482 51.7457 211.621 51.7476 210.752V100.167C51.7457 99.298 51.9155 98.4371 52.2472 97.6339C52.5789 96.8306 53.066 96.1007 53.6805 95.4862C54.2951 94.8716 55.0249 94.3845 55.8282 94.0528C56.6315 93.7211 57.4924 93.5514 58.3615 93.5533Z" fill="white"/>
<path d="M58.3615 93.5533C57.4924 93.5514 56.6315 93.7211 55.8282 94.0528C55.0249 94.3845 54.2951 94.8716 53.6805 95.4862C53.066 96.1007 52.5789 96.8306 52.2472 97.6339C51.9155 98.4371 51.7457 99.298 51.7476 100.167V106.79H132.733V100.167C132.735 99.298 132.565 98.4371 132.234 97.6339C131.902 96.8306 131.415 96.1007 130.8 95.4862C130.186 94.8716 129.456 94.3845 128.652 94.0528C127.849 93.7211 126.988 93.5514 126.119 93.5533H58.3615Z" fill="#599C46"/>
<path d="M111.94 99.4982C111.941 99.8217 111.845 100.138 111.665 100.407C111.486 100.676 111.23 100.886 110.931 101.01C110.633 101.134 110.304 101.166 109.986 101.103C109.669 101.04 109.378 100.884 109.149 100.656C108.92 100.427 108.764 100.136 108.701 99.8184C108.638 99.5011 108.67 99.1723 108.794 98.8734C108.918 98.5745 109.127 98.319 109.396 98.1393C109.665 97.9596 109.981 97.8636 110.305 97.8636C110.52 97.8635 110.732 97.9057 110.931 97.9878C111.129 98.0699 111.309 98.1903 111.461 98.3421C111.613 98.4939 111.734 98.6741 111.816 98.8725C111.898 99.0708 111.94 99.2834 111.94 99.4982ZM118.479 99.4982C118.48 99.8217 118.384 100.138 118.204 100.407C118.025 100.676 117.769 100.886 117.47 101.01C117.171 101.134 116.842 101.166 116.525 101.103C116.208 101.04 115.916 100.884 115.688 100.655C115.459 100.427 115.303 100.135 115.24 99.8179C115.177 99.5005 115.209 99.1717 115.333 98.8728C115.457 98.5739 115.667 98.3185 115.936 98.1389C116.205 97.9592 116.521 97.8634 116.845 97.8636C117.278 97.8636 117.694 98.0358 118.001 98.3424C118.307 98.6489 118.479 99.0647 118.479 99.4982ZM125.325 99.4982C125.325 99.8217 125.23 100.138 125.05 100.407C124.871 100.676 124.615 100.886 124.316 101.01C124.018 101.134 123.689 101.166 123.371 101.103C123.054 101.04 122.763 100.884 122.534 100.656C122.305 100.427 122.149 100.136 122.086 99.8184C122.023 99.5011 122.055 99.1723 122.179 98.8734C122.303 98.5745 122.512 98.319 122.781 98.1393C123.05 97.9596 123.366 97.8636 123.69 97.8636C123.905 97.8635 124.117 97.9057 124.316 97.9878C124.514 98.0699 124.694 98.1903 124.846 98.3421C124.998 98.4939 125.119 98.6741 125.201 98.8725C125.283 99.0708 125.325 99.2834 125.325 99.4982Z" fill="white"/>
<path d="M177.382 198.516H182.468L172.664 254.848H170.099L177.382 198.516Z" fill="black"/>
<path d="M213.915 198.516H208.828L218.633 254.848H221.199L213.915 198.516Z" fill="black"/>
<path d="M173.066 194.925H216.889C218.315 194.925 219.465 196.007 219.465 197.352C219.465 198.697 218.315 199.778 216.889 199.778H173.066C171.639 199.778 170.491 198.696 170.491 197.352C170.491 196.008 171.639 194.925 173.066 194.925Z" fill="#F5933D"/>
<path d="M195.073 226.609L216.969 246.591H173.176L195.073 226.609ZM178.823 211.007H211.321L195.073 225.836L178.823 211.007ZM178.091 210.338L177.973 210.453H177.803V210.618L177.682 210.736L177.803 210.848V211.007H177.978L194.65 226.222L171.723 247.145H217.575L217.701 247.26L217.82 247.145H217.99V246.981L218.111 246.862L217.99 246.751V246.591H217.815L195.494 226.222L212.773 210.453H178.22L178.095 210.338H178.091Z" fill="black"/>
<path d="M150.811 227.161L151.607 246.558H156.922C156.922 246.558 159.052 232.288 159.057 227.161C159.062 222.035 151.907 222.406 150.812 227.161H150.811Z" fill="#F9B098"/>
<path d="M155.525 223.455C153.55 223.424 151.374 224.709 150.809 227.161C150.809 227.161 154.889 229.231 158.969 229.262C159.022 228.468 159.054 227.753 159.054 227.161C159.054 224.679 157.379 223.485 155.524 223.455H155.525Z" fill="black"/>
<path d="M151.242 236.859L151.606 246.558H156.922C156.922 246.558 157.534 241.933 158.104 236.859H151.242Z" fill="#0FB772"/>
<path d="M170.315 227.305L174.417 246.559H179.733C179.733 246.559 179.521 232.43 178.56 227.305C177.599 222.18 170.51 222.551 170.315 227.305Z" fill="#F9B098"/>
<path d="M174.325 223.596C172.345 223.566 170.415 224.852 170.311 227.303C170.311 227.303 174.785 229.373 178.869 229.404C178.772 228.61 178.668 227.895 178.557 227.303C178.089 224.82 176.186 223.627 174.325 223.596Z" fill="black"/>
<path d="M172.355 236.858L174.411 246.558H179.727C179.727 246.558 179.785 241.933 179.395 236.858H172.355Z" fill="#0FB772"/>
<path d="M179.684 243.061C179.106 243.607 178.019 244.195 176.594 244.523C175.256 244.831 175.117 244.863 174.082 245.098L174.413 246.558H179.729C179.78 245.392 179.765 244.225 179.684 243.061Z" fill="black"/>
<path d="M181.164 248.648C180.569 245.445 180.242 244.81 177.897 245.248C177.897 245.248 178.35 248.483 179.487 248.909C180.625 249.334 181.164 248.645 181.164 248.645V248.648Z" fill="white"/>
<path d="M173.12 245.277C173.368 247.67 168.777 251.737 168.351 252.288C167.142 253.852 168.066 254.847 168.066 254.847H182.315C182.833 252.377 182.342 249.33 181.162 248.649C179.029 249.22 177.894 245.249 177.894 245.249H176.336C176.011 244.034 173.12 243.422 173.12 245.273V245.277Z" fill="#014422"/>
<path d="M182.242 250.572L179.771 253.046H170.003C169.678 253.632 169.367 254.229 169.101 254.847H182.318C182.61 253.452 182.871 251.804 182.242 250.572Z" fill="black"/>
<path d="M167.903 253.046C167.438 254.166 168.073 254.847 168.073 254.847H175.925C175.925 254.847 176.991 254.847 175.961 253.497C175.818 253.323 175.65 253.171 175.463 253.046H167.903Z" fill="black"/>
<path d="M175.989 246.478C176.138 246.485 176.284 246.522 176.419 246.587C176.553 246.652 176.673 246.744 176.771 246.857C177.25 247.38 177.339 248.325 177.174 249.018C177.089 249.364 176.94 249.638 176.817 249.748C176.779 249.787 176.728 249.812 176.674 249.816C176.608 249.811 176.547 249.781 176.504 249.731C175.703 249.046 174.537 247.474 174.281 247.128C174.526 246.924 174.803 246.761 175.1 246.645C175.381 246.525 175.684 246.467 175.989 246.475V246.478ZM176.024 245.946C175.639 245.931 175.257 246.002 174.903 246.154C174.477 246.329 174.079 246.564 173.719 246.852C173.668 246.896 173.634 246.957 173.626 247.023C173.618 247.09 173.635 247.157 173.674 247.212C173.674 247.212 175.138 249.265 176.157 250.138C176.301 250.269 176.487 250.344 176.682 250.348C176.863 250.342 177.036 250.271 177.168 250.147C177.43 249.916 177.593 249.556 177.691 249.141C177.889 248.31 177.821 247.217 177.163 246.498C176.87 246.173 176.461 245.975 176.024 245.946Z" fill="#A86DAE"/>
<path d="M171.791 246.478C172.095 246.47 172.398 246.528 172.679 246.648C172.976 246.764 173.252 246.927 173.497 247.131C173.242 247.479 172.076 249.049 171.276 249.734C171.233 249.783 171.172 249.814 171.106 249.819C171.052 249.814 171.001 249.79 170.964 249.75C170.84 249.641 170.689 249.367 170.607 249.021C170.442 248.328 170.532 247.383 171.011 246.859C171.109 246.746 171.228 246.654 171.363 246.589C171.497 246.524 171.643 246.487 171.792 246.48L171.791 246.478ZM171.756 245.946C171.319 245.975 170.91 246.173 170.617 246.498C169.959 247.217 169.89 248.311 170.088 249.142C170.187 249.556 170.349 249.916 170.612 250.147C170.745 250.27 170.917 250.341 171.098 250.348C171.293 250.346 171.48 250.271 171.622 250.138C172.642 249.265 174.106 247.213 174.106 247.213C174.145 247.158 174.162 247.09 174.153 247.024C174.145 246.957 174.112 246.896 174.06 246.852C173.701 246.564 173.303 246.329 172.877 246.154C172.523 246.003 172.14 245.932 171.756 245.947V245.946ZM172.906 249.103C172.858 249.155 172.832 249.224 172.834 249.294C172.837 249.365 172.867 249.431 172.919 249.479C172.971 249.528 173.039 249.553 173.11 249.551C173.18 249.548 173.247 249.518 173.295 249.466C173.356 249.397 173.431 249.342 173.514 249.304C173.598 249.266 173.689 249.246 173.78 249.245C173.959 249.245 174.155 249.323 174.356 249.55C174.379 249.578 174.407 249.601 174.438 249.617C174.47 249.634 174.505 249.644 174.54 249.647C174.576 249.65 174.612 249.645 174.646 249.634C174.68 249.623 174.711 249.605 174.738 249.581C174.764 249.558 174.786 249.529 174.802 249.496C174.817 249.464 174.826 249.429 174.827 249.393C174.829 249.358 174.823 249.322 174.811 249.289C174.798 249.255 174.779 249.224 174.755 249.199C174.473 248.88 174.125 248.717 173.786 248.714C173.62 248.714 173.456 248.748 173.305 248.815C173.153 248.882 173.017 248.98 172.906 249.103ZM172.026 250.786C172 250.811 171.98 250.841 171.966 250.875C171.952 250.908 171.945 250.943 171.946 250.979C171.946 251.015 171.954 251.051 171.968 251.084C171.983 251.116 172.004 251.146 172.03 251.171C172.056 251.195 172.087 251.214 172.121 251.227C172.154 251.239 172.19 251.244 172.226 251.242C172.262 251.24 172.297 251.231 172.329 251.215C172.362 251.2 172.39 251.177 172.414 251.15C172.475 251.081 172.549 251.026 172.633 250.988C172.717 250.95 172.808 250.93 172.9 250.929C173.078 250.929 173.275 251.007 173.475 251.234C173.523 251.284 173.588 251.314 173.656 251.317C173.725 251.32 173.793 251.296 173.844 251.251C173.896 251.205 173.928 251.141 173.933 251.072C173.939 251.004 173.918 250.936 173.874 250.882C173.593 250.564 173.244 250.401 172.906 250.398C172.74 250.397 172.576 250.432 172.424 250.499C172.272 250.566 172.136 250.664 172.025 250.787L172.026 250.786Z" fill="#A86DAE"/>
<path d="M182.519 178.668C182.519 178.668 156.043 192.163 152.03 194.542C148.017 196.92 148.904 202.939 148.904 202.939C149.054 207.359 149.917 217.903 150.401 223.601C148.762 226.186 150.536 227.406 150.728 227.375H158.973C159.268 227.453 162.05 226.919 160.146 223.852C161.207 220.105 162.696 213.249 163.389 202.942C163.503 203.383 166.839 219.761 168.489 224.157C167.53 227.418 169.424 227.272 170.31 227.307L178.62 226.939C179.394 226.939 180.291 225.043 178.513 223.662C178.788 219.743 178.296 213.122 176.704 203.032L176.691 202.942C176.691 202.942 197.869 198.655 203.686 195.297C207.14 193.302 207.38 191.013 207.45 188.327C207.552 184.435 205.472 180.091 203.011 178.67L182.519 178.668Z" fill="#014422"/>
<path d="M157.272 243.826C155.418 244.54 152.533 245.198 151.563 245.412L151.606 246.558H156.922C156.922 246.558 157.066 245.465 157.272 243.826Z" fill="black"/>
<path d="M158.075 248.745C158.075 248.745 156.132 248.532 154.558 248.11C152.984 247.689 153.443 245.252 153.443 245.252C158.774 244.634 158.075 246.029 158.075 248.745Z" fill="white"/>
<path d="M159.03 254.845C160.212 252.797 159.682 251.031 158.073 248.741C155.06 248.467 153.921 247.923 153.442 245.249H152.101C152.101 245.249 150.316 243.611 149.381 246.455C148.446 249.298 141.731 249.799 139.127 251.28C136.181 252.952 136.184 254.845 138.398 254.845H159.03Z" fill="#014422"/>
<path d="M159.121 250.492C158.354 250.935 157.646 251.473 157.013 252.093C155.869 253.236 153.72 253.048 153.72 253.048H137.08C136.465 254.058 136.971 254.848 138.402 254.848H159.03C159.895 253.352 159.84 252.004 159.121 250.492H159.121Z" fill="black"/>
<path d="M150.497 246.855C151.029 246.87 151.54 247.064 151.947 247.406C152.354 247.748 152.634 248.218 152.74 248.739C152.825 249.238 152.711 249.759 152.303 250.249C152.101 250.493 151.915 250.614 151.746 250.664C151.577 250.712 151.397 250.7 151.236 250.63C150.873 250.487 150.46 250.084 150.101 249.596C149.644 248.954 149.262 248.26 148.965 247.529C149.475 247.079 150.002 246.857 150.501 246.855H150.497ZM146.636 245.628C146.436 245.627 146.237 245.655 146.047 245.713C145.789 245.792 145.554 245.932 145.362 246.122C145.17 246.312 145.028 246.545 144.947 246.802C144.783 247.323 145 248.52 145.357 249.267C145.527 249.214 145.85 249.067 145.841 249.048C145.513 248.358 145.34 247.328 145.455 246.963C145.575 246.579 145.862 246.368 146.207 246.221C147.518 245.677 148.365 247.534 148.37 247.549C148.37 247.549 148.894 248.856 149.669 249.91C150.057 250.437 150.503 250.913 151.039 251.123C151.312 251.235 151.614 251.252 151.897 251.171C152.188 251.086 152.462 250.889 152.713 250.586C152.94 250.323 153.107 250.014 153.202 249.679C153.297 249.345 153.318 248.994 153.264 248.651C153.149 248.01 152.811 247.431 152.311 247.014C151.801 246.577 151.151 246.339 150.479 246.342C149.833 246.355 149.21 246.589 148.715 247.005C148.29 246.162 147.559 245.709 146.839 245.636C146.771 245.629 146.703 245.626 146.636 245.626V245.628Z" fill="#A86DAE"/>
<path d="M146.16 247.784C146.125 247.787 146.091 247.797 146.06 247.814C146.03 247.83 146.002 247.852 145.98 247.879C145.958 247.906 145.941 247.937 145.931 247.971C145.921 248.004 145.917 248.039 145.921 248.074C145.928 248.144 145.962 248.208 146.016 248.253C146.071 248.298 146.141 248.319 146.211 248.313C146.302 248.302 146.394 248.31 146.482 248.336C146.57 248.363 146.651 248.408 146.721 248.468C146.853 248.588 146.95 248.776 146.95 249.079C146.95 249.149 146.978 249.217 147.028 249.267C147.078 249.317 147.146 249.345 147.216 249.345C147.287 249.345 147.354 249.317 147.404 249.267C147.454 249.217 147.482 249.149 147.482 249.079C147.482 248.654 147.328 248.301 147.077 248.074C146.953 247.964 146.807 247.882 146.649 247.832C146.491 247.782 146.324 247.765 146.16 247.783V247.784ZM144.408 248.79C144.373 248.793 144.339 248.803 144.308 248.819C144.277 248.836 144.25 248.858 144.228 248.885C144.205 248.912 144.189 248.943 144.178 248.977C144.168 249.01 144.165 249.045 144.168 249.08C144.175 249.151 144.209 249.215 144.264 249.26C144.319 249.305 144.389 249.326 144.459 249.319C144.55 249.308 144.643 249.316 144.73 249.343C144.818 249.369 144.9 249.414 144.969 249.475C145.101 249.595 145.198 249.782 145.198 250.085C145.198 250.12 145.205 250.155 145.219 250.187C145.232 250.219 145.252 250.248 145.276 250.273C145.301 250.298 145.33 250.317 145.363 250.331C145.395 250.344 145.429 250.351 145.464 250.351C145.535 250.351 145.603 250.323 145.653 250.273C145.702 250.223 145.73 250.156 145.73 250.085C145.73 249.66 145.577 249.307 145.325 249.08C145.201 248.971 145.055 248.889 144.898 248.839C144.74 248.788 144.574 248.772 144.41 248.79H144.408Z" fill="#A86DAE"/>
<path d="M162.179 204.162H162.167C162.124 204.163 162.081 204.173 162.043 204.193C162.004 204.212 161.97 204.239 161.943 204.273C161.238 205.174 160.34 206.352 159.563 207.472C158.786 208.591 158.138 209.628 157.914 210.358C157.598 211.383 156.942 214.608 156.349 217.617C155.755 220.626 155.235 223.401 155.235 223.401C155.228 223.438 155.228 223.476 155.235 223.513L156.021 227.374H156.63L155.83 223.454C155.84 223.402 156.34 220.711 156.935 217.73C157.53 214.721 158.21 211.44 158.486 210.531C158.656 209.971 159.294 208.91 160.057 207.807C160.821 206.704 161.713 205.531 162.414 204.636C162.448 204.593 162.47 204.541 162.476 204.487C162.482 204.432 162.473 204.377 162.449 204.327C162.425 204.278 162.387 204.236 162.341 204.207C162.294 204.178 162.241 204.162 162.186 204.162H162.179ZM177.244 181.365L176.589 181.705C178.45 182.709 181.408 184.281 182.463 184.68C185.948 186.005 190.848 187.197 196.521 186.879C198.561 186.764 200.328 186.587 201.853 186.374C202.611 187.11 203.251 187.819 203.99 188.403C202.822 188.781 192.912 193.775 187.659 195.586C184.666 196.617 181.624 197.7 179.219 198.629C178.018 199.093 176.977 199.519 176.179 199.883C175.381 200.247 174.849 200.514 174.564 200.801C174.241 201.123 174.205 201.615 174.251 202.213C174.296 202.811 174.452 203.542 174.681 204.367C175.14 206.018 175.899 208.045 176.71 210.019C177.166 211.13 177.634 212.214 178.077 213.213C178.01 212.575 177.936 211.915 177.855 211.231C177.654 210.761 177.452 210.281 177.254 209.798C176.449 207.835 175.696 205.82 175.248 204.211C175.025 203.407 174.879 202.702 174.839 202.171C174.799 201.641 174.893 201.308 174.98 201.221C175.101 201.099 175.647 200.776 176.425 200.421C177.203 200.066 178.237 199.643 179.432 199.181C181.822 198.257 184.862 197.175 187.847 196.145C193.712 194.124 204.367 188.901 204.579 188.835C204.672 188.892 204.767 188.948 204.865 189.005C205.552 189.397 206.352 189.673 207.371 189.791C207.389 189.599 207.401 189.403 207.412 189.206C206.619 189.126 205.851 188.884 205.156 188.494C204.221 187.958 203.479 187.166 202.578 186.269C204.112 186.042 205.63 185.713 207.12 185.284C207.076 185.091 207.027 184.902 206.975 184.712C204.839 185.351 201.512 186.012 196.486 186.293C190.914 186.606 186.093 185.433 182.669 184.131C181.812 183.805 178.993 182.303 177.242 181.369L177.244 181.365Z" fill="#A96EAE"/>
<path d="M163.389 202.939C163.389 202.939 162.815 199.984 162.867 198.671C162.92 197.358 163.918 196.622 163.918 196.622C163.918 196.622 160.293 197.462 160.713 201.666C161.132 205.871 162.765 209.894 162.765 209.894L163.389 202.939ZM160.146 223.852H156.982C156.982 223.852 156.457 223.105 157.823 222.474C159.188 221.844 161.281 219.25 161.281 219.25L160.146 223.852ZM178.514 223.658H174.9C174.9 223.658 174.322 222.947 176.056 222.213C177.79 221.478 178.473 218.061 178.473 218.061C178.473 218.061 178.976 222.531 178.514 223.658V223.658Z" fill="black"/>
<path d="M118.882 145.74C118.899 147.55 122.242 151.231 123.302 151.72C124.401 152.23 128.856 151.168 130.85 150.741C130.85 150.571 135.717 151.646 140.653 152.618L138.482 145.772L129.795 146.161C129.795 146.161 127.548 144.801 126.48 144.199C125.411 143.596 123.547 142.01 122.847 141.472C122.146 140.934 121.716 142.04 122.353 143.049C122.706 143.597 123.018 144.171 123.288 144.764C123.288 144.764 120.749 144.741 120.182 144.741C119.24 144.741 118.876 145.137 118.882 145.74H118.882Z" fill="#F9B098"/>
<path d="M138.483 145.772L137.371 151.926L140.655 152.618L138.483 145.772Z" fill="black"/>
<path d="M129.796 146.161L130.593 148.157C130.593 148.157 130.793 148.333 130.969 147.831C131.145 147.329 131.749 146.097 131.749 146.097L129.794 146.161H129.796ZM123.289 144.764C123.289 144.764 124.486 146.224 125.605 146.526C126.724 146.829 128.537 149.138 128.306 150.08C128.075 151.022 127.596 151.147 127.489 151.075C127.381 151.004 126.458 148.605 125.357 147.823C124.255 147.041 122.887 146.438 122.336 146.189C121.785 145.94 123.289 144.764 123.289 144.764Z" fill="black"/>
<path d="M172.477 143.989C172.807 143.989 173.113 143.996 173.391 144.005C181.32 144.288 182.779 152.368 177.757 155.295C177.706 155.325 177.652 155.353 177.6 155.38C176.804 155.794 175.82 155.953 174.636 155.761C174.636 155.761 144.743 152.921 142.667 152.768C142.706 151.049 142.123 148.722 141.271 147.044C140.885 146.279 140.478 145.863 140.099 145.65L146.814 145.15C146.814 145.15 169.04 143.969 172.475 143.986L172.477 143.989Z" fill="#0FB772"/>
<path d="M138.483 145.772L139.146 152.487C139.146 152.487 140.908 155.925 142.071 154.767C143.234 153.609 142.559 149.588 141.272 147.051C139.985 144.513 138.483 145.776 138.483 145.776V145.772Z" fill="white"/>
<path d="M178.432 117.974C178.432 117.974 178.928 123.507 177.175 126.77C170.035 140.066 183.357 137.526 183.357 137.526C183.357 137.526 182.051 118.778 178.427 117.976L178.432 117.974Z" fill="#C84F49"/>
<path d="M180.94 175.418C180.835 175.424 178.38 179.254 180.121 179.498C189.853 180.846 194.689 181.224 204.197 179.498C205.821 179.204 202.108 174.84 202.002 174.844L180.94 175.422V175.418Z" fill="white"/>
<path d="M190.819 139.365L206.573 145.145C206.573 145.145 200.384 162.103 200.97 170.021C201.783 174.016 204.293 175.777 202.715 176.81C193.677 177.934 190.113 178.68 180.093 176.81C178.114 172.12 179.057 171.695 178.595 168.621C178.595 168.621 172.9 146.718 172.582 145.145C174.234 144.064 181.8 139.645 181.8 139.645L190.819 139.365Z" fill="#FF6C00"/>
<path d="M190.82 139.364L181.8 139.645C181.8 139.645 178.956 141.309 176.36 142.852C179.772 148.285 182.905 150.812 184.435 151.044C185.965 151.276 194.016 147.53 198.061 142.023L190.816 139.364H190.82Z" fill="#F9B098"/>
<path d="M192.663 167.536C192.663 167.536 193.846 170.556 196.749 171.373C198.343 171.823 200.206 172 201.58 172.072C201.318 171.407 201.113 170.721 200.969 170.021C200.949 169.74 200.938 169.448 200.934 169.145C198.517 169.072 194.997 168.741 192.663 167.536Z" fill="black"/>
<path d="M189.764 138.532C189.764 138.532 190.084 151.542 191.263 159.432C192.442 167.321 191.341 169.597 195.251 169.952C196.968 170.109 198.566 170.207 199.824 170.165C201.432 170.109 204.825 170.378 203.036 166.074C203.801 161.893 205.257 154.776 206.039 152.751C207.11 149.978 207.777 146.78 206.573 145.145C205.368 143.509 191.852 139.45 189.764 138.532Z" fill="#0FB772"/>
<path d="M189.276 128.129L189.56 138.329C189.56 145.957 181.35 145.925 181.35 139.644L182.842 132.499L189.276 128.128V128.129Z" fill="#F9B098"/>
<path d="M186.869 129.765L182.843 132.5L182.187 135.641C183.472 135.746 185.296 135.635 186.717 134.524C189.17 132.605 186.87 129.764 186.87 129.764L186.869 129.765Z" fill="black"/>
<path d="M179.269 119.355L180.103 129.555C180.103 129.555 180.835 133.55 183.82 133.55C185.935 133.55 189.276 129.587 189.311 127.525C189.346 125.463 189.311 122.15 189.311 118.926C189.311 115.702 178.848 114.216 179.269 119.351V119.355Z" fill="#F9B098"/>
<path d="M181.025 123.961C181.025 123.961 179.938 125.321 179.454 125.321C178.971 125.321 179.303 126.59 180.27 126.53C181.238 126.47 181.8 123.191 181.025 123.961Z" fill="black"/>
<path d="M181.869 117.896C181.869 117.896 183.078 124.079 185.921 125.821C188.764 127.563 190.364 126.106 190.364 126.106L188.444 127.705C188.444 127.705 184.109 127.527 182.367 122.196C180.625 116.865 182.118 115.443 182.118 115.443L181.869 117.896Z" fill="#C84F49"/>
<path d="M182.12 144.54C182.12 144.54 182.597 152.821 182.915 158.401C183.232 163.982 183.096 167.677 183.096 167.677C183.096 167.677 179.611 150.191 179.825 146.886C180.039 143.58 181.231 144.363 182.12 144.54Z" fill="black"/>
<path d="M181.8 139.645C181.8 139.645 172.381 143.759 172.012 144.412C171.699 144.966 174.721 159.399 176.279 165.144C176.562 166.19 175.637 166.823 176.067 167.734C177.299 170.349 182.001 169.544 182.844 169.242C183.687 168.939 183.511 167.584 183.153 165.825C182.796 164.065 180.057 145.418 180.324 144.01C180.591 142.603 181.8 139.645 181.8 139.645Z" fill="#0FB772"/>
<path d="M189.764 138.532C189.764 138.532 186.727 140.428 183.833 140.446C181.04 140.625 182.153 138.139 181.787 137.549C181.787 137.549 179.958 136.768 178.426 137.798C176.893 138.829 178.504 139.931 178.109 140.603C177.713 141.276 176.627 143.803 181.945 146.006C187.262 148.209 192.429 146.006 193.879 143.873C195.329 141.741 194.596 139.538 194.088 138.613C193.579 137.689 189.599 137.796 189.599 137.796L189.764 138.529V138.532Z" fill="white"/>
<path d="M186.934 139.939C186.934 139.939 188.442 142.778 188.021 144.663C187.601 146.547 185.805 146.246 184.221 145.87C183.404 145.675 183.126 146.021 183.047 146.403C185.288 147.092 187.685 147.095 189.927 146.409C190.242 145.149 189.865 143.088 186.934 139.939V139.939Z" fill="#CCDEF2"/>
<path d="M185.919 140.216C185.919 140.216 188.599 140.286 189.34 144.8C190.08 149.313 188.806 152.832 189.416 154.61C190.026 156.387 190.004 156.102 190.004 156.102C190.004 156.102 191.742 156.777 193.723 156.565C195.704 156.352 196.783 155.356 196.783 155.356C196.783 155.356 195.38 154.396 195.338 151.731C195.296 149.065 195.584 144.729 194.052 141.566C192.52 138.402 189.588 137.443 187.727 138.081C185.867 138.718 183.969 140.447 183.969 140.447C184.711 140.466 185.277 140.296 185.924 140.213L185.919 140.216Z" fill="white"/>
<path d="M186.706 112.609C186.099 112.594 185.492 112.627 184.89 112.707C184.89 112.707 184.989 112.86 185.129 113.079C183.831 112.772 182.363 113.114 180.803 114.626C180.803 114.626 178.733 112.345 177.125 113.3C175.517 114.254 178.432 117.975 178.432 117.975L179.269 119.352C179.269 118.576 179.524 116.914 181.196 117.874C182.524 118.639 184.011 125.716 188.183 124.759C188.361 124.718 188.536 124.668 188.708 124.608C188.761 125.738 188.717 126.887 188.444 127.705C187.698 129.944 185.639 134.527 187.84 137.121C190.042 139.715 196.157 138.613 197.472 135.591C198.787 132.568 194.557 128.343 194.806 125.286C195.055 122.23 196.299 118 193.207 114.944C191.274 113.033 188.509 112.636 186.706 112.607V112.609Z" fill="#C84F49"/>
<path d="M190.434 119.53C190.434 119.53 188.764 114.306 185.352 113.665C182.566 113.142 180.803 114.625 180.803 114.625C180.803 114.625 182.216 112.352 185.912 112.565C189.607 112.779 193.599 118.685 190.434 119.529V119.53ZM178.124 140.078C178.183 140.273 178.2 140.451 178.109 140.606C177.968 140.848 177.866 141.109 177.804 141.382C178.026 141.546 178.265 141.686 178.517 141.798C179.622 142.276 181.589 142.076 179.524 141.07C178.856 140.744 178.419 140.398 178.124 140.078ZM193.489 158.888C193.501 158.934 193.503 158.983 193.493 159.03C193.484 159.077 193.463 159.121 193.433 159.159C193.403 159.197 193.364 159.227 193.321 159.247C193.277 159.267 193.229 159.276 193.181 159.274C193.071 159.27 192.967 159.23 192.882 159.16C192.798 159.09 192.739 158.994 192.715 158.888C192.702 158.841 192.701 158.792 192.711 158.745C192.721 158.698 192.741 158.654 192.771 158.616C192.801 158.578 192.84 158.548 192.884 158.528C192.928 158.508 192.975 158.499 193.024 158.501C193.133 158.505 193.237 158.546 193.321 158.616C193.405 158.686 193.464 158.781 193.489 158.888ZM193.783 162.808C193.796 162.854 193.798 162.903 193.788 162.95C193.778 162.998 193.758 163.042 193.728 163.08C193.698 163.117 193.659 163.148 193.616 163.168C193.572 163.188 193.524 163.197 193.476 163.195C193.366 163.191 193.261 163.151 193.177 163.081C193.093 163.011 193.034 162.915 193.01 162.808C192.997 162.761 192.996 162.713 193.006 162.665C193.016 162.618 193.036 162.574 193.066 162.536C193.096 162.499 193.135 162.469 193.179 162.449C193.222 162.429 193.27 162.419 193.319 162.421C193.428 162.426 193.532 162.466 193.616 162.536C193.7 162.606 193.759 162.701 193.783 162.808ZM194.21 166.879C194.223 166.926 194.225 166.975 194.215 167.022C194.205 167.069 194.184 167.114 194.154 167.151C194.124 167.189 194.086 167.219 194.042 167.239C193.998 167.259 193.95 167.268 193.902 167.266C193.792 167.262 193.688 167.221 193.604 167.152C193.52 167.082 193.461 166.986 193.437 166.879C193.424 166.833 193.422 166.784 193.432 166.737C193.442 166.69 193.462 166.646 193.492 166.608C193.522 166.57 193.561 166.54 193.605 166.52C193.648 166.5 193.696 166.491 193.744 166.493C193.854 166.497 193.959 166.537 194.043 166.607C194.127 166.677 194.186 166.773 194.21 166.879Z" fill="black"/>
<path d="M197.246 178.442C197.242 178.415 197.242 178.388 197.246 178.362C197.266 178.25 197.352 178.167 197.52 178.135C198.291 177.991 201.209 177.858 202.242 177.507C203.275 177.156 206.317 176.572 206.317 176.572L211.842 169.857L217.148 174.012C213.408 177.285 210.058 179.612 209.888 179.756C208.986 181.324 206.883 184.838 205.893 185.261C204.618 185.808 201.06 185.197 200.374 185.324C199.689 185.45 197.054 184.592 197.772 183.375C198.027 182.943 200.577 179.966 200.577 179.966C200.577 179.966 199.796 179.862 198.753 179.684C197.988 179.554 197.267 178.858 197.238 178.439L197.246 178.442Z" fill="#F9B098"/>
<path d="M204.365 144.357C204.306 144.357 204.246 144.357 204.187 144.357C198.375 144.512 195.772 152.3 202.593 156.356C206.418 158.63 217.158 163.411 217.158 163.411L212.877 168.611C213.293 168.484 213.876 168.478 214.696 168.726C216.496 169.27 218.582 170.457 219.796 171.673C221.34 170.279 222.8 168.916 223.935 167.763C225.02 166.664 227.5 164.07 224.678 160.845C223.889 159.945 221.972 158.251 220.391 156.843L207.146 145.444C206.2 144.707 205.261 144.374 204.363 144.355L204.365 144.357Z" fill="#0FB772"/>
<path d="M207.384 175.259L206.322 176.574L208.737 178.189C208.737 178.189 209.177 178.498 209.126 177.94C209.084 177.485 208.186 175.9 207.384 175.256V175.259Z" fill="black"/>
<path d="M211.847 169.859L217.156 174.018C217.156 174.018 220.859 175.123 220.826 173.478C220.793 171.833 217.419 169.546 214.696 168.724C211.973 167.902 211.847 169.859 211.847 169.859Z" fill="white"/>
<path d="M217.158 163.408L219.826 161.949C219.826 161.949 220.065 161.764 219.553 161.531C219.041 161.298 214.869 162.375 214.869 162.375L217.158 163.408Z" fill="black"/>
<path d="M211.847 169.86L215.784 175.174L217.153 174.015L211.847 169.86Z" fill="black"/>
<path d="M198.982 179.712C200.058 179.958 200.585 179.967 200.585 179.967C200.919 178.699 200.097 179.492 198.982 179.712Z" fill="black"/>
<path d="M116.584 138.625C116.898 138.4 119.747 139.657 120.382 140.545L121.129 141.587C121.765 142.475 118.56 144.769 117.924 143.882L117.178 142.839C116.542 141.951 116.27 138.849 116.583 138.625H116.584Z" fill="#F9B098"/>
<path d="M117.215 142.891L127.01 156.57C127.158 156.786 127.348 156.97 127.569 157.112C127.789 157.253 128.036 157.35 128.294 157.395C128.552 157.44 128.817 157.434 129.072 157.375C129.328 157.317 129.569 157.209 129.782 157.056C129.995 156.903 130.176 156.71 130.313 156.487C130.451 156.263 130.542 156.015 130.582 155.756C130.623 155.497 130.611 155.233 130.548 154.978C130.484 154.724 130.371 154.485 130.215 154.275L120.42 140.597L119.242 140.637L118.898 141.72L117.646 141.759L117.215 142.891H117.215Z" fill="#0FB772"/>
<path d="M125.618 154.63L127.01 156.574C127.158 156.79 127.348 156.974 127.569 157.116C127.789 157.258 128.036 157.354 128.294 157.399C128.552 157.444 128.817 157.438 129.072 157.38C129.328 157.321 129.569 157.213 129.782 157.06C129.995 156.908 130.176 156.714 130.313 156.491C130.451 156.268 130.542 156.019 130.582 155.76C130.623 155.501 130.611 155.237 130.548 154.983C130.484 154.728 130.371 154.489 130.214 154.279L128.822 152.335L125.618 154.63Z" fill="#C84F49"/>
<path d="M116.584 138.625C116.423 138.739 116.414 139.605 116.533 140.542L118.415 139.194C117.565 138.783 116.744 138.514 116.584 138.625Z" fill="black"/>
<path d="M125.618 154.626L126.332 155.623L129.536 153.328L128.822 152.331L125.618 154.626Z" fill="white"/>
<path d="M125.286 154.163L125.618 154.626L128.822 152.331L128.108 151.334L125.286 154.163Z" fill="black"/>
<path d="M214.374 242.226C214.184 242.225 213.998 242.269 213.828 242.353C212.659 242.943 212.286 245.526 212.82 249.323C211.655 248.064 210.615 247.399 209.811 247.402C209.593 247.399 209.379 247.455 209.191 247.564C208.099 248.199 207.853 250.64 208.522 254.204H222.484C220.019 247.331 216.552 242.214 214.374 242.219V242.226Z" fill="#43AD67"/>
<path d="M228.2 230.431C225.905 230.466 222.577 236.487 220.66 244.078C219.717 247.818 219.244 251.458 219.345 254.208H236.833C237.747 252.126 237.912 250.601 237.3 249.882C237.039 249.576 236.643 249.421 236.121 249.423C235.326 249.423 234.26 249.793 232.996 250.497C236.125 245.197 237.156 240.959 235.533 240.08C235.309 239.965 235.06 239.909 234.809 239.916C233.557 239.916 231.632 241.044 229.41 243.072C230.87 236.078 230.43 230.7 228.374 230.441C228.316 230.434 228.258 230.431 228.2 230.432V230.431Z" fill="#56BB6A"/>
<path d="M229.407 243.071C229.407 243.071 227.998 244.868 227.394 246.759L226.79 248.651C226.809 246.956 227.047 245.27 227.498 243.636C228.233 241.061 229.968 239.826 229.968 239.826C229.968 239.826 229.581 242.461 229.407 243.074V243.071Z" fill="black"/>
<path d="M66.0846 226.506C68.5385 226.52 72.0278 232.371 74.8617 241.231C76.4648 238.131 78.0415 236.568 79.3327 236.802C81.4084 237.178 82.4853 242.131 82.1377 249.722C87.0031 250.69 89.7962 252.162 89.8378 253.776C89.8409 253.921 89.8229 254.066 89.7843 254.206H42.9739C43.5366 253.132 45.2808 252.091 48.0144 251.193C45.2613 246.915 44.3484 243.808 45.5044 242.644C46.8644 241.276 50.9053 242.754 56.2866 246.584C55.3278 242.953 55.446 240.575 56.6207 239.869C58.013 239.034 60.7704 240.622 64.2188 244.245C62.6276 234.335 63.2464 227.129 65.7403 226.541C65.8518 226.515 65.9659 226.502 66.0803 226.503L66.0846 226.506Z" fill="#56BB6A"/>
<path d="M63.6187 239.664C63.7641 241.131 63.9655 242.668 64.2188 244.248C64.2188 244.248 66.4433 247.547 67.4089 249.851L68.3753 252.155C68.3753 252.155 67.6953 244.812 63.6153 239.664H63.6187ZM48.0144 251.195L49.9278 254.207C48.7264 253.615 47.7204 252.689 47.0293 251.542L48.0144 251.195ZM209.911 99.499H237.326C237.678 99.4982 238.026 99.5669 238.352 99.7011C238.677 99.8352 238.972 100.032 239.221 100.281C239.47 100.529 239.667 100.825 239.801 101.15C239.936 101.475 240.004 101.823 240.004 102.175V124.831C240.004 125.182 239.936 125.531 239.801 125.856C239.667 126.181 239.47 126.476 239.221 126.725C238.972 126.973 238.677 127.17 238.352 127.304C238.026 127.439 237.678 127.507 237.326 127.506H209.911C209.559 127.507 209.211 127.439 208.886 127.304C208.561 127.17 208.265 126.973 208.017 126.725C207.768 126.476 207.571 126.181 207.437 125.856C207.303 125.531 207.234 125.182 207.235 124.831V102.175C207.234 101.823 207.303 101.475 207.437 101.15C207.571 100.825 207.768 100.53 208.017 100.281C208.265 100.032 208.561 99.8353 208.886 99.7011C209.211 99.5669 209.559 99.4982 209.911 99.499Z" fill="black"/>
<path d="M207.529 97.1181H234.945C235.296 97.1172 235.645 97.1858 235.97 97.32C236.295 97.4541 236.591 97.6511 236.839 97.8998C237.088 98.1484 237.285 98.4437 237.42 98.7688C237.554 99.0938 237.623 99.4422 237.622 99.7939V122.449C237.623 122.801 237.554 123.149 237.42 123.474C237.285 123.799 237.088 124.095 236.839 124.343C236.591 124.592 236.295 124.789 235.97 124.924C235.645 125.058 235.296 125.126 234.945 125.126H207.529C207.177 125.126 206.829 125.058 206.504 124.923C206.179 124.789 205.884 124.592 205.635 124.343C205.386 124.094 205.189 123.799 205.055 123.474C204.921 123.149 204.852 122.801 204.853 122.449V99.7939C204.852 99.4423 204.921 99.094 205.055 98.769C205.189 98.444 205.386 98.1487 205.635 97.9001C205.884 97.6515 206.179 97.4544 206.504 97.3202C206.829 97.186 207.177 97.1174 207.529 97.1181Z" fill="white"/>
<path d="M207.529 97.1181C207.177 97.1174 206.829 97.186 206.504 97.3202C206.179 97.4544 205.884 97.6515 205.635 97.9001C205.386 98.1487 205.189 98.444 205.055 98.769C204.921 99.094 204.852 99.4423 204.853 99.7939V102.21H237.622V99.7939C237.623 99.4422 237.554 99.0938 237.42 98.7688C237.285 98.4437 237.088 98.1484 236.839 97.8998C236.591 97.6511 236.295 97.4541 235.97 97.32C235.645 97.1858 235.296 97.1172 234.945 97.1181H207.529Z" fill="#C84F49"/>
<path d="M213.589 97.1173C213.589 96.6 213.436 96.0944 213.149 95.6642C212.861 95.2341 212.453 94.8989 211.975 94.701C211.497 94.503 210.971 94.4512 210.464 94.5521C209.956 94.653 209.49 94.9021 209.124 95.2679C208.759 95.6337 208.51 96.0997 208.409 96.6071C208.308 97.1144 208.36 97.6403 208.557 98.1182C208.755 98.5961 209.091 99.0046 209.521 99.292C209.951 99.5794 210.457 99.7328 210.974 99.7328V97.1173H213.589Z" fill="#FF6C00"/>
<path d="M231.18 97.1173L231.172 99.7319C231.49 98.4909 232.277 97.5653 233.787 97.1173H231.18Z" fill="black"/>
<path d="M233.795 97.1173C233.794 96.6002 233.641 96.0948 233.354 95.665C233.066 95.2351 232.658 94.9001 232.18 94.7023C231.702 94.5046 231.177 94.4529 230.669 94.5539C230.162 94.6549 229.697 94.904 229.331 95.2697C228.965 95.6354 228.716 96.1012 228.616 96.6084C228.515 97.1156 228.567 97.6412 228.765 98.1189C228.962 98.5966 229.298 99.0049 229.728 99.2922C230.157 99.5795 230.663 99.7328 231.18 99.7328V97.1173H233.795Z" fill="#FF6C00"/>
<path d="M210.98 97.1182L210.974 99.7328C211.292 98.4909 212.079 97.5661 213.589 97.1182H210.98ZM214.647 108.993C214.647 109.581 214.472 110.156 214.145 110.645C213.818 111.135 213.354 111.516 212.81 111.741C212.267 111.966 211.668 112.025 211.091 111.91C210.514 111.796 209.984 111.512 209.568 111.096C209.152 110.68 208.869 110.15 208.754 109.573C208.639 108.996 208.698 108.398 208.923 107.854C209.148 107.311 209.53 106.846 210.019 106.519C210.508 106.192 211.083 106.018 211.672 106.018C212.461 106.018 213.217 106.331 213.775 106.889C214.333 107.447 214.647 108.204 214.647 108.993Z" fill="black"/>
<path d="M214.175 108.249C214.175 108.837 214 109.413 213.674 109.902C213.347 110.391 212.882 110.772 212.338 110.997C211.795 111.223 211.197 111.282 210.62 111.167C210.042 111.052 209.512 110.769 209.096 110.353C208.68 109.936 208.397 109.406 208.282 108.829C208.167 108.252 208.226 107.654 208.451 107.11C208.677 106.567 209.058 106.102 209.547 105.775C210.036 105.448 210.612 105.274 211.2 105.274C211.989 105.274 212.746 105.587 213.304 106.145C213.862 106.703 214.175 107.46 214.175 108.249Z" fill="#56BB6A"/>
<path d="M224.027 108.993C224.027 109.581 223.853 110.156 223.526 110.645C223.199 111.135 222.734 111.516 222.191 111.741C221.647 111.966 221.049 112.025 220.472 111.911C219.895 111.796 219.365 111.512 218.949 111.096C218.533 110.68 218.249 110.15 218.134 109.573C218.02 108.996 218.079 108.398 218.304 107.854C218.529 107.311 218.91 106.846 219.399 106.519C219.889 106.192 220.464 106.018 221.052 106.018C221.841 106.018 222.598 106.331 223.156 106.889C223.714 107.447 224.027 108.204 224.027 108.993Z" fill="black"/>
<path d="M223.561 108.249C223.561 108.837 223.386 109.413 223.059 109.902C222.732 110.391 222.268 110.772 221.724 110.997C221.18 111.223 220.582 111.282 220.005 111.167C219.428 111.052 218.898 110.769 218.482 110.353C218.066 109.936 217.783 109.406 217.668 108.829C217.553 108.252 217.612 107.654 217.837 107.11C218.062 106.567 218.444 106.102 218.933 105.775C219.422 105.448 219.997 105.274 220.586 105.274C221.375 105.274 222.131 105.587 222.689 106.145C223.247 106.703 223.561 107.46 223.561 108.249Z" fill="#56BB6A"/>
<path d="M233.589 108.993C233.589 109.581 233.414 110.156 233.088 110.645C232.761 111.135 232.296 111.516 231.752 111.741C231.209 111.966 230.611 112.025 230.034 111.911C229.456 111.796 228.926 111.512 228.51 111.096C228.094 110.68 227.811 110.15 227.696 109.573C227.581 108.996 227.64 108.398 227.865 107.854C228.091 107.311 228.472 106.846 228.961 106.519C229.45 106.192 230.026 106.018 230.614 106.018C231.403 106.018 232.16 106.331 232.718 106.889C233.275 107.447 233.589 108.204 233.589 108.993Z" fill="black"/>
<path d="M233.122 108.249C233.122 108.837 232.948 109.413 232.621 109.902C232.294 110.391 231.829 110.772 231.286 110.997C230.742 111.223 230.144 111.282 229.567 111.167C228.99 111.052 228.46 110.769 228.044 110.353C227.628 109.936 227.344 109.406 227.23 108.829C227.115 108.252 227.174 107.654 227.399 107.11C227.624 106.567 228.005 106.102 228.495 105.775C228.984 105.448 229.559 105.274 230.147 105.274C230.936 105.274 231.693 105.587 232.251 106.145C232.809 106.703 233.122 107.46 233.122 108.249Z" fill="#56BB6A"/>
<path d="M214.647 117.412C214.647 118 214.472 118.576 214.145 119.065C213.818 119.554 213.354 119.935 212.81 120.16C212.267 120.386 211.668 120.445 211.091 120.33C210.514 120.215 209.984 119.932 209.568 119.516C209.152 119.099 208.869 118.569 208.754 117.992C208.639 117.415 208.698 116.817 208.923 116.273C209.148 115.73 209.53 115.265 210.019 114.938C210.508 114.611 211.083 114.437 211.672 114.437C212.461 114.437 213.217 114.75 213.775 115.308C214.333 115.866 214.647 116.623 214.647 117.412Z" fill="black"/>
<path d="M214.175 116.667C214.175 117.256 214 117.831 213.674 118.32C213.347 118.809 212.882 119.191 212.338 119.416C211.795 119.641 211.197 119.7 210.62 119.585C210.042 119.47 209.512 119.187 209.096 118.771C208.68 118.355 208.397 117.825 208.282 117.248C208.167 116.671 208.226 116.072 208.451 115.529C208.677 114.985 209.058 114.521 209.547 114.194C210.036 113.867 210.612 113.692 211.2 113.692C211.989 113.692 212.746 114.006 213.304 114.564C213.862 115.122 214.175 115.878 214.175 116.667Z" fill="#56BB6A"/>
<path d="M224.027 117.412C224.027 118 223.853 118.576 223.526 119.065C223.199 119.554 222.734 119.935 222.191 120.16C221.647 120.386 221.049 120.445 220.472 120.33C219.895 120.215 219.365 119.932 218.949 119.516C218.533 119.099 218.249 118.569 218.134 117.992C218.02 117.415 218.079 116.817 218.304 116.273C218.529 115.73 218.91 115.265 219.399 114.938C219.889 114.611 220.464 114.437 221.052 114.437C221.841 114.437 222.598 114.75 223.156 115.308C223.714 115.866 224.027 116.623 224.027 117.412Z" fill="black"/>
<path d="M223.561 116.667C223.561 117.256 223.386 117.831 223.059 118.32C222.732 118.809 222.268 119.191 221.724 119.416C221.18 119.641 220.582 119.7 220.005 119.585C219.428 119.47 218.898 119.187 218.482 118.771C218.066 118.355 217.783 117.825 217.668 117.248C217.553 116.671 217.612 116.072 217.837 115.529C218.062 114.985 218.444 114.521 218.933 114.194C219.422 113.867 219.997 113.692 220.586 113.692C221.375 113.692 222.131 114.006 222.689 114.564C223.247 115.122 223.561 115.878 223.561 116.667Z" fill="#56BB6A"/>
<path d="M233.589 117.412C233.589 118 233.414 118.576 233.088 119.065C232.761 119.554 232.296 119.935 231.752 120.16C231.209 120.386 230.611 120.445 230.034 120.33C229.456 120.215 228.926 119.932 228.51 119.516C228.094 119.099 227.811 118.569 227.696 117.992C227.581 117.415 227.64 116.817 227.865 116.273C228.091 115.73 228.472 115.265 228.961 114.938C229.45 114.611 230.026 114.437 230.614 114.437C231.403 114.437 232.16 114.75 232.718 115.308C233.275 115.866 233.589 116.623 233.589 117.412Z" fill="black"/>
<path d="M233.122 116.667C233.122 117.256 232.948 117.831 232.621 118.32C232.294 118.809 231.829 119.191 231.286 119.416C230.742 119.641 230.144 119.7 229.567 119.585C228.99 119.47 228.46 119.187 228.044 118.771C227.628 118.355 227.344 117.825 227.23 117.248C227.115 116.671 227.174 116.072 227.399 115.529C227.624 114.985 228.005 114.521 228.495 114.194C228.984 113.867 229.559 113.692 230.147 113.692C230.936 113.692 231.693 114.006 232.251 114.564C232.809 115.122 233.122 115.878 233.122 116.667Z" fill="#56BB6A"/>
<path d="M204.853 102.211H237.622V103.299L204.853 102.211Z" fill="black"/>
<path d="M107.285 130.988C107.285 134.978 105.7 138.805 102.878 141.627C100.057 144.448 96.2301 146.033 92.2399 146.033C88.2498 146.033 84.423 144.448 81.6015 141.627C78.78 138.805 77.1949 134.978 77.1949 130.988C77.1949 126.998 78.78 123.171 81.6015 120.35C84.423 117.528 88.2498 115.943 92.2399 115.943C96.2301 115.943 100.057 117.528 102.878 120.35C105.7 123.171 107.285 126.998 107.285 130.988Z" fill="black"/>
<path d="M107.285 128.95C107.285 132.94 105.7 136.767 102.878 139.588C100.057 142.41 96.2301 143.995 92.2399 143.995C88.2498 143.995 84.423 142.41 81.6015 139.588C78.78 136.767 77.1949 132.94 77.1949 128.95C77.1949 124.96 78.78 121.133 81.6015 118.311C84.423 115.49 88.2498 113.905 92.2399 113.905C96.2301 113.905 100.057 115.49 102.878 118.311C105.7 121.133 107.285 124.96 107.285 128.95Z" fill="#52CC99"/>
<path d="M96.954 123.824C96.9533 125.074 96.4565 126.272 95.5726 127.155C94.6888 128.039 93.4904 128.535 92.2408 128.535C90.9909 128.535 89.792 128.039 88.9078 127.156C88.0235 126.272 87.5261 125.074 87.525 123.824C87.5252 122.574 88.022 121.375 88.9062 120.491C89.7905 119.607 90.9896 119.11 92.2399 119.11C92.8589 119.11 93.4719 119.232 94.0438 119.469C94.6157 119.706 95.1353 120.053 95.573 120.491C96.0107 120.929 96.3578 121.448 96.5946 122.02C96.8315 122.592 96.9533 123.205 96.9532 123.824H96.954ZM92.2408 131.85C86.2619 131.85 81.3608 135.08 81.1746 139.141C82.5836 140.671 84.2944 141.892 86.199 142.727C88.1036 143.562 90.1607 143.993 92.2403 143.993C94.32 143.993 96.3771 143.562 98.2817 142.727C100.186 141.892 101.897 140.671 103.306 139.141C103.117 135.078 98.2188 131.851 92.2408 131.851V131.85Z" fill="#FF6C00"/>
<path d="M69.2032 166.428H115.273C116.337 166.428 117.358 166.851 118.111 167.603C118.863 168.356 119.286 169.377 119.286 170.441C119.286 171.505 118.863 172.526 118.111 173.278C117.358 174.031 116.337 174.454 115.273 174.454H69.2032C68.1389 174.454 67.1183 174.031 66.3657 173.278C65.6132 172.526 65.1904 171.505 65.1904 170.441C65.1904 169.377 65.6132 168.356 66.3657 167.603C67.1183 166.851 68.1389 166.428 69.2032 166.428ZM69.346 179.747H115.416C116.48 179.747 117.501 180.169 118.254 180.922C119.006 181.675 119.429 182.695 119.429 183.759C119.429 184.824 119.006 185.844 118.254 186.597C117.501 187.35 116.48 187.772 115.416 187.772H69.346C68.2817 187.772 67.2611 187.35 66.5085 186.597C65.756 185.844 65.3332 184.824 65.3332 183.759C65.3332 182.695 65.756 181.675 66.5085 180.922C67.2611 180.169 68.2817 179.747 69.346 179.747Z" fill="#DAD5E3"/>
<path d="M74.5735 185.553C74.4035 185.68 73.5093 185.206 73.2985 185.208C73.0877 185.21 72.2003 185.696 72.0286 185.573C71.8569 185.451 72.0286 184.453 71.9632 184.253C71.8977 184.052 71.1591 183.359 71.2228 183.158C71.2866 182.956 72.2887 182.818 72.4587 182.688C72.6287 182.558 73.0605 181.646 73.2713 181.646C73.4821 181.645 73.9284 182.552 74.1001 182.675C74.2718 182.798 75.2756 182.93 75.3428 183.125C75.4099 183.321 74.6832 184.031 74.6194 184.23C74.5557 184.43 74.7452 185.426 74.5744 185.551L74.5735 185.553ZM84.125 185.553C83.955 185.68 83.0608 185.206 82.85 185.208C82.6392 185.21 81.7518 185.696 81.575 185.573C81.3982 185.451 81.575 184.453 81.5104 184.253C81.4458 184.052 80.7063 183.359 80.77 183.158C80.8338 182.956 81.8351 182.818 82.0059 182.688C82.1768 182.558 82.6069 181.646 82.8185 181.646C83.0302 181.645 83.4756 182.552 83.6473 182.675C83.819 182.798 84.8228 182.93 84.89 183.125C84.9571 183.321 84.2304 184.031 84.1666 184.23C84.1029 184.43 84.2916 185.426 84.1216 185.551L84.125 185.553ZM93.6739 185.553C93.5039 185.68 92.6097 185.206 92.3989 185.208C92.1881 185.21 91.2998 185.696 91.1239 185.573C90.9479 185.451 91.1239 184.453 91.0584 184.253C90.993 184.052 90.2543 183.359 90.3189 183.158C90.3835 182.956 91.384 182.818 91.554 182.688C91.724 182.558 92.1549 181.646 92.3666 181.646C92.5782 181.645 93.0236 182.552 93.1962 182.675C93.3687 182.798 94.3717 182.93 94.4389 183.125C94.506 183.321 93.7784 184.031 93.7155 184.23C93.6526 184.43 93.8405 185.426 93.6696 185.551L93.6739 185.553ZM103.224 185.553C103.054 185.68 102.16 185.206 101.949 185.208C101.739 185.21 100.851 185.696 100.68 185.573C100.508 185.451 100.68 184.453 100.614 184.253C100.549 184.052 99.81 183.359 99.8738 183.158C99.9375 182.956 100.939 182.818 101.109 182.688C101.279 182.558 101.711 181.646 101.922 181.646C102.134 181.645 102.579 182.552 102.751 182.675C102.923 182.798 103.927 182.93 103.994 183.125C104.061 183.321 103.334 184.031 103.27 184.23C103.207 184.43 103.395 185.426 103.225 185.551L103.224 185.553ZM112.775 185.553C112.605 185.68 111.711 185.206 111.5 185.208C111.289 185.21 110.401 185.696 110.225 185.573C110.049 185.451 110.225 184.453 110.16 184.253C110.094 184.052 109.356 183.359 109.42 183.158C109.484 182.956 110.485 182.818 110.655 182.688C110.825 182.558 111.257 181.646 111.469 181.646C111.68 181.645 112.125 182.552 112.297 182.675C112.47 182.798 113.473 182.93 113.54 183.125C113.607 183.321 112.88 184.031 112.816 184.23C112.751 184.43 112.942 185.426 112.772 185.551L112.775 185.553Z" fill="black"/>
<path d="M79.2281 197.31H105.253C105.78 197.309 106.302 197.412 106.79 197.613C107.277 197.815 107.72 198.11 108.093 198.483C108.465 198.856 108.761 199.299 108.962 199.786C109.164 200.273 109.267 200.796 109.265 201.323V203.807C109.267 204.334 109.164 204.856 108.962 205.344C108.761 205.831 108.465 206.274 108.093 206.646C107.72 207.019 107.277 207.315 106.789 207.516C106.302 207.717 105.78 207.82 105.253 207.819H79.2281C78.7009 207.82 78.1786 207.717 77.6912 207.516C77.2039 207.315 76.761 207.019 76.3882 206.646C76.0153 206.274 75.7198 205.831 75.5185 205.344C75.3172 204.856 75.2142 204.334 75.2153 203.807V201.323C75.2142 200.796 75.3172 200.273 75.5185 199.786C75.7197 199.299 76.0153 198.856 76.3881 198.483C76.761 198.11 77.2038 197.815 77.6912 197.613C78.1785 197.412 78.7008 197.309 79.2281 197.31Z" fill="#56BB6A"/>
<path d="M80.7326 202.23C80.6546 202.23 80.5798 202.261 80.5247 202.316C80.4695 202.371 80.4385 202.446 80.4385 202.524C80.4385 202.602 80.4695 202.677 80.5247 202.732C80.5798 202.787 80.6546 202.818 80.7326 202.818H103.748C103.826 202.818 103.901 202.787 103.956 202.732C104.011 202.677 104.042 202.602 104.042 202.524C104.042 202.446 104.011 202.371 103.956 202.316C103.901 202.261 103.826 202.23 103.748 202.23H80.7326ZM71.9045 170.284C71.8292 170.289 71.7582 170.321 71.7063 170.376C71.6544 170.431 71.6254 170.503 71.6254 170.579C71.6254 170.654 71.6544 170.727 71.7063 170.782C71.7582 170.837 71.8292 170.869 71.9045 170.874H112.575C112.615 170.876 112.655 170.87 112.693 170.856C112.731 170.842 112.765 170.821 112.794 170.793C112.823 170.766 112.846 170.732 112.862 170.696C112.878 170.659 112.886 170.619 112.886 170.579C112.886 170.539 112.878 170.499 112.862 170.462C112.846 170.426 112.823 170.392 112.794 170.365C112.765 170.337 112.731 170.316 112.693 170.302C112.655 170.288 112.615 170.282 112.575 170.284H71.9045ZM85.145 157.211C85.0696 157.207 84.9987 157.175 84.9467 157.12C84.8948 157.065 84.8659 156.992 84.8659 156.917C84.8659 156.841 84.8948 156.769 84.9467 156.714C84.9987 156.659 85.0696 156.626 85.145 156.622H99.3323C99.4077 156.626 99.4787 156.659 99.5306 156.714C99.5825 156.769 99.6115 156.841 99.6115 156.917C99.6115 156.992 99.5825 157.065 99.5306 157.12C99.4787 157.175 99.4077 157.207 99.3323 157.211H85.145ZM73.3759 151.957C73.3005 151.953 73.2296 151.92 73.1776 151.865C73.1257 151.81 73.0968 151.738 73.0968 151.662C73.0968 151.587 73.1257 151.514 73.1776 151.459C73.2296 151.405 73.3005 151.372 73.3759 151.368H111.104C111.144 151.366 111.184 151.372 111.222 151.385C111.259 151.399 111.294 151.421 111.323 151.448C111.352 151.476 111.375 151.509 111.391 151.546C111.407 151.583 111.415 151.622 111.415 151.662C111.415 151.702 111.407 151.742 111.391 151.779C111.375 151.816 111.352 151.849 111.323 151.876C111.294 151.904 111.259 151.925 111.222 151.939C111.184 151.953 111.144 151.959 111.104 151.957H73.3759Z" fill="black"/>
<circle cx="139.5" cy="22.5" r="22" stroke="#3BE3BB"/>
<circle cx="139.5" cy="22.5" r="17.5" fill="#3BE3BB"/>
<path d="M136.923 19V17.336H140.251V29H138.411V19H136.923Z" fill="white"/>
</svg>
