<svg width="102" height="102" viewBox="0 0 102 102" fill="none" xmlns="http://www.w3.org/2000/svg">
<path d="M50.6888 69.9929C61.1783 69.9929 69.6817 61.4895 69.6817 51C69.6817 40.5105 61.1783 32.0071 50.6888 32.0071C40.1993 32.0071 31.6959 40.5105 31.6959 51C31.6959 61.4895 40.1993 69.9929 50.6888 69.9929Z" fill="#52CC99"/>
<path d="M80.9517 11.714L83.3258 16.5235L88.6322 17.2949L84.7927 21.038L85.6985 26.3239L80.9517 23.8285L76.205 26.3239L77.1108 21.038L73.2713 17.2949L78.5776 16.5235L80.9517 11.714Z" fill="#52CC99"/>
<path d="M19.6661 73.7622L22.0403 78.5718L27.348 79.3418L23.5071 83.0863L24.4129 88.3722L19.6661 85.8768L14.9194 88.3722L15.8267 83.0863L11.9857 79.3418L17.2935 78.5718L19.6661 73.7622Z" fill="#52CC99"/>
<path d="M79.3553 45.3747H77.4579C76.8562 45.3645 76.2736 45.1617 75.7954 44.7963C75.3173 44.4308 74.9688 43.9218 74.8011 43.3438C74.3657 41.975 73.8136 40.6461 73.151 39.3716C72.8599 38.8437 72.7457 38.2363 72.8252 37.6387C72.9047 37.041 73.1738 36.4846 73.593 36.0512L74.9423 34.7019C72.8278 31.5624 70.1265 28.8612 66.987 26.7467L65.6376 28.096C65.2042 28.5152 64.6479 28.7842 64.0502 28.8638C63.4526 28.9433 62.8452 28.8291 62.3173 28.5379C61.0429 27.8753 59.7139 27.3233 58.3451 26.8879C57.7671 26.7202 57.2581 26.3717 56.8926 25.8935C56.5271 25.4154 56.3243 24.8327 56.3141 24.231V22.3336C52.6003 21.5957 48.7776 21.5957 45.0638 22.3336V24.231C45.0536 24.8327 44.8508 25.4154 44.4854 25.8935C44.1199 26.3717 43.6108 26.7202 43.0328 26.8879C41.664 27.3233 40.335 27.8753 39.0606 28.5379C38.5327 28.8291 37.9253 28.9433 37.3277 28.8637C36.7301 28.7842 36.1737 28.5151 35.7404 28.096L34.391 26.7467C31.2515 28.8612 28.5503 31.5624 26.4357 34.7019L27.7851 36.0512C28.2042 36.4846 28.4733 37.041 28.5528 37.6387C28.6324 38.2363 28.5182 38.8437 28.227 39.3716C27.5644 40.6461 27.0124 41.975 26.577 43.3438C26.4092 43.9218 26.0607 44.4308 25.5826 44.7963C25.1045 45.1617 24.5218 45.3645 23.9201 45.3747H22.0227C21.2847 49.0885 21.2847 52.9113 22.0226 56.6251H23.9201C24.5218 56.6354 25.1044 56.8381 25.5826 57.2035C26.0607 57.569 26.4092 58.0781 26.5769 58.656C27.0123 60.0248 27.5644 61.3538 28.227 62.6282C28.5181 63.1561 28.6323 63.7635 28.5528 64.3612C28.4733 64.9588 28.2042 65.5152 27.785 65.9487L26.4357 67.2979C28.5501 70.4375 31.2514 73.1387 34.3909 75.2532L35.7403 73.9039C36.1737 73.4848 36.7301 73.2157 37.3277 73.1362C37.9253 73.0566 38.5327 73.1708 39.0606 73.4619C40.3351 74.1246 41.664 74.6766 43.0329 75.112C43.6108 75.2797 44.1199 75.6282 44.4854 76.1064C44.8509 76.5845 45.0536 77.1672 45.0639 77.7689V79.6664C48.7776 80.4043 52.6003 80.4043 56.3141 79.6664V77.7689C56.3244 77.1672 56.5271 76.5845 56.8926 76.1064C57.2581 75.6282 57.7671 75.2797 58.3451 75.112C59.714 74.6766 61.0429 74.1246 62.3173 73.4619C62.8453 73.1708 63.4527 73.0566 64.0503 73.1362C64.6479 73.2158 65.2042 73.4848 65.6376 73.9039L66.9871 75.2532C70.1266 73.1387 72.8278 70.4375 74.9423 67.2979L73.5929 65.9487C73.1738 65.5152 72.9047 64.9588 72.8251 64.3612C72.7456 63.7635 72.8598 63.1561 73.151 62.6282C73.8136 61.3538 74.3656 60.0248 74.801 58.656C74.9688 58.0781 75.3173 57.569 75.7954 57.2036C76.2735 56.8381 76.8562 56.6354 77.4579 56.6251H79.3554C80.0933 52.9113 80.0932 49.0885 79.3553 45.3747H79.3553ZM50.689 69.9929C46.9326 69.9929 43.2605 68.879 40.1371 66.792C37.0138 64.705 34.5794 61.7388 33.1419 58.2683C31.7044 54.7978 31.3282 50.9789 32.0611 47.2947C32.7939 43.6104 34.6028 40.2262 37.259 37.57C39.9152 34.9138 43.2994 33.1049 46.9837 32.3721C50.6679 31.6392 54.4868 32.0153 57.9573 33.4529C61.4278 34.8904 64.3941 37.3248 66.481 40.4481C68.568 43.5715 69.6819 47.2436 69.6819 51C69.6819 53.4942 69.1906 55.9639 68.2361 58.2683C67.2817 60.5726 65.8827 62.6663 64.119 64.43C62.3554 66.1936 60.2616 67.5926 57.9573 68.5471C55.653 69.5016 53.1832 69.9929 50.689 69.9929Z" fill="#241C70"/>
<path d="M55.3829 53.1915H46.617C45.0671 53.1915 43.5806 53.8072 42.4847 54.9031C41.3887 55.9991 40.773 57.4855 40.773 59.0354V67.1763C43.86 69.0801 47.4291 70.0566 51.0554 69.9896C54.6816 69.9227 58.2123 68.815 61.2269 66.7985V59.0354C61.2269 57.4855 60.6112 55.9991 59.5152 54.9031C58.4193 53.8072 56.9328 53.1915 55.3829 53.1915Z" fill="#507AB3"/>
<path d="M51 53.1915L48.078 65.6099L51 69.2624L53.922 65.6099L51 53.1915Z" fill="#D8E2F0"/>
<path d="M51 53.1915C54.631 53.1915 57.5745 50.248 57.5745 46.617C57.5745 42.9861 54.631 40.0426 51 40.0426C47.369 40.0426 44.4255 42.9861 44.4255 46.617C44.4255 50.248 47.369 53.1915 51 53.1915Z" fill="#F2C791"/>
<path d="M51 44.4255C53.3101 44.4312 55.5737 45.075 57.541 46.2857C57.4624 44.6038 56.7389 43.0168 55.5208 41.8544C54.3028 40.6919 52.6837 40.0434 51 40.0434C49.3163 40.0434 47.6972 40.6919 46.4792 41.8544C45.2611 43.0168 44.5376 44.6038 44.459 46.2857C46.4263 45.075 48.6899 44.4312 51 44.4255Z" fill="#64768C"/>
<path d="M11.7694 73.6468C6.78834 65.011 4.79495 54.9733 6.09827 45.0894C7.40159 35.2056 11.9288 26.0277 18.9782 18.9783C26.0277 11.9288 35.2056 7.40162 45.0894 6.0983C54.9732 4.79498 65.011 6.78837 73.6468 11.7695L72.1843 14.299C64.1058 9.63973 54.7159 7.77524 45.4701 8.99454C36.2243 10.2138 27.6388 14.4488 21.0444 21.0431C14.4499 27.6374 10.2147 36.2228 8.99518 45.4686C7.77566 54.7144 9.6399 64.1042 14.299 72.1829L11.7694 73.6468Z" fill="#241C70"/>
<path d="M51 96.2907C43.0642 96.294 35.267 94.2115 28.3896 90.252L29.8506 87.7209C37.9305 92.3708 47.3183 94.2268 56.5598 93.0014C65.8013 91.776 74.3809 87.5375 80.9698 80.9426C87.5587 74.3476 91.7892 65.7641 93.0061 56.5214C94.223 47.2788 92.3583 37.8928 87.701 29.8171L90.2306 28.3532C94.2026 35.2394 96.2926 43.0496 96.2907 50.9993C96.2887 58.949 94.1949 66.7582 90.2196 73.6425C86.2442 80.5268 80.5273 86.2438 73.6431 90.2193C66.7588 94.1947 58.9496 96.2887 51 96.2907Z" fill="#241C70"/>
</svg>
